{"glyphs":{"0":{"ha":1149,"x_min":47,"x_max":1103,"o":"m 839 -100 q 707 -163 792 -140 q 486 -186 622 -186 q 266 -158 351 -186 q 133 -83 181 -131 q 66 26 85 -35 q 47 153 47 88 l 47 585 q 65 704 47 650 q 131 797 83 758 l 311 949 q 444 1012 360 989 q 665 1035 529 1035 q 885 1013 800 1035 q 1018 951 971 992 q 1084 856 1065 911 q 1103 736 1103 801 l 1103 263 q 1085 144 1103 199 q 1019 50 1067 90 l 839 -100 m 1089 263 l 1089 736 q 1070 852 1089 800 q 1005 942 1051 904 q 876 1000 958 979 q 665 1021 793 1021 q 454 1000 538 1021 q 324 942 371 979 q 259 852 278 904 q 240 736 240 800 l 240 263 q 259 147 240 199 q 324 57 278 94 q 454 -1 371 19 q 665 -21 538 -21 q 876 -1 793 -21 q 1005 57 958 19 q 1070 147 1051 94 q 1089 263 1089 199 m 390 704 q 414 802 390 760 q 497 868 438 844 q 664 892 556 892 q 833 867 772 892 q 917 801 893 843 q 940 704 940 760 l 940 294 q 917 197 940 239 q 833 131 893 154 q 664 107 772 107 q 497 131 556 107 q 414 197 438 154 q 390 294 390 239 l 390 704 m 404 704 l 404 294 q 428 203 404 242 q 508 142 451 164 q 664 121 564 121 q 822 142 764 121 q 903 203 879 164 q 926 294 926 242 l 926 704 q 903 796 926 757 q 822 856 879 835 q 664 878 764 878 q 508 856 564 878 q 428 796 451 835 q 404 704 404 757 m 554 313 l 554 686 q 574 732 554 714 q 665 750 594 750 q 757 732 738 750 q 776 686 776 714 l 776 313 q 757 266 776 285 q 665 247 738 247 q 574 266 594 247 q 554 313 554 285 m 568 313 q 571 294 568 303 q 583 278 574 285 l 583 535 q 581 555 583 546 q 568 569 578 564 l 568 313 z "},"1":{"ha":974,"x_min":33,"x_max":954,"o":"m 711 -165 l 97 -165 q 33 -101 33 -165 l 33 67 q 53 118 33 101 l 232 269 q 239 274 238 272 l 239 567 l 125 567 q 61 631 61 567 l 61 799 q 81 850 61 833 l 260 1001 q 304 1014 275 1014 l 707 1014 q 771 950 771 1014 l 771 282 l 890 282 q 954 218 954 282 l 954 50 q 935 -1 954 15 l 754 -151 q 711 -165 740 -165 m 890 0 q 940 50 940 0 l 940 218 q 890 268 940 268 l 757 268 l 757 950 q 707 1000 757 1000 l 304 1000 q 254 950 254 1000 l 254 782 q 304 732 254 732 l 432 732 l 432 268 l 276 268 q 226 218 226 268 l 226 50 q 276 0 226 0 l 890 0 m 351 118 l 351 132 l 588 132 l 588 861 l 379 861 l 379 875 l 601 875 l 601 132 l 815 132 l 815 118 l 351 118 z "},"2":{"ha":1026,"x_min":22,"x_max":990,"o":"m 747 -165 l 86 -165 q 22 -101 22 -165 l 22 138 q 46 297 22 239 q 111 389 69 354 l 290 540 q 314 558 301 550 q 340 572 326 565 l 139 572 q 75 636 75 572 l 75 799 q 94 850 75 833 l 274 1001 q 318 1014 289 1014 l 728 1014 q 920 951 854 1014 q 986 769 986 889 l 986 639 q 966 529 986 575 q 906 451 946 483 l 726 301 q 710 290 718 296 q 690 276 701 283 l 926 276 q 990 213 990 276 l 990 50 q 971 -1 990 15 l 790 -151 q 747 -165 776 -165 m 926 0 q 976 50 976 0 l 976 213 q 926 263 976 263 l 531 263 l 531 292 q 538 322 531 315 q 567 333 546 328 l 756 393 q 915 479 857 425 q 972 639 972 533 l 972 769 q 910 941 972 882 q 728 1000 847 1000 l 318 1000 q 268 950 268 1000 l 268 788 q 318 738 268 738 l 619 738 q 649 730 640 738 q 657 701 657 722 q 649 669 657 679 q 619 651 642 658 l 433 593 q 320 544 369 574 q 243 456 271 514 q 215 289 215 397 l 215 50 q 265 0 215 0 l 926 0 m 443 456 l 767 563 q 796 585 785 569 q 807 628 807 601 l 807 754 q 771 840 807 818 q 672 861 735 861 l 393 861 l 393 875 l 672 875 q 782 849 743 875 q 821 754 821 824 l 821 628 q 808 578 821 596 q 772 550 794 560 l 449 443 q 394 409 410 429 q 379 342 379 389 l 379 139 l 851 139 l 851 125 l 367 125 l 367 342 q 383 417 367 393 q 443 456 400 442 z "},"3":{"ha":1024,"x_min":35,"x_max":1000,"o":"m 99 -165 q 35 -101 35 -165 l 35 61 q 54 113 35 96 l 183 221 q 147 281 147 231 l 147 429 q 167 481 147 464 l 272 569 l 99 569 q 35 633 35 569 l 35 799 q 54 850 35 833 l 233 1001 q 278 1014 249 1014 l 665 1014 q 848 956 789 1014 q 907 801 907 899 l 907 721 q 894 640 907 675 q 854 581 882 604 l 851 578 q 967 509 933 560 q 1000 369 1000 458 l 1000 231 q 922 47 1000 111 l 744 -103 q 538 -165 671 -165 l 99 -165 m 278 263 q 228 213 228 263 l 228 50 q 278 0 228 0 l 717 0 q 918 62 850 0 q 986 231 986 124 l 986 369 q 948 510 986 461 q 811 571 910 560 q 875 629 857 590 q 893 721 893 668 l 893 801 q 837 947 893 893 q 665 1000 781 1000 l 278 1000 q 228 950 228 1000 l 228 785 q 278 735 228 735 l 536 735 q 579 722 569 735 q 589 693 589 710 l 589 672 q 579 643 589 656 q 536 631 569 631 l 390 631 q 340 581 340 631 l 340 432 q 390 382 340 382 l 626 382 q 669 370 660 382 q 679 342 679 358 l 679 304 q 669 275 679 288 q 626 263 660 263 l 278 263 m 465 499 l 465 513 l 581 513 q 684 531 651 513 q 726 577 717 549 q 735 639 735 606 l 735 733 q 721 799 735 769 q 671 844 707 828 q 567 861 635 861 l 353 861 l 353 875 l 567 875 q 683 855 644 875 q 735 801 722 835 q 749 728 749 768 l 749 639 q 743 586 749 613 q 718 540 738 560 q 657 510 699 519 l 679 510 q 803 472 765 510 q 840 360 840 433 l 840 264 q 827 192 840 224 q 775 142 814 160 q 658 125 736 125 l 353 125 l 353 139 l 658 139 q 764 154 728 139 q 813 198 800 169 q 826 264 826 226 l 826 360 q 792 464 826 429 q 676 499 757 499 l 465 499 z "},"4":{"ha":1124,"x_min":54,"x_max":1063,"o":"m 819 -165 l 606 -165 q 542 -101 542 -165 l 542 67 l 321 67 q 167 103 225 67 q 81 205 108 140 q 54 353 54 269 l 54 799 q 74 850 54 833 l 253 1001 q 297 1014 268 1014 l 513 1014 q 576 950 576 1014 l 576 863 l 740 1001 q 785 1014 756 1014 l 999 1014 q 1063 950 1063 1014 l 1063 50 q 1043 -1 1063 15 l 863 -151 q 819 -165 849 -165 m 735 232 l 735 50 q 785 0 735 0 l 999 0 q 1049 50 1049 0 l 1049 950 q 999 1000 1049 1000 l 785 1000 q 735 950 735 1000 l 735 522 l 606 522 q 563 569 563 522 l 563 950 q 513 1000 563 1000 l 297 1000 q 247 950 247 1000 l 247 463 q 306 288 247 344 q 500 232 365 232 l 735 232 m 899 875 l 899 125 l 885 125 l 885 371 l 553 371 q 435 408 472 371 q 399 517 399 444 l 399 875 l 413 875 l 413 517 q 553 385 413 385 l 885 385 l 885 875 l 899 875 z "},"5":{"ha":1038,"x_min":43,"x_max":1013,"o":"m 107 -165 q 43 -101 43 -165 l 43 61 q 63 113 43 96 l 185 215 l 121 215 q 57 279 57 215 l 57 799 q 76 850 57 833 l 256 1001 q 300 1014 271 1014 l 899 1014 q 963 950 963 1014 l 963 785 q 943 733 963 750 l 843 649 q 967 574 922 631 q 1013 424 1013 518 l 1013 231 q 933 50 1013 117 l 753 -101 q 665 -149 717 -132 q 549 -165 614 -165 l 107 -165 m 728 0 q 926 63 853 0 q 999 231 999 125 l 999 424 q 933 590 999 535 q 756 644 868 644 l 565 644 l 565 735 l 899 735 q 949 785 949 735 l 949 950 q 899 1000 949 1000 l 300 1000 q 250 950 250 1000 l 250 431 q 300 381 250 381 l 644 381 q 682 349 682 381 l 682 294 q 644 263 682 263 l 286 263 q 236 213 236 263 l 236 50 q 286 0 236 0 l 728 0 m 361 139 l 689 139 q 800 168 767 139 q 833 261 833 197 l 833 383 q 800 477 833 449 q 701 506 767 506 l 401 506 l 401 875 l 824 875 l 824 861 l 415 861 l 415 519 l 701 519 q 811 488 775 519 q 847 383 847 456 l 847 261 q 811 158 847 190 q 689 125 775 125 l 361 125 l 361 139 z "},"6":{"ha":1101,"x_min":47,"x_max":1071,"o":"m 478 -186 q 258 -158 343 -186 q 128 -83 174 -131 q 65 24 82 -36 q 47 150 47 85 l 47 564 q 67 693 47 635 q 135 790 88 751 l 314 942 q 420 995 354 976 q 582 1014 486 1014 l 901 1014 q 951 999 936 1014 q 965 950 965 983 l 965 786 q 946 735 965 751 l 844 650 q 1022 567 974 632 q 1071 393 1071 501 l 1071 260 q 1053 140 1071 194 q 988 47 1035 86 l 807 -104 q 681 -165 761 -143 q 478 -186 601 -186 m 554 622 l 554 653 q 572 720 554 704 q 642 736 590 736 l 901 736 q 951 786 951 736 l 951 950 q 901 1000 951 1000 l 582 1000 q 376 964 451 1000 q 271 864 301 928 q 240 715 240 800 l 240 260 q 258 144 240 196 q 320 56 275 93 q 447 -1 365 19 q 657 -21 529 -21 q 903 14 817 -21 q 1024 112 990 49 q 1057 260 1057 175 l 1057 393 q 1028 532 1057 476 q 928 615 999 588 q 731 643 857 643 q 554 622 624 643 m 410 454 q 463 508 426 492 q 551 528 500 524 q 665 532 603 532 q 788 524 733 532 q 875 485 843 517 q 907 382 907 454 l 907 260 q 874 156 907 190 q 786 110 842 121 q 661 99 731 99 q 526 109 586 99 q 431 154 467 119 q 396 260 396 189 l 396 715 q 444 842 396 808 q 582 875 493 875 l 826 875 l 826 861 l 582 861 q 456 831 501 861 q 410 715 410 801 l 410 454 m 410 386 l 410 260 q 444 162 410 193 q 536 122 479 131 q 661 113 593 113 q 778 122 725 113 q 862 163 831 131 q 893 260 893 194 l 893 382 q 862 478 893 450 q 778 512 831 506 q 665 518 726 518 q 658 518 663 518 q 568 516 613 518 q 488 502 524 514 q 431 463 453 490 q 410 386 410 436 m 554 364 q 571 399 554 385 q 647 414 588 414 q 726 399 710 414 q 743 364 743 385 l 743 282 q 726 245 743 260 q 647 231 710 231 q 571 245 588 231 q 554 282 554 260 l 554 364 z "},"7":{"ha":1010,"x_min":19,"x_max":972,"o":"m 410 -165 l 185 -165 q 121 -101 121 -165 l 121 150 q 141 284 121 232 q 200 369 161 336 l 379 521 q 450 563 408 544 l 450 567 l 83 567 q 19 631 19 567 l 19 799 q 39 850 19 833 l 218 1001 q 263 1014 233 1014 l 908 1014 q 972 950 972 1014 l 972 599 q 953 465 972 517 q 893 379 933 414 l 713 229 q 653 192 686 207 l 653 50 q 633 -1 653 15 l 453 -151 q 410 -165 439 -165 m 908 1000 l 263 1000 q 213 950 213 1000 l 213 782 q 263 732 213 732 l 643 732 l 643 607 l 531 576 q 408 524 457 554 q 337 442 360 494 q 314 301 314 390 l 314 50 q 364 0 314 0 l 589 0 q 639 50 639 0 l 639 293 l 742 324 q 865 376 817 346 q 935 458 913 406 q 958 599 958 511 l 958 950 q 908 1000 958 1000 m 469 125 l 469 333 q 483 383 469 365 q 518 411 496 401 l 754 506 q 794 569 794 522 l 794 861 l 338 861 l 338 875 l 808 875 l 808 569 q 797 520 808 538 q 760 492 785 503 l 524 397 q 494 375 506 390 q 483 333 483 360 l 483 125 l 469 125 z "},"8":{"ha":1126,"x_min":32,"x_max":1096,"o":"m 475 -186 q 256 -163 342 -186 q 121 -100 169 -140 q 52 -9 72 -60 q 32 97 32 42 l 32 204 q 52 320 32 274 q 106 394 72 367 l 149 431 q 109 490 121 454 q 97 569 97 525 l 97 650 q 113 740 97 699 q 164 810 128 781 l 343 961 q 460 1016 385 997 q 656 1035 536 1035 q 885 1006 804 1035 q 999 925 967 978 q 1031 801 1031 872 l 1031 721 q 1018 640 1031 675 q 978 581 1006 604 l 971 575 q 1060 501 1025 554 q 1096 356 1096 447 l 1096 221 q 1080 126 1096 169 q 1024 50 1064 83 l 844 -100 q 708 -163 797 -140 q 475 -186 619 -186 m 1082 356 q 1040 506 1082 454 q 935 571 997 558 q 999 629 981 590 q 1017 721 1017 668 l 1017 801 q 985 919 1017 869 q 874 994 953 968 q 656 1021 796 1021 q 437 994 517 1021 q 324 919 357 968 q 290 801 290 869 l 290 721 q 308 629 290 668 q 372 571 326 590 q 267 506 310 558 q 225 356 225 454 l 225 221 q 263 94 225 149 q 394 10 300 40 q 654 -21 488 -21 q 915 10 822 -21 q 1044 94 1007 40 q 1082 221 1082 149 l 1082 356 m 372 240 l 372 368 q 410 460 372 421 q 549 513 447 499 q 452 554 482 525 q 422 632 422 583 l 422 775 q 477 873 422 840 q 654 906 532 906 q 831 872 776 906 q 885 764 885 838 l 885 632 q 856 554 885 583 q 760 513 826 525 q 898 461 861 500 q 935 369 935 422 l 935 240 q 911 164 935 197 q 827 112 888 131 q 654 93 767 93 q 481 112 543 93 q 396 164 419 131 q 372 240 372 197 m 386 240 q 444 144 386 181 q 654 107 503 107 q 813 124 756 107 q 896 170 871 140 q 921 240 921 200 l 921 369 q 863 468 921 431 q 654 506 804 506 q 445 467 504 506 q 386 368 386 429 l 386 240 m 436 632 q 490 546 436 572 q 654 519 544 519 q 818 546 765 519 q 871 632 871 572 l 871 764 q 817 863 871 833 q 654 892 764 892 q 436 775 436 892 l 436 632 m 532 274 l 532 347 q 556 383 532 368 q 654 397 579 397 q 753 383 731 397 q 775 347 775 368 l 775 274 q 753 237 775 251 q 654 222 731 222 q 556 237 579 222 q 532 274 532 251 m 567 667 l 567 728 q 581 763 567 749 q 654 778 596 778 q 727 763 714 778 q 740 728 740 749 l 740 667 q 727 630 740 644 q 654 615 714 615 q 581 630 596 615 q 567 667 567 644 z "},"9":{"ha":1101,"x_min":32,"x_max":1056,"o":"m 201 -165 q 152 -150 167 -165 q 138 -101 138 -135 l 138 63 q 157 114 138 97 l 258 200 q 81 283 129 218 q 32 456 32 347 l 32 589 q 50 710 32 656 q 115 803 68 764 l 294 953 q 419 1013 340 992 q 625 1035 499 1035 q 844 1013 760 1035 q 975 953 929 992 q 1038 860 1021 914 q 1056 740 1056 806 l 1056 285 q 1036 156 1056 214 q 968 58 1017 99 l 788 -92 q 681 -146 747 -126 q 521 -165 615 -165 l 201 -165 m 728 378 l 728 347 q 710 280 728 296 q 640 264 692 264 l 381 264 q 331 214 331 264 l 331 50 q 381 0 331 0 l 700 0 q 906 36 832 0 q 1011 136 981 72 q 1042 285 1042 200 l 1042 740 q 1024 856 1042 804 q 962 944 1007 907 q 835 1001 917 981 q 625 1021 753 1021 q 378 986 465 1021 q 258 888 292 951 q 225 740 225 825 l 225 607 q 254 469 225 525 q 355 385 283 413 q 551 357 426 357 q 728 378 658 357 m 617 468 q 494 476 549 468 q 407 515 439 483 q 375 618 375 547 l 375 740 q 408 845 375 811 q 496 890 440 879 q 621 901 551 901 q 756 891 696 901 q 851 847 817 881 q 886 740 886 813 l 886 285 q 838 158 886 192 q 700 125 789 125 l 456 125 l 456 139 l 700 139 q 826 169 781 139 q 872 285 872 199 l 872 546 q 819 492 856 508 q 731 472 782 476 q 617 468 679 468 m 872 614 l 872 740 q 838 839 872 808 q 746 878 803 869 q 621 888 689 888 q 504 878 557 888 q 420 838 451 869 q 389 740 389 807 l 389 618 q 420 523 389 551 q 503 488 451 494 q 617 482 556 482 q 624 482 619 482 q 714 484 669 482 q 794 498 758 486 q 851 537 829 510 q 872 614 872 564 m 728 636 q 712 601 728 615 q 635 586 696 586 q 556 601 572 586 q 539 636 539 615 l 539 718 q 556 755 539 740 q 635 769 572 769 q 712 755 696 769 q 728 718 728 740 l 728 636 z "}," ":{"ha":451,"x_min":0,"x_max":0,"o":""}," ":{"ha":451,"x_min":0,"x_max":0,"o":""},"A":{"ha":1153,"x_min":42,"x_max":1113,"o":"m 353 -151 q 310 -165 339 -165 l 106 -165 q 42 -101 42 -165 l 42 265 q 55 363 42 308 q 97 493 68 418 l 217 807 q 227 828 221 819 q 240 844 233 838 l 242 846 l 419 994 q 481 1014 440 1014 l 854 1014 q 936 960 918 1014 l 1057 644 q 1099 515 1086 569 q 1113 417 1113 460 l 1113 50 q 1093 -1 1113 15 l 913 -151 q 869 -165 899 -165 l 660 -165 q 592 -101 592 -165 l 592 79 l 553 79 l 553 50 q 533 -1 553 15 l 353 -151 m 539 50 l 539 244 l 785 244 l 785 50 q 839 0 785 0 l 1049 0 q 1099 50 1099 0 l 1099 417 q 1085 513 1099 458 q 1044 639 1072 567 l 924 954 q 854 1000 908 1000 l 481 1000 q 410 954 425 1000 l 289 639 q 248 513 261 567 q 235 417 235 458 l 235 50 q 285 0 235 0 l 489 0 q 539 50 539 0 m 951 125 l 938 125 l 938 364 l 396 364 l 396 125 l 382 125 l 382 421 q 388 492 382 460 q 406 556 394 525 l 494 783 q 529 849 510 822 q 596 875 549 875 l 732 875 q 797 849 778 875 q 832 782 815 822 l 928 556 q 945 492 939 525 q 951 421 951 460 l 951 125 m 396 378 l 938 378 l 938 421 q 932 490 938 458 q 915 550 926 522 l 819 776 q 788 837 804 813 q 732 861 771 861 l 596 861 q 538 838 554 861 q 507 778 521 814 l 418 550 q 402 490 408 522 q 396 421 396 458 l 396 378 m 618 708 q 644 732 628 732 l 679 732 q 706 708 696 732 l 771 497 l 553 497 l 618 708 z "},"À":{"ha":1153,"x_min":42,"x_max":1113,"o":"m 353 -151 q 310 -165 339 -165 l 106 -165 q 42 -101 42 -165 l 42 265 q 55 363 42 308 q 97 493 68 418 l 217 807 q 227 828 221 819 q 240 844 233 838 l 242 846 l 340 928 l 244 940 q 197 958 211 944 q 182 1004 182 972 l 182 1138 q 201 1188 182 1171 l 381 1339 q 424 1349 399 1350 l 908 1289 q 956 1271 942 1285 q 971 1225 971 1257 l 971 1092 q 951 1042 971 1058 l 904 1003 q 936 960 926 989 l 1057 644 q 1099 515 1086 569 q 1113 417 1113 460 l 1113 50 q 1093 -1 1113 15 l 913 -151 q 869 -165 899 -165 l 660 -165 q 592 -101 592 -165 l 592 79 l 553 79 l 553 50 q 533 -1 553 15 l 353 -151 m 539 50 l 539 244 l 785 244 l 785 50 q 839 0 785 0 l 1049 0 q 1099 50 1099 0 l 1099 417 q 1085 513 1099 458 q 1044 639 1072 567 l 924 954 q 854 1000 908 1000 l 481 1000 q 410 954 425 1000 l 289 639 q 248 513 261 567 q 235 417 235 458 l 235 50 q 285 0 235 0 l 489 0 q 539 50 539 0 m 951 125 l 938 125 l 938 364 l 396 364 l 396 125 l 382 125 l 382 421 q 388 492 382 460 q 406 556 394 525 l 494 783 q 529 849 510 822 q 596 875 549 875 l 732 875 q 797 849 778 875 q 832 782 815 822 l 928 556 q 945 492 939 525 q 951 421 951 460 l 951 125 m 396 378 l 938 378 l 938 421 q 932 490 938 458 q 915 550 926 522 l 819 776 q 788 837 804 813 q 732 861 771 861 l 596 861 q 538 838 554 861 q 507 778 521 814 l 418 550 q 402 490 408 522 q 396 421 396 458 l 396 378 m 910 1046 q 957 1092 957 1040 l 957 1225 q 945 1262 957 1251 q 907 1275 933 1272 l 422 1335 q 375 1289 375 1340 l 375 1156 q 387 1119 375 1129 q 425 1106 399 1108 l 910 1046 m 618 708 q 644 732 628 732 l 679 732 q 706 708 696 732 l 771 497 l 553 497 l 618 708 m 500 1218 l 832 1176 l 832 1163 l 500 1204 l 500 1218 z "},"Á":{"ha":1153,"x_min":42,"x_max":1113,"o":"m 353 -151 q 310 -165 339 -165 l 106 -165 q 42 -101 42 -165 l 42 265 q 55 363 42 308 q 97 493 68 418 l 217 807 q 227 828 221 819 q 240 844 233 838 l 242 846 l 290 886 l 244 881 q 182 940 182 872 l 182 1074 q 187 1104 182 1093 q 200 1122 192 1115 l 381 1274 q 424 1289 393 1286 l 908 1349 q 971 1289 971 1357 l 971 1156 q 951 1107 971 1119 l 842 1014 l 854 1014 q 936 960 918 1014 l 1057 644 q 1099 515 1086 569 q 1113 417 1113 460 l 1113 50 q 1093 -1 1113 15 l 913 -151 q 869 -165 899 -165 l 660 -165 q 592 -101 592 -165 l 592 79 l 553 79 l 553 50 q 533 -1 553 15 l 353 -151 m 539 50 l 539 244 l 785 244 l 785 50 q 839 0 785 0 l 1049 0 q 1099 50 1099 0 l 1099 417 q 1085 513 1099 458 q 1044 639 1072 567 l 924 954 q 854 1000 908 1000 l 481 1000 q 410 954 425 1000 l 289 639 q 248 513 261 567 q 235 417 235 458 l 235 50 q 285 0 235 0 l 489 0 q 539 50 539 0 m 951 125 l 938 125 l 938 364 l 396 364 l 396 125 l 382 125 l 382 421 q 388 492 382 460 q 406 556 394 525 l 494 783 q 529 849 510 822 q 596 875 549 875 l 732 875 q 797 849 778 875 q 832 782 815 822 l 928 556 q 945 492 939 525 q 951 421 951 460 l 951 125 m 396 378 l 938 378 l 938 421 q 932 490 938 458 q 915 550 926 522 l 819 776 q 788 837 804 813 q 732 861 771 861 l 596 861 q 538 838 554 861 q 507 778 521 814 l 418 550 q 402 490 408 522 q 396 421 396 458 l 396 378 m 907 1106 q 945 1119 933 1108 q 957 1156 957 1129 l 957 1289 q 910 1335 957 1340 l 425 1275 q 387 1262 399 1272 q 375 1225 375 1251 l 375 1092 q 422 1046 375 1040 l 907 1106 m 618 708 q 644 732 628 732 l 679 732 q 706 708 696 732 l 771 497 l 553 497 l 618 708 m 832 1218 l 832 1204 l 500 1163 l 500 1176 l 832 1218 z "},"Â":{"ha":1153,"x_min":42,"x_max":1113,"o":"m 353 -151 q 310 -165 339 -165 l 106 -165 q 42 -101 42 -165 l 42 265 q 55 363 42 308 q 97 493 68 418 l 217 807 q 227 828 221 819 q 240 844 233 838 l 242 846 l 307 901 l 257 886 q 197 883 211 872 q 182 943 182 893 l 182 1056 q 187 1096 182 1082 q 201 1119 192 1110 l 383 1271 l 382 1269 q 428 1293 394 1282 l 604 1357 q 634 1367 618 1364 q 664 1371 650 1369 q 690 1369 678 1371 q 713 1363 703 1368 l 904 1293 q 958 1265 946 1278 q 971 1207 971 1251 l 971 1094 q 967 1059 971 1072 q 957 1039 964 1046 l 956 1038 l 910 999 q 936 960 928 986 l 1057 644 q 1099 515 1086 569 q 1113 417 1113 460 l 1113 50 q 1093 -1 1113 15 l 913 -151 q 869 -165 899 -165 l 660 -165 q 592 -101 592 -165 l 592 79 l 553 79 l 553 50 q 533 -1 553 15 l 353 -151 m 539 50 l 539 244 l 785 244 l 785 50 q 839 0 785 0 l 1049 0 q 1099 50 1099 0 l 1099 417 q 1085 513 1099 458 q 1044 639 1072 567 l 924 954 q 854 1000 908 1000 l 481 1000 q 410 954 425 1000 l 289 639 q 248 513 261 567 q 235 417 235 458 l 235 50 q 285 0 235 0 l 489 0 q 539 50 539 0 m 951 125 l 938 125 l 938 364 l 396 364 l 396 125 l 382 125 l 382 421 q 388 492 382 460 q 406 556 394 525 l 494 783 q 529 849 510 822 q 596 875 549 875 l 732 875 q 797 849 778 875 q 832 782 815 822 l 928 556 q 945 492 939 525 q 951 421 951 460 l 951 125 m 396 378 l 938 378 l 938 421 q 932 490 938 458 q 915 550 926 522 l 819 776 q 788 837 804 813 q 732 861 771 861 l 596 861 q 538 838 554 861 q 507 778 521 814 l 418 550 q 402 490 408 522 q 396 421 396 458 l 396 378 m 622 1107 q 708 1107 665 1118 l 899 1051 q 946 1049 935 1040 q 957 1094 957 1057 l 957 1207 q 946 1256 957 1244 q 899 1281 935 1267 l 708 1350 q 688 1356 699 1354 q 664 1357 676 1357 q 637 1353 651 1356 q 610 1344 622 1350 l 432 1281 q 387 1256 399 1267 q 375 1207 375 1244 l 375 1094 q 386 1049 375 1057 q 432 1051 397 1040 l 622 1107 m 618 708 q 644 732 628 732 l 679 732 q 706 708 696 732 l 771 497 l 553 497 l 618 708 m 831 1181 l 710 1219 q 690 1225 700 1222 q 665 1228 679 1228 q 642 1225 651 1228 q 621 1219 632 1222 l 500 1181 l 500 1196 l 615 1233 q 639 1239 628 1236 q 665 1242 650 1242 q 692 1239 681 1242 q 715 1233 703 1236 l 831 1196 l 831 1181 z "},"Ã":{"ha":1153,"x_min":42,"x_max":1113,"o":"m 353 -151 q 310 -165 339 -165 l 106 -165 q 42 -101 42 -165 l 42 265 q 55 363 42 308 q 97 493 68 418 l 217 807 q 227 828 221 819 q 240 844 233 838 l 242 846 l 314 907 q 284 899 300 904 q 249 889 268 894 q 181 939 181 871 l 181 1079 q 201 1131 181 1114 l 381 1281 q 418 1300 393 1290 l 419 1300 l 419 1301 q 492 1318 464 1314 q 553 1319 521 1322 q 640 1308 585 1317 l 642 1308 l 665 1306 l 696 1301 q 782 1291 753 1293 q 833 1294 811 1289 q 890 1310 856 1299 q 900 1313 897 1311 q 968 1263 968 1331 l 968 1122 q 963 1092 968 1104 q 947 1072 957 1081 l 876 1013 q 936 960 921 1004 l 1057 644 q 1099 515 1086 569 q 1113 417 1113 460 l 1113 50 q 1093 -1 1113 15 l 913 -151 q 869 -165 899 -165 l 660 -165 q 592 -101 592 -165 l 592 79 l 553 79 l 553 50 q 533 -1 553 15 l 353 -151 m 539 50 l 539 244 l 785 244 l 785 50 q 839 0 785 0 l 1049 0 q 1099 50 1099 0 l 1099 417 q 1085 513 1099 458 q 1044 639 1072 567 l 924 954 q 854 1000 908 1000 l 481 1000 q 410 954 425 1000 l 289 639 q 248 513 261 567 q 235 417 235 458 l 235 50 q 285 0 235 0 l 489 0 q 539 50 539 0 m 951 125 l 938 125 l 938 364 l 396 364 l 396 125 l 382 125 l 382 421 q 388 492 382 460 q 406 556 394 525 l 494 783 q 529 849 510 822 q 596 875 549 875 l 732 875 q 797 849 778 875 q 832 782 815 822 l 928 556 q 945 492 939 525 q 951 421 951 460 l 951 125 m 396 378 l 938 378 l 938 421 q 932 490 938 458 q 915 550 926 522 l 819 776 q 788 837 804 813 q 732 861 771 861 l 596 861 q 538 838 554 861 q 507 778 521 814 l 418 550 q 402 490 408 522 q 396 421 396 458 l 396 378 m 665 1061 l 688 1058 q 775 1047 743 1050 q 835 1049 807 1044 q 906 1065 863 1053 q 942 1085 929 1075 q 956 1122 956 1096 l 956 1263 q 906 1299 956 1314 q 896 1296 901 1297 q 837 1280 860 1285 q 784 1277 814 1275 q 696 1288 754 1279 l 665 1292 l 642 1294 l 642 1294 q 555 1306 586 1303 q 496 1304 524 1308 q 425 1288 468 1300 q 388 1267 401 1278 q 375 1231 375 1257 l 375 1090 q 425 1054 375 1040 q 488 1071 463 1065 q 543 1076 513 1076 q 626 1067 574 1075 l 665 1061 m 618 708 q 644 732 628 732 l 679 732 q 706 708 696 732 l 771 497 l 553 497 l 618 708 m 829 1154 q 769 1154 801 1151 q 685 1165 738 1157 l 663 1168 l 624 1174 q 550 1182 578 1181 q 499 1179 522 1183 l 499 1194 q 551 1196 522 1197 q 626 1188 579 1194 l 665 1182 l 688 1179 q 771 1168 740 1171 q 829 1168 801 1165 l 829 1154 z "},"Ä":{"ha":1153,"x_min":42,"x_max":1113,"o":"m 353 -151 q 310 -165 339 -165 l 106 -165 q 42 -101 42 -165 l 42 265 q 55 363 42 308 q 97 493 68 418 l 217 807 q 227 828 221 819 q 240 844 233 838 l 242 846 l 294 890 l 206 890 q 144 950 144 890 l 144 1118 q 149 1147 144 1136 q 163 1165 154 1158 l 342 1317 q 385 1329 357 1329 l 576 1329 q 636 1269 636 1329 l 636 1261 l 701 1317 q 743 1329 717 1329 l 935 1329 q 994 1269 994 1329 l 994 1101 q 976 1054 994 1069 l 910 999 q 936 960 928 985 l 1057 644 q 1099 515 1086 569 q 1113 417 1113 460 l 1113 50 q 1093 -1 1113 15 l 913 -151 q 869 -165 899 -165 l 660 -165 q 592 -101 592 -165 l 592 79 l 553 79 l 553 50 q 533 -1 553 15 l 353 -151 m 539 50 l 539 244 l 785 244 l 785 50 q 839 0 785 0 l 1049 0 q 1099 50 1099 0 l 1099 417 q 1085 513 1099 458 q 1044 639 1072 567 l 924 954 q 854 1000 908 1000 l 481 1000 q 410 954 425 1000 l 289 639 q 248 513 261 567 q 235 417 235 458 l 235 50 q 285 0 235 0 l 489 0 q 539 50 539 0 m 951 125 l 938 125 l 938 364 l 396 364 l 396 125 l 382 125 l 382 421 q 388 492 382 460 q 406 556 394 525 l 494 783 q 529 849 510 822 q 596 875 549 875 l 732 875 q 797 849 778 875 q 832 782 815 822 l 928 556 q 945 492 939 525 q 951 421 951 460 l 951 125 m 396 378 l 938 378 l 938 421 q 932 490 938 458 q 915 550 926 522 l 819 776 q 788 837 804 813 q 732 861 771 861 l 596 861 q 538 838 554 861 q 507 778 521 814 l 418 550 q 402 490 408 522 q 396 421 396 458 l 396 378 m 581 1056 q 626 1101 626 1056 l 626 1269 q 581 1315 626 1315 l 389 1315 q 342 1269 342 1315 l 342 1101 q 389 1056 342 1056 l 581 1056 m 939 1056 q 985 1101 985 1056 l 985 1269 q 939 1315 985 1315 l 747 1315 q 701 1269 701 1315 l 701 1101 q 747 1056 701 1056 l 939 1056 m 618 708 q 644 732 628 732 l 679 732 q 706 708 696 732 l 771 497 l 553 497 l 618 708 m 474 1153 l 474 1218 l 488 1218 l 488 1153 l 474 1153 m 832 1153 l 832 1218 l 846 1218 l 846 1153 l 832 1153 z "},"Å":{"ha":1153,"x_min":42,"x_max":1113,"o":"m 533 -1 l 353 -151 q 310 -165 339 -165 l 106 -165 q 42 -101 42 -165 l 42 265 q 55 363 42 308 q 97 493 68 418 l 211 790 q 181 849 190 817 q 172 919 172 882 l 172 1000 q 185 1085 172 1046 q 232 1151 197 1124 l 413 1303 q 508 1347 447 1331 q 667 1364 569 1364 q 864 1337 796 1364 q 957 1262 932 1310 q 982 1151 982 1214 l 982 1071 q 973 1001 982 1033 q 943 942 964 968 l 1057 644 q 1099 515 1086 569 q 1113 417 1113 460 l 1113 50 q 1093 -1 1113 15 l 913 -151 q 869 -165 899 -165 l 660 -165 q 592 -101 592 -165 l 592 79 l 553 79 l 553 50 q 533 -1 553 15 m 968 1151 q 943 1256 968 1211 q 853 1325 918 1300 q 667 1350 788 1350 q 481 1325 546 1350 q 390 1256 415 1300 q 365 1151 365 1211 l 365 1071 q 374 1001 365 1033 q 406 944 383 969 l 289 639 q 248 513 261 567 q 235 417 235 458 l 235 50 q 285 0 235 0 l 489 0 q 539 50 539 0 l 539 244 l 785 244 l 785 50 q 839 0 785 0 l 1049 0 q 1099 50 1099 0 l 1099 417 q 1085 513 1099 458 q 1044 639 1072 567 l 928 944 q 959 1001 950 969 q 968 1071 968 1033 l 968 1151 m 951 125 l 938 125 l 938 364 l 396 364 l 396 125 l 382 125 l 382 421 q 388 492 382 460 q 406 556 394 525 l 494 783 q 529 849 510 822 q 596 875 549 875 l 732 875 q 797 849 778 875 q 832 782 815 822 l 928 556 q 945 492 939 525 q 951 421 951 460 l 951 125 m 396 378 l 938 378 l 938 421 q 932 490 938 458 q 915 550 926 522 l 819 776 q 788 837 804 813 q 732 861 771 861 l 596 861 q 538 838 554 861 q 507 778 521 814 l 418 550 q 402 490 408 522 q 396 421 396 458 l 396 378 m 472 1118 q 487 1192 472 1160 q 544 1241 501 1224 q 668 1258 586 1258 q 794 1240 751 1258 q 851 1191 836 1222 q 867 1118 867 1160 l 867 1056 q 851 983 867 1014 q 794 934 836 951 q 668 917 751 917 q 544 934 586 917 q 487 983 501 951 q 472 1056 472 1014 l 472 1118 m 486 1118 l 486 1056 q 501 989 486 1017 q 555 946 515 961 q 668 931 594 931 q 783 946 743 931 q 838 989 822 961 q 853 1056 853 1017 l 853 1118 q 838 1185 853 1157 q 783 1228 822 1213 q 668 1244 743 1244 q 555 1229 594 1244 q 501 1185 515 1214 q 486 1118 486 1157 m 618 708 q 644 732 626 732 l 679 732 q 706 708 697 732 l 771 497 l 553 497 l 618 708 m 750 1061 q 735 1016 750 1031 q 668 1001 721 1001 q 603 1016 617 1001 q 589 1061 589 1031 l 589 1110 q 603 1151 589 1138 q 668 1165 617 1165 q 735 1151 721 1165 q 750 1110 750 1138 l 750 1061 z "},"Ā":{"ha":1153,"x_min":42,"x_max":1113,"o":"m 353 -151 q 310 -165 339 -165 l 106 -165 q 42 -101 42 -165 l 42 265 q 55 363 42 308 q 97 493 68 418 l 217 807 q 227 828 221 819 q 240 844 233 838 l 242 846 l 294 890 l 246 890 q 182 954 182 890 l 182 1083 q 201 1135 182 1118 l 381 1286 q 425 1299 396 1299 l 907 1299 q 971 1235 971 1299 l 971 1106 q 951 1054 971 1071 l 894 1007 q 936 960 925 994 l 1057 644 q 1099 515 1086 569 q 1113 417 1113 460 l 1113 50 q 1093 -1 1113 15 l 913 -151 q 869 -165 899 -165 l 660 -165 q 592 -101 592 -165 l 592 79 l 553 79 l 553 50 q 533 -1 553 15 l 353 -151 m 539 50 l 539 244 l 785 244 l 785 50 q 839 0 785 0 l 1049 0 q 1099 50 1099 0 l 1099 417 q 1085 513 1099 458 q 1044 639 1072 567 l 924 954 q 854 1000 908 1000 l 481 1000 q 410 954 425 1000 l 289 639 q 248 513 261 567 q 235 417 235 458 l 235 50 q 285 0 235 0 l 489 0 q 539 50 539 0 m 951 125 l 938 125 l 938 364 l 396 364 l 396 125 l 382 125 l 382 421 q 388 492 382 460 q 406 556 394 525 l 494 783 q 529 849 510 822 q 596 875 549 875 l 732 875 q 797 849 778 875 q 832 782 815 822 l 928 556 q 945 492 939 525 q 951 421 951 460 l 951 125 m 396 378 l 938 378 l 938 421 q 932 490 938 458 q 915 550 926 522 l 819 776 q 788 837 804 813 q 732 861 771 861 l 596 861 q 538 838 554 861 q 507 778 521 814 l 418 550 q 402 490 408 522 q 396 421 396 458 l 396 378 m 907 1056 q 957 1106 957 1056 l 957 1235 q 907 1285 957 1285 l 425 1285 q 375 1235 375 1285 l 375 1106 q 425 1056 375 1056 l 907 1056 m 618 708 q 644 732 628 732 l 679 732 q 706 708 696 732 l 771 497 l 553 497 l 618 708 m 832 1176 l 832 1163 l 500 1163 l 500 1176 l 832 1176 z "},"Ă":{"ha":1153,"x_min":42,"x_max":1113,"o":"m 353 -151 q 310 -165 339 -165 l 106 -165 q 42 -101 42 -165 l 42 265 q 55 363 42 308 q 97 493 68 418 l 217 807 q 227 828 221 819 q 240 844 233 838 l 242 846 l 310 903 q 200 978 228 928 q 172 1094 172 1029 l 172 1156 q 192 1207 172 1190 l 371 1358 q 415 1371 386 1371 l 549 1371 q 590 1359 578 1371 q 603 1314 603 1347 l 603 1285 q 628 1257 603 1263 l 753 1361 l 751 1360 q 792 1371 763 1371 l 918 1371 q 982 1307 982 1371 l 982 1246 q 969 1161 982 1200 q 921 1094 956 1122 l 825 1014 l 854 1014 q 936 960 918 1014 l 1057 644 q 1099 515 1086 569 q 1113 417 1113 460 l 1113 50 q 1093 -1 1113 15 l 913 -151 q 869 -165 899 -165 l 660 -165 q 592 -101 592 -165 l 592 79 l 553 79 l 553 50 q 533 -1 553 15 l 353 -151 m 539 50 l 539 244 l 785 244 l 785 50 q 839 0 785 0 l 1049 0 q 1099 50 1099 0 l 1099 417 q 1085 513 1099 458 q 1044 639 1072 567 l 924 954 q 854 1000 908 1000 l 481 1000 q 410 954 425 1000 l 289 639 q 248 513 261 567 q 235 417 235 458 l 235 50 q 285 0 235 0 l 489 0 q 539 50 539 0 m 951 125 l 938 125 l 938 364 l 396 364 l 396 125 l 382 125 l 382 421 q 388 492 382 460 q 406 556 394 525 l 494 783 q 529 849 510 822 q 596 875 549 875 l 732 875 q 797 849 778 875 q 832 782 815 822 l 928 556 q 945 492 939 525 q 951 421 951 460 l 951 125 m 396 378 l 938 378 l 938 421 q 932 490 938 458 q 915 550 926 522 l 819 776 q 788 837 804 813 q 732 861 771 861 l 596 861 q 538 838 554 861 q 507 778 521 814 l 418 550 q 402 490 408 522 q 396 421 396 458 l 396 378 m 968 1246 l 968 1307 q 918 1357 968 1357 l 792 1357 q 759 1348 768 1357 q 750 1314 750 1339 l 750 1285 q 735 1252 750 1265 q 668 1239 721 1239 q 603 1252 617 1239 q 589 1285 589 1265 l 589 1314 q 580 1348 589 1339 q 549 1357 571 1357 l 415 1357 q 365 1307 365 1357 l 365 1246 q 390 1142 365 1188 q 481 1072 415 1097 q 667 1047 546 1047 q 853 1072 788 1047 q 943 1142 918 1097 q 968 1246 968 1188 m 618 708 q 644 732 628 732 l 679 732 q 706 708 696 732 l 771 497 l 553 497 l 618 708 m 867 1260 l 867 1247 q 852 1195 867 1221 q 794 1153 838 1169 q 665 1136 751 1136 q 538 1153 579 1136 q 483 1195 496 1169 q 471 1247 471 1221 l 471 1260 l 485 1260 l 485 1247 q 499 1200 485 1222 q 551 1164 513 1178 q 665 1150 590 1150 q 781 1164 740 1150 q 838 1200 822 1178 q 853 1247 853 1222 l 853 1260 l 867 1260 z "},"Ą":{"ha":1153,"x_min":42,"x_max":1113,"o":"m 353 -151 q 310 -165 339 -165 l 106 -165 q 42 -101 42 -165 l 42 265 q 55 363 42 308 q 97 493 68 418 l 217 807 q 227 828 221 819 q 240 844 233 838 l 242 846 l 419 994 q 481 1014 440 1014 l 854 1014 q 936 960 918 1014 l 1057 644 q 1099 515 1086 569 q 1113 417 1113 460 l 1113 50 q 1093 -1 1113 15 l 1035 -50 l 1049 -50 q 1099 -63 1086 -50 q 1113 -111 1113 -76 l 1113 -211 q 1097 -261 1113 -246 l 915 -412 q 874 -424 901 -424 l 719 -424 q 586 -375 622 -424 q 565 -219 550 -326 l 592 -74 l 592 79 l 553 79 l 553 50 q 533 -1 553 15 l 353 -151 m 539 50 l 539 244 l 785 244 l 785 78 l 758 -71 q 777 -213 744 -168 q 899 -258 810 -258 l 1053 -258 q 1090 -248 1081 -258 q 1099 -211 1099 -237 l 1099 -111 q 1088 -74 1099 -83 q 1049 -64 1078 -64 l 992 -64 l 1001 0 l 1049 0 q 1099 50 1099 0 l 1099 417 q 1085 513 1099 458 q 1044 639 1072 567 l 924 954 q 854 1000 908 1000 l 481 1000 q 410 954 425 1000 l 289 639 q 248 513 261 567 q 235 417 235 458 l 235 50 q 285 0 235 0 l 489 0 q 539 50 539 0 m 951 125 l 946 125 q 912 100 919 111 q 900 58 904 89 l 883 -60 q 888 -124 878 -101 q 940 -147 897 -147 l 974 -147 l 974 -161 l 940 -161 q 875 -135 889 -161 q 869 -57 861 -108 l 886 58 q 900 106 892 92 q 938 136 908 119 l 938 364 l 396 364 l 396 125 l 382 125 l 382 421 q 388 492 382 460 q 406 556 394 525 l 494 783 q 529 849 510 822 q 596 875 549 875 l 732 875 q 797 849 778 875 q 832 782 815 822 l 928 556 q 945 492 939 525 q 951 421 951 460 l 951 125 m 396 378 l 938 378 l 938 421 q 932 490 938 458 q 915 550 926 522 l 819 776 q 788 837 804 813 q 732 861 771 861 l 596 861 q 538 838 554 861 q 507 778 521 814 l 418 550 q 402 490 408 522 q 396 421 396 458 l 396 378 m 618 708 q 644 732 628 732 l 679 732 q 706 708 696 732 l 771 497 l 553 497 l 618 708 z "},"B":{"ha":1146,"x_min":63,"x_max":1122,"o":"m 126 -165 q 63 -101 63 -165 l 63 799 q 82 850 63 833 l 261 1001 q 306 1014 276 1014 l 749 1014 q 962 958 894 1014 q 1029 788 1029 903 l 1029 721 q 976 582 1029 624 l 972 579 q 1085 508 1049 563 q 1122 356 1122 454 l 1122 228 q 1050 44 1122 104 l 871 -107 q 660 -165 803 -165 l 126 -165 m 839 0 q 1043 56 978 0 q 1108 228 1108 111 l 1108 356 q 1066 510 1108 458 q 933 571 1024 563 q 1015 721 1015 606 l 1015 788 q 950 949 1015 897 q 749 1000 885 1000 l 306 1000 q 256 950 256 1000 l 256 50 q 306 0 256 0 l 839 0 m 410 875 l 692 875 q 808 855 769 875 q 860 801 847 835 q 874 728 874 768 l 874 639 q 859 563 874 597 q 785 513 844 528 q 901 492 863 513 q 952 435 939 471 q 965 353 965 399 l 965 264 q 952 192 965 224 q 900 142 939 160 q 783 125 861 125 l 410 125 l 410 875 m 424 499 l 424 139 l 783 139 q 889 154 853 139 q 938 198 925 169 q 951 264 951 226 l 951 353 q 939 427 951 394 q 891 479 926 460 q 785 499 856 499 l 424 499 m 692 513 q 803 531 768 513 q 849 577 839 549 q 860 639 860 606 l 860 728 q 847 796 860 765 q 799 844 835 826 q 692 861 763 861 l 424 861 l 424 513 l 692 513 m 568 400 l 749 400 q 801 346 801 400 l 801 292 q 749 236 801 236 l 568 236 l 568 400 m 568 764 l 686 764 q 739 708 739 764 l 739 669 q 686 614 739 614 l 568 614 l 568 764 z "},"C":{"ha":1011,"x_min":47,"x_max":985,"o":"m 742 -165 l 403 -165 q 202 -122 281 -165 q 85 -3 124 -79 q 47 174 47 74 l 47 564 q 135 790 47 715 l 315 942 q 582 1014 400 1014 l 921 1014 q 985 950 985 1014 l 985 782 q 965 731 985 747 l 785 581 q 742 567 771 567 l 571 567 l 571 332 q 589 291 571 303 q 642 279 607 279 l 921 279 q 985 215 985 279 l 985 50 q 965 -1 985 15 l 785 -151 q 742 -165 771 -165 m 921 0 q 971 50 971 0 l 971 215 q 921 265 971 265 l 642 265 q 557 332 557 265 l 557 663 q 642 732 557 732 l 921 732 q 971 782 971 732 l 971 950 q 921 1000 971 1000 l 582 1000 q 324 931 407 1000 q 240 715 240 861 l 240 283 q 324 69 240 139 q 582 0 407 0 l 921 0 m 844 125 l 613 125 q 474 143 522 125 q 408 201 426 161 q 390 304 390 240 l 390 693 q 409 799 390 760 q 476 857 428 839 q 613 875 524 875 l 844 875 l 844 861 l 613 861 q 485 845 531 861 q 422 792 440 829 q 404 693 404 756 l 404 304 q 422 208 404 244 q 484 155 439 171 q 613 139 529 139 l 844 139 l 844 125 z "},"Ç":{"ha":1011,"x_min":47,"x_max":985,"o":"m 522 -340 l 347 -340 q 290 -319 300 -340 q 292 -267 281 -299 l 331 -161 q 116 -51 185 -142 q 47 174 47 39 l 47 564 q 135 790 47 715 l 315 942 q 582 1014 400 1014 l 921 1014 q 985 950 985 1014 l 985 782 q 965 731 985 747 l 785 581 q 742 567 771 567 l 571 567 l 571 332 q 589 291 571 303 q 642 279 607 279 l 921 279 q 985 215 985 279 l 985 50 q 965 -1 985 15 l 785 -151 q 767 -161 778 -158 q 756 -174 763 -168 l 576 -324 q 522 -340 558 -340 m 921 0 q 971 50 971 0 l 971 215 q 921 265 971 265 l 642 265 q 557 332 557 265 l 557 663 q 642 732 557 732 l 921 732 q 971 782 971 732 l 971 950 q 921 1000 971 1000 l 582 1000 q 324 931 407 1000 q 240 715 240 861 l 240 283 q 310 81 240 150 q 528 1 381 13 l 483 -119 q 482 -160 474 -144 q 525 -175 490 -175 l 700 -175 q 764 -133 750 -175 l 811 0 l 921 0 m 844 125 l 722 125 l 658 -50 l 644 -50 l 707 125 l 613 125 q 474 143 522 125 q 408 201 426 161 q 390 304 390 240 l 390 693 q 409 799 390 760 q 476 857 428 839 q 613 875 524 875 l 844 875 l 844 861 l 613 861 q 485 845 531 861 q 422 792 440 829 q 404 693 404 756 l 404 304 q 422 208 404 244 q 484 155 439 171 q 613 139 529 139 l 844 139 l 844 125 z "},"Ć":{"ha":1011,"x_min":47,"x_max":985,"o":"m 742 -165 l 403 -165 q 202 -122 281 -165 q 85 -3 124 -79 q 47 174 47 74 l 47 564 q 135 790 47 715 l 242 881 q 196 940 196 883 l 196 1074 q 201 1104 196 1093 q 214 1122 206 1115 l 394 1274 q 438 1289 407 1286 l 922 1349 q 985 1289 985 1357 l 985 1156 q 965 1107 985 1119 l 856 1014 l 921 1014 q 985 950 985 1014 l 985 782 q 965 731 985 747 l 785 581 q 742 567 771 567 l 571 567 l 571 332 q 589 291 571 303 q 642 279 607 279 l 921 279 q 985 215 985 279 l 985 50 q 965 -1 985 15 l 785 -151 q 742 -165 771 -165 m 921 0 q 971 50 971 0 l 971 215 q 921 265 971 265 l 642 265 q 557 332 557 265 l 557 663 q 642 732 557 732 l 921 732 q 971 782 971 732 l 971 950 q 921 1000 971 1000 l 582 1000 q 324 931 407 1000 q 240 715 240 861 l 240 283 q 324 69 240 139 q 582 0 407 0 l 921 0 m 921 1106 q 959 1119 947 1108 q 971 1156 971 1129 l 971 1289 q 924 1335 971 1340 l 439 1275 q 401 1262 413 1272 q 389 1225 389 1251 l 389 1092 q 436 1046 389 1040 l 921 1106 m 844 125 l 613 125 q 474 143 522 125 q 408 201 426 161 q 390 304 390 240 l 390 693 q 409 799 390 760 q 476 857 428 839 q 613 875 524 875 l 844 875 l 844 861 l 613 861 q 485 845 531 861 q 422 792 440 829 q 404 693 404 756 l 404 304 q 422 208 404 244 q 484 155 439 171 q 613 139 529 139 l 844 139 l 844 125 m 846 1218 l 846 1204 l 514 1163 l 514 1176 l 846 1218 z "},"Ĉ":{"ha":1011,"x_min":47,"x_max":985,"o":"m 742 -165 l 403 -165 q 202 -122 281 -165 q 85 -3 124 -79 q 47 174 47 74 l 47 564 q 135 790 47 715 l 260 894 l 229 886 q 169 883 183 872 q 154 943 154 893 l 154 1056 q 159 1096 154 1082 q 174 1119 164 1110 l 356 1271 l 354 1269 q 400 1293 367 1282 l 576 1357 q 606 1367 590 1364 q 636 1371 622 1369 q 663 1369 650 1371 q 685 1363 675 1368 l 876 1293 q 931 1265 918 1278 q 943 1207 943 1251 l 943 1094 q 940 1059 943 1072 q 929 1039 936 1046 l 928 1038 l 900 1014 l 921 1014 q 985 950 985 1014 l 985 782 q 965 731 985 747 l 785 581 q 742 567 771 567 l 571 567 l 571 332 q 589 291 571 303 q 642 279 607 279 l 921 279 q 985 215 985 279 l 985 50 q 965 -1 985 15 l 785 -151 q 742 -165 771 -165 m 921 0 q 971 50 971 0 l 971 215 q 921 265 971 265 l 642 265 q 557 332 557 265 l 557 663 q 642 732 557 732 l 921 732 q 971 782 971 732 l 971 950 q 921 1000 971 1000 l 582 1000 q 324 931 407 1000 q 240 715 240 861 l 240 283 q 324 69 240 139 q 582 0 407 0 l 921 0 m 594 1107 q 681 1107 638 1118 l 871 1051 q 918 1049 907 1040 q 929 1094 929 1057 l 929 1207 q 918 1256 929 1244 q 871 1281 907 1267 l 681 1350 q 660 1356 671 1354 q 636 1357 649 1357 q 609 1353 624 1356 q 582 1344 594 1350 l 404 1281 q 359 1256 371 1267 q 347 1207 347 1244 l 347 1094 q 358 1049 347 1057 q 404 1051 369 1040 l 594 1107 m 844 125 l 613 125 q 474 143 522 125 q 408 201 426 161 q 390 304 390 240 l 390 693 q 409 799 390 760 q 476 857 428 839 q 613 875 524 875 l 844 875 l 844 861 l 613 861 q 485 845 531 861 q 422 792 440 829 q 404 693 404 756 l 404 304 q 422 208 404 244 q 484 155 439 171 q 613 139 529 139 l 844 139 l 844 125 m 803 1181 l 682 1219 q 662 1225 672 1222 q 638 1228 651 1228 q 614 1225 624 1228 q 593 1219 604 1222 l 472 1181 l 472 1196 l 588 1233 q 611 1239 600 1236 q 638 1242 622 1242 q 664 1239 653 1242 q 688 1233 675 1236 l 803 1196 l 803 1181 z "},"Ċ":{"ha":1011,"x_min":47,"x_max":985,"o":"m 742 -165 l 403 -165 q 202 -122 281 -165 q 85 -3 124 -79 q 47 174 47 74 l 47 564 q 135 790 47 715 l 304 933 q 303 954 303 942 l 303 1131 q 322 1182 303 1165 l 501 1333 q 546 1346 517 1346 l 765 1346 q 829 1282 829 1346 l 829 1106 q 810 1054 829 1071 l 761 1014 l 921 1014 q 985 950 985 1014 l 985 782 q 965 731 985 747 l 785 581 q 742 567 771 567 l 571 567 l 571 332 q 589 291 571 303 q 642 279 607 279 l 921 279 q 985 215 985 279 l 985 50 q 965 -1 985 15 l 785 -151 q 742 -165 771 -165 m 921 0 q 971 50 971 0 l 971 215 q 921 265 971 265 l 642 265 q 557 332 557 265 l 557 663 q 642 732 557 732 l 921 732 q 971 782 971 732 l 971 950 q 921 1000 971 1000 l 582 1000 q 324 931 407 1000 q 240 715 240 861 l 240 283 q 324 69 240 139 q 582 0 407 0 l 921 0 m 764 1056 q 814 1106 814 1056 l 814 1282 q 764 1332 814 1332 l 544 1332 q 494 1282 494 1332 l 494 1106 q 544 1056 494 1056 l 764 1056 m 844 125 l 613 125 q 474 143 522 125 q 408 201 426 161 q 390 304 390 240 l 390 693 q 409 799 390 760 q 476 857 428 839 q 613 875 524 875 l 844 875 l 844 861 l 613 861 q 485 845 531 861 q 422 792 440 829 q 404 693 404 756 l 404 304 q 422 208 404 244 q 484 155 439 171 q 613 139 529 139 l 844 139 l 844 125 m 649 1153 l 649 1235 l 663 1235 l 663 1153 l 649 1153 z "},"Č":{"ha":1011,"x_min":47,"x_max":985,"o":"m 742 -165 l 403 -165 q 202 -122 281 -165 q 85 -3 124 -79 q 47 174 47 74 l 47 564 q 135 790 47 715 l 300 928 l 221 957 q 167 986 179 972 q 154 1043 154 1000 l 154 1156 q 169 1213 154 1201 l 349 1364 q 370 1371 356 1371 q 410 1364 385 1371 l 600 1308 q 678 1308 639 1297 l 868 1364 q 928 1368 914 1379 q 943 1307 943 1357 l 943 1194 q 938 1154 943 1168 q 921 1131 932 1140 l 783 1014 l 921 1014 q 985 950 985 1014 l 985 782 q 965 731 985 747 l 785 581 q 742 567 771 567 l 571 567 l 571 332 q 589 291 571 303 q 642 279 607 279 l 921 279 q 985 215 985 279 l 985 50 q 965 -1 985 15 l 785 -151 q 742 -165 771 -165 m 921 0 q 971 50 971 0 l 971 215 q 921 265 971 265 l 642 265 q 557 332 557 265 l 557 663 q 642 732 557 732 l 921 732 q 971 782 971 732 l 971 950 q 921 1000 971 1000 l 582 1000 q 324 931 407 1000 q 240 715 240 861 l 240 283 q 324 69 240 139 q 582 0 407 0 l 921 0 m 682 1294 q 596 1294 639 1283 l 406 1350 q 358 1353 369 1361 q 347 1307 347 1344 l 347 1194 q 359 1146 347 1157 q 406 1121 371 1135 l 596 1051 q 617 1046 607 1047 q 640 1044 628 1044 q 667 1049 653 1046 q 694 1057 682 1051 l 872 1121 q 917 1146 906 1135 q 929 1194 929 1157 l 929 1307 q 919 1353 929 1344 q 872 1350 908 1361 l 682 1294 m 844 125 l 613 125 q 474 143 522 125 q 408 201 426 161 q 390 304 390 240 l 390 693 q 409 799 390 760 q 476 857 428 839 q 613 875 524 875 l 844 875 l 844 861 l 613 861 q 485 845 531 861 q 422 792 440 829 q 404 693 404 756 l 404 304 q 422 208 404 244 q 484 155 439 171 q 613 139 529 139 l 844 139 l 844 125 m 472 1221 l 593 1182 q 614 1176 604 1179 q 638 1174 624 1174 q 662 1176 651 1174 q 682 1182 672 1179 l 803 1221 l 803 1206 l 688 1168 q 664 1163 675 1165 q 638 1160 653 1160 q 611 1163 622 1160 q 588 1168 600 1165 l 472 1206 l 472 1221 z "},"D":{"ha":1175,"x_min":63,"x_max":1129,"o":"m 861 -92 q 594 -165 775 -165 l 126 -165 q 63 -101 63 -165 l 63 799 q 82 850 63 833 l 261 1001 q 306 1014 276 1014 l 774 1014 q 1043 941 957 1014 q 1129 717 1129 868 l 1129 283 q 1042 58 1129 133 l 861 -92 m 774 0 q 1032 69 949 0 q 1115 283 1115 139 l 1115 717 q 1032 931 1115 861 q 774 1000 949 1000 l 306 1000 q 256 950 256 1000 l 256 50 q 306 0 256 0 l 774 0 m 407 125 l 407 875 l 743 875 q 885 849 838 875 q 949 780 933 824 q 965 682 965 736 l 965 314 q 950 218 965 261 q 887 150 935 175 q 743 125 839 125 l 407 125 m 743 861 l 421 861 l 421 139 l 743 139 q 876 162 832 139 q 936 224 921 185 q 951 314 951 264 l 951 682 q 936 774 951 733 q 876 838 921 814 q 743 861 831 861 m 571 735 l 736 735 q 801 668 801 735 l 801 331 q 736 263 801 263 l 571 263 l 571 735 m 608 517 q 585 565 608 556 l 585 276 l 608 276 l 608 517 z "},"Ď":{"ha":1175,"x_min":63,"x_max":1129,"o":"m 861 -92 q 594 -165 775 -165 l 126 -165 q 63 -101 63 -165 l 63 799 q 82 850 63 833 l 225 971 q 199 997 206 982 q 193 1043 193 1011 l 193 1156 q 208 1213 193 1201 l 388 1364 q 409 1371 394 1371 q 449 1364 424 1371 l 639 1308 q 717 1308 678 1297 l 907 1364 q 967 1368 953 1379 q 982 1307 982 1357 l 982 1194 q 976 1154 982 1168 q 960 1131 971 1140 l 821 1013 q 1054 931 979 1004 q 1129 717 1129 858 l 1129 283 q 1042 58 1129 133 l 861 -92 m 774 0 q 1032 69 949 0 q 1115 283 1115 139 l 1115 717 q 1032 931 1115 861 q 774 1000 949 1000 l 306 1000 q 256 950 256 1000 l 256 50 q 306 0 256 0 l 774 0 m 407 125 l 407 875 l 743 875 q 885 849 838 875 q 949 780 933 824 q 965 682 965 736 l 965 314 q 950 218 965 261 q 887 150 935 175 q 743 125 839 125 l 407 125 m 743 861 l 421 861 l 421 139 l 743 139 q 876 162 832 139 q 936 224 921 185 q 951 314 951 264 l 951 682 q 936 774 951 733 q 876 838 921 814 q 743 861 831 861 m 721 1294 q 635 1294 678 1283 l 444 1350 q 397 1353 408 1361 q 386 1307 386 1344 l 386 1194 q 398 1146 386 1157 q 444 1121 410 1135 l 635 1051 q 656 1046 646 1047 q 679 1044 667 1044 q 706 1049 692 1046 q 733 1057 721 1051 l 911 1121 q 956 1146 944 1135 q 968 1194 968 1157 l 968 1307 q 958 1353 968 1344 q 911 1350 947 1361 l 721 1294 m 571 735 l 736 735 q 801 668 801 735 l 801 331 q 736 263 801 263 l 571 263 l 571 735 m 608 517 q 585 565 608 556 l 585 276 l 608 276 l 608 517 m 511 1221 l 632 1182 q 653 1176 643 1179 q 676 1174 663 1174 q 701 1176 690 1174 q 721 1182 711 1179 l 842 1221 l 842 1206 l 726 1168 q 703 1163 714 1165 q 676 1160 692 1160 q 650 1163 661 1160 q 626 1168 639 1165 l 511 1206 l 511 1221 z "},"E":{"ha":1047,"x_min":63,"x_max":1014,"o":"m 771 -165 l 126 -165 q 63 -101 63 -165 l 63 799 q 82 850 63 833 l 261 1001 q 306 1014 276 1014 l 950 1014 q 1014 950 1014 1014 l 1014 788 q 994 736 1014 753 l 875 638 q 901 581 901 624 l 901 432 q 882 381 901 397 l 758 276 l 950 276 q 1014 213 1014 276 l 1014 50 q 994 -1 1014 15 l 814 -151 q 771 -165 800 -165 m 950 0 q 1000 50 1000 0 l 1000 213 q 950 263 1000 263 l 567 263 l 567 382 l 838 382 q 888 432 888 382 l 888 581 q 838 631 888 631 l 567 631 l 567 738 l 950 738 q 1000 788 1000 738 l 1000 950 q 950 1000 1000 1000 l 306 1000 q 256 950 256 1000 l 256 50 q 306 0 256 0 l 950 0 m 875 139 l 875 125 l 407 125 l 407 875 l 875 875 l 875 861 l 421 861 l 421 513 l 763 513 l 763 499 l 421 499 l 421 139 l 875 139 z "},"È":{"ha":1047,"x_min":63,"x_max":1014,"o":"m 771 -165 l 126 -165 q 63 -101 63 -165 l 63 799 q 82 850 63 833 l 189 940 q 143 958 157 944 q 129 1004 129 972 l 129 1138 q 149 1188 129 1171 l 328 1339 q 371 1349 346 1350 l 856 1289 q 903 1271 889 1285 q 918 1225 918 1257 l 918 1092 q 899 1042 918 1058 l 865 1014 l 950 1014 q 1014 950 1014 1014 l 1014 788 q 994 736 1014 753 l 875 638 q 901 581 901 624 l 901 432 q 882 381 901 397 l 758 276 l 950 276 q 1014 213 1014 276 l 1014 50 q 994 -1 1014 15 l 814 -151 q 771 -165 800 -165 m 950 0 q 1000 50 1000 0 l 1000 213 q 950 263 1000 263 l 567 263 l 567 382 l 838 382 q 888 432 888 382 l 888 581 q 838 631 888 631 l 567 631 l 567 738 l 950 738 q 1000 788 1000 738 l 1000 950 q 950 1000 1000 1000 l 306 1000 q 256 950 256 1000 l 256 50 q 306 0 256 0 l 950 0 m 857 1046 q 904 1092 904 1040 l 904 1225 q 892 1262 904 1251 q 854 1275 881 1272 l 369 1335 q 322 1289 322 1340 l 322 1156 q 334 1119 322 1129 q 372 1106 346 1108 l 857 1046 m 875 139 l 875 125 l 407 125 l 407 875 l 875 875 l 875 861 l 421 861 l 421 513 l 763 513 l 763 499 l 421 499 l 421 139 l 875 139 m 447 1218 l 779 1176 l 779 1163 l 447 1204 l 447 1218 z "},"É":{"ha":1047,"x_min":63,"x_max":1014,"o":"m 771 -165 l 126 -165 q 63 -101 63 -165 l 63 799 q 82 850 63 833 l 172 926 q 171 940 171 932 l 171 1074 q 176 1104 171 1093 q 189 1122 181 1115 l 369 1274 q 413 1289 382 1286 l 897 1349 q 960 1289 960 1357 l 960 1156 q 940 1107 960 1119 l 831 1014 l 950 1014 q 1014 950 1014 1014 l 1014 788 q 994 736 1014 753 l 875 638 q 901 581 901 624 l 901 432 q 882 381 901 397 l 758 276 l 950 276 q 1014 213 1014 276 l 1014 50 q 994 -1 1014 15 l 814 -151 q 771 -165 800 -165 m 950 0 q 1000 50 1000 0 l 1000 213 q 950 263 1000 263 l 567 263 l 567 382 l 838 382 q 888 432 888 382 l 888 581 q 838 631 888 631 l 567 631 l 567 738 l 950 738 q 1000 788 1000 738 l 1000 950 q 950 1000 1000 1000 l 306 1000 q 256 950 256 1000 l 256 50 q 306 0 256 0 l 950 0 m 896 1106 q 934 1119 922 1108 q 946 1156 946 1129 l 946 1289 q 899 1335 946 1340 l 414 1275 q 376 1262 388 1272 q 364 1225 364 1251 l 364 1092 q 411 1046 364 1040 l 896 1106 m 875 139 l 875 125 l 407 125 l 407 875 l 875 875 l 875 861 l 421 861 l 421 513 l 763 513 l 763 499 l 421 499 l 421 139 l 875 139 m 821 1218 l 821 1204 l 489 1163 l 489 1176 l 821 1218 z "},"Ê":{"ha":1047,"x_min":63,"x_max":1014,"o":"m 771 -165 l 126 -165 q 63 -101 63 -165 l 63 799 q 82 850 63 833 l 146 904 q 143 943 143 918 l 143 1056 q 148 1096 143 1082 q 163 1119 153 1110 l 344 1271 l 343 1269 q 389 1293 356 1282 l 565 1357 q 595 1367 579 1364 q 625 1371 611 1369 q 651 1369 639 1371 q 674 1363 664 1368 l 865 1293 q 919 1265 907 1278 q 932 1207 932 1251 l 932 1094 q 928 1059 932 1072 q 918 1039 925 1046 l 917 1038 l 889 1014 l 950 1014 q 1014 950 1014 1014 l 1014 788 q 994 736 1014 753 l 875 638 q 901 581 901 624 l 901 432 q 882 381 901 397 l 758 276 l 950 276 q 1014 213 1014 276 l 1014 50 q 994 -1 1014 15 l 814 -151 q 771 -165 800 -165 m 950 0 q 1000 50 1000 0 l 1000 213 q 950 263 1000 263 l 567 263 l 567 382 l 838 382 q 888 432 888 382 l 888 581 q 838 631 888 631 l 567 631 l 567 738 l 950 738 q 1000 788 1000 738 l 1000 950 q 950 1000 1000 1000 l 306 1000 q 256 950 256 1000 l 256 50 q 306 0 256 0 l 950 0 m 583 1107 q 669 1107 626 1118 l 860 1051 q 907 1049 896 1040 q 918 1094 918 1057 l 918 1207 q 907 1256 918 1244 q 860 1281 896 1267 l 669 1350 q 649 1356 660 1354 q 625 1357 638 1357 q 598 1353 613 1356 q 571 1344 583 1350 l 393 1281 q 348 1256 360 1267 q 336 1207 336 1244 l 336 1094 q 347 1049 336 1057 q 393 1051 358 1040 l 583 1107 m 875 139 l 875 125 l 407 125 l 407 875 l 875 875 l 875 861 l 421 861 l 421 513 l 763 513 l 763 499 l 421 499 l 421 139 l 875 139 m 792 1181 l 671 1219 q 651 1225 661 1222 q 626 1228 640 1228 q 603 1225 613 1228 q 582 1219 593 1222 l 461 1181 l 461 1196 l 576 1233 q 600 1239 589 1236 q 626 1242 611 1242 q 653 1239 642 1242 q 676 1233 664 1236 l 792 1196 l 792 1181 z "},"Ë":{"ha":1047,"x_min":63,"x_max":1014,"o":"m 771 -165 l 126 -165 q 63 -101 63 -165 l 63 799 q 82 850 63 833 l 140 900 q 119 950 119 914 l 119 1118 q 124 1147 119 1136 q 138 1165 129 1158 l 317 1317 q 360 1329 332 1329 l 551 1329 q 611 1269 611 1329 l 611 1261 l 676 1317 q 718 1329 692 1329 l 910 1329 q 969 1269 969 1329 l 969 1101 q 951 1054 969 1069 l 903 1014 l 950 1014 q 1014 950 1014 1014 l 1014 788 q 994 736 1014 753 l 875 638 q 901 581 901 624 l 901 432 q 882 381 901 397 l 758 276 l 950 276 q 1014 213 1014 276 l 1014 50 q 994 -1 1014 15 l 814 -151 q 771 -165 800 -165 m 950 0 q 1000 50 1000 0 l 1000 213 q 950 263 1000 263 l 567 263 l 567 382 l 838 382 q 888 432 888 382 l 888 581 q 838 631 888 631 l 567 631 l 567 738 l 950 738 q 1000 788 1000 738 l 1000 950 q 950 1000 1000 1000 l 306 1000 q 256 950 256 1000 l 256 50 q 306 0 256 0 l 950 0 m 556 1056 q 601 1101 601 1056 l 601 1269 q 556 1315 601 1315 l 364 1315 q 317 1269 317 1315 l 317 1101 q 364 1056 317 1056 l 556 1056 m 914 1056 q 960 1101 960 1056 l 960 1269 q 914 1315 960 1315 l 722 1315 q 676 1269 676 1315 l 676 1101 q 722 1056 676 1056 l 914 1056 m 875 139 l 875 125 l 407 125 l 407 875 l 875 875 l 875 861 l 421 861 l 421 513 l 763 513 l 763 499 l 421 499 l 421 139 l 875 139 m 449 1153 l 449 1218 l 463 1218 l 463 1153 l 449 1153 m 807 1153 l 807 1218 l 821 1218 l 821 1153 l 807 1153 z "},"Ē":{"ha":1047,"x_min":63,"x_max":1014,"o":"m 771 -165 l 126 -165 q 63 -101 63 -165 l 63 799 q 82 850 63 833 l 154 911 q 143 954 143 926 l 143 1083 q 163 1135 143 1118 l 342 1286 q 386 1299 357 1299 l 868 1299 q 932 1235 932 1299 l 932 1106 q 913 1054 932 1071 l 864 1014 l 950 1014 q 1014 950 1014 1014 l 1014 788 q 994 736 1014 753 l 875 638 q 901 581 901 624 l 901 432 q 882 381 901 397 l 758 276 l 950 276 q 1014 213 1014 276 l 1014 50 q 994 -1 1014 15 l 814 -151 q 771 -165 800 -165 m 950 0 q 1000 50 1000 0 l 1000 213 q 950 263 1000 263 l 567 263 l 567 382 l 838 382 q 888 432 888 382 l 888 581 q 838 631 888 631 l 567 631 l 567 738 l 950 738 q 1000 788 1000 738 l 1000 950 q 950 1000 1000 1000 l 306 1000 q 256 950 256 1000 l 256 50 q 306 0 256 0 l 950 0 m 868 1056 q 918 1106 918 1056 l 918 1235 q 868 1285 918 1285 l 386 1285 q 336 1235 336 1285 l 336 1106 q 386 1056 336 1056 l 868 1056 m 875 139 l 875 125 l 407 125 l 407 875 l 875 875 l 875 861 l 421 861 l 421 513 l 763 513 l 763 499 l 421 499 l 421 139 l 875 139 m 793 1176 l 793 1163 l 461 1163 l 461 1176 l 793 1176 z "},"Ĕ":{"ha":1047,"x_min":63,"x_max":1014,"o":"m 771 -165 l 126 -165 q 63 -101 63 -165 l 63 799 q 82 850 63 833 l 200 949 q 158 1015 169 978 q 147 1094 147 1051 l 147 1156 q 167 1207 147 1190 l 346 1358 q 390 1371 361 1371 l 524 1371 q 565 1359 553 1371 q 578 1314 578 1347 l 578 1285 q 603 1257 578 1263 l 728 1361 l 726 1360 q 767 1371 738 1371 l 893 1371 q 957 1307 957 1371 l 957 1246 q 944 1161 957 1200 q 896 1094 931 1122 l 800 1014 l 950 1014 q 1014 950 1014 1014 l 1014 788 q 994 736 1014 753 l 875 638 q 901 581 901 624 l 901 432 q 882 381 901 397 l 758 276 l 950 276 q 1014 213 1014 276 l 1014 50 q 994 -1 1014 15 l 814 -151 q 771 -165 800 -165 m 950 0 q 1000 50 1000 0 l 1000 213 q 950 263 1000 263 l 567 263 l 567 382 l 838 382 q 888 432 888 382 l 888 581 q 838 631 888 631 l 567 631 l 567 738 l 950 738 q 1000 788 1000 738 l 1000 950 q 950 1000 1000 1000 l 306 1000 q 256 950 256 1000 l 256 50 q 306 0 256 0 l 950 0 m 943 1246 l 943 1307 q 893 1357 943 1357 l 767 1357 q 734 1348 743 1357 q 725 1314 725 1339 l 725 1285 q 710 1252 725 1265 q 643 1239 696 1239 q 578 1252 592 1239 q 564 1285 564 1265 l 564 1314 q 555 1348 564 1339 q 524 1357 546 1357 l 390 1357 q 340 1307 340 1357 l 340 1246 q 365 1142 340 1188 q 456 1072 390 1097 q 642 1047 521 1047 q 828 1072 763 1047 q 918 1142 893 1097 q 943 1246 943 1188 m 875 139 l 875 125 l 407 125 l 407 875 l 875 875 l 875 861 l 421 861 l 421 513 l 763 513 l 763 499 l 421 499 l 421 139 l 875 139 m 842 1260 l 842 1247 q 827 1195 842 1221 q 769 1153 813 1169 q 640 1136 726 1136 q 513 1153 554 1136 q 458 1195 471 1169 q 446 1247 446 1221 l 446 1260 l 460 1260 l 460 1247 q 474 1200 460 1222 q 526 1164 488 1178 q 640 1150 565 1150 q 756 1164 715 1150 q 813 1200 797 1178 q 828 1247 828 1222 l 828 1260 l 842 1260 z "},"Ė":{"ha":1047,"x_min":63,"x_max":1014,"o":"m 771 -165 l 126 -165 q 63 -101 63 -165 l 63 799 q 82 850 63 833 l 261 1001 l 261 1131 q 281 1182 261 1165 l 460 1333 q 504 1346 475 1346 l 724 1346 q 788 1282 788 1346 l 788 1106 q 768 1054 788 1071 l 719 1014 l 950 1014 q 1014 950 1014 1014 l 1014 788 q 994 736 1014 753 l 875 638 q 901 581 901 624 l 901 432 q 882 381 901 397 l 758 276 l 950 276 q 1014 213 1014 276 l 1014 50 q 994 -1 1014 15 l 814 -151 q 771 -165 800 -165 m 950 0 q 1000 50 1000 0 l 1000 213 q 950 263 1000 263 l 567 263 l 567 382 l 838 382 q 888 432 888 382 l 888 581 q 838 631 888 631 l 567 631 l 567 738 l 950 738 q 1000 788 1000 738 l 1000 950 q 950 1000 1000 1000 l 306 1000 q 256 950 256 1000 l 256 50 q 306 0 256 0 l 950 0 m 722 1056 q 772 1106 772 1056 l 772 1282 q 722 1332 772 1332 l 503 1332 q 453 1282 453 1332 l 453 1106 q 503 1056 453 1056 l 722 1056 m 875 139 l 875 125 l 407 125 l 407 875 l 875 875 l 875 861 l 421 861 l 421 513 l 763 513 l 763 499 l 421 499 l 421 139 l 875 139 m 607 1153 l 607 1235 l 621 1235 l 621 1153 l 607 1153 z "},"Ę":{"ha":1047,"x_min":63,"x_max":1014,"o":"m 621 -424 q 488 -375 524 -424 q 467 -219 451 -326 l 476 -165 l 126 -165 q 63 -101 63 -165 l 63 799 q 82 850 63 833 l 261 1001 q 306 1014 276 1014 l 950 1014 q 1014 950 1014 1014 l 1014 788 q 994 736 1014 753 l 875 638 q 901 581 901 624 l 901 432 q 882 381 901 397 l 758 276 l 950 276 q 1014 213 1014 276 l 1014 50 q 994 -1 1014 15 l 936 -50 l 950 -50 q 1001 -63 988 -50 q 1014 -111 1014 -76 l 1014 -211 q 999 -261 1014 -246 l 817 -412 q 775 -424 803 -424 l 621 -424 m 950 0 q 1000 50 1000 0 l 1000 213 q 950 263 1000 263 l 567 263 l 567 382 l 838 382 q 888 432 888 382 l 888 581 q 838 631 888 631 l 567 631 l 567 738 l 950 738 q 1000 788 1000 738 l 1000 950 q 950 1000 1000 1000 l 306 1000 q 256 950 256 1000 l 256 50 q 306 0 256 0 l 672 0 l 660 -71 q 678 -213 646 -168 q 800 -258 711 -258 l 954 -258 q 991 -248 982 -258 q 1000 -211 1000 -237 l 1000 -111 q 990 -74 1000 -83 q 950 -64 979 -64 l 893 -64 l 903 0 l 950 0 m 875 139 l 875 125 l 847 125 q 813 100 821 111 q 801 58 806 89 l 785 -60 q 789 -124 779 -101 q 842 -147 799 -147 l 875 -147 l 875 -161 l 842 -161 q 776 -135 790 -161 q 771 -57 763 -108 l 788 58 q 798 99 792 86 q 821 125 804 113 l 407 125 l 407 875 l 875 875 l 875 861 l 421 861 l 421 513 l 763 513 l 763 499 l 421 499 l 421 139 l 875 139 z "},"Ě":{"ha":1047,"x_min":63,"x_max":1014,"o":"m 771 -165 l 126 -165 q 63 -101 63 -165 l 63 799 q 82 850 63 833 l 213 960 q 164 988 175 974 q 153 1043 153 1001 l 153 1156 q 168 1213 153 1201 l 347 1364 q 369 1371 354 1371 q 408 1364 383 1371 l 599 1308 q 676 1308 638 1297 l 867 1364 q 927 1368 913 1379 q 942 1307 942 1357 l 942 1194 q 936 1154 942 1168 q 919 1131 931 1140 l 782 1014 l 950 1014 q 1014 950 1014 1014 l 1014 788 q 994 736 1014 753 l 875 638 q 901 581 901 624 l 901 432 q 882 381 901 397 l 758 276 l 950 276 q 1014 213 1014 276 l 1014 50 q 994 -1 1014 15 l 814 -151 q 771 -165 800 -165 m 950 0 q 1000 50 1000 0 l 1000 213 q 950 263 1000 263 l 567 263 l 567 382 l 838 382 q 888 432 888 382 l 888 581 q 838 631 888 631 l 567 631 l 567 738 l 950 738 q 1000 788 1000 738 l 1000 950 q 950 1000 1000 1000 l 306 1000 q 256 950 256 1000 l 256 50 q 306 0 256 0 l 950 0 m 681 1294 q 594 1294 638 1283 l 404 1350 q 357 1353 368 1361 q 346 1307 346 1344 l 346 1194 q 358 1146 346 1157 q 404 1121 369 1135 l 594 1051 q 616 1046 606 1047 q 639 1044 626 1044 q 666 1049 651 1046 q 693 1057 681 1051 l 871 1121 q 916 1146 904 1135 q 928 1194 928 1157 l 928 1307 q 917 1353 928 1344 q 871 1350 907 1361 l 681 1294 m 875 139 l 875 125 l 407 125 l 407 875 l 875 875 l 875 861 l 421 861 l 421 513 l 763 513 l 763 499 l 421 499 l 421 139 l 875 139 m 471 1221 l 592 1182 q 613 1176 603 1179 q 636 1174 622 1174 q 660 1176 650 1174 q 681 1182 671 1179 l 801 1221 l 801 1206 l 686 1168 q 663 1163 674 1165 q 636 1160 651 1160 q 610 1163 621 1160 q 586 1168 599 1165 l 471 1206 l 471 1221 z "},"F":{"ha":997,"x_min":63,"x_max":989,"o":"m 342 -165 l 126 -165 q 63 -101 63 -165 l 63 799 q 82 850 63 833 l 261 1001 q 306 1014 276 1014 l 925 1014 q 989 950 989 1014 l 989 785 q 969 733 989 750 l 814 604 q 876 540 876 604 l 876 374 q 857 322 876 339 l 676 172 q 633 158 663 158 l 585 158 l 585 50 q 565 -1 585 15 l 385 -151 q 342 -165 371 -165 m 521 0 q 571 50 571 0 l 571 324 l 813 324 q 863 374 863 324 l 863 540 q 813 590 863 590 l 571 590 l 571 735 l 925 735 q 975 785 975 735 l 975 950 q 925 1000 975 1000 l 306 1000 q 256 950 256 1000 l 256 50 q 306 0 256 0 l 521 0 m 407 125 l 407 875 l 850 875 l 850 861 l 421 861 l 421 464 l 738 464 l 738 450 l 421 450 l 421 125 l 407 125 z "},"G":{"ha":1122,"x_min":47,"x_max":1083,"o":"m 840 -165 l 403 -165 q 202 -122 281 -165 q 85 -3 124 -79 q 47 174 47 74 l 47 565 q 135 790 47 715 l 314 942 q 582 1014 400 1014 l 929 1014 q 993 950 993 1014 l 993 782 q 974 731 993 747 l 793 581 q 750 567 779 567 l 569 567 l 569 367 q 581 379 572 371 l 760 531 q 804 543 775 543 l 1019 543 q 1083 479 1083 543 l 1083 50 q 1064 -1 1083 15 l 883 -151 q 840 -165 869 -165 m 1019 0 q 1069 50 1069 0 l 1069 479 q 1019 529 1069 529 l 804 529 q 754 479 754 529 l 754 263 l 619 263 q 556 331 556 263 l 556 663 q 640 732 556 732 l 929 732 q 979 782 979 732 l 979 950 q 929 1000 979 1000 l 582 1000 q 324 931 407 1000 q 240 717 240 861 l 240 283 q 324 69 240 139 q 582 0 407 0 l 1019 0 m 918 404 l 918 125 l 642 125 q 486 143 540 125 q 412 201 432 161 q 392 304 392 240 l 392 693 q 410 799 392 760 q 477 857 429 839 q 614 875 525 875 l 854 875 l 854 861 l 614 861 q 487 845 532 861 q 424 792 442 829 q 406 693 406 756 l 406 304 q 426 208 406 244 q 497 155 446 171 q 642 139 549 139 l 904 139 l 904 404 l 918 404 z "},"Ĝ":{"ha":1122,"x_min":47,"x_max":1083,"o":"m 840 -165 l 403 -165 q 202 -122 281 -165 q 85 -3 124 -79 q 47 174 47 74 l 47 565 q 135 790 47 715 l 238 878 q 211 892 218 876 q 204 943 204 907 l 204 1056 q 209 1096 204 1082 q 224 1119 214 1110 l 406 1271 l 404 1269 q 450 1293 417 1282 l 626 1357 q 656 1367 640 1364 q 686 1371 672 1369 q 713 1369 700 1371 q 735 1363 725 1368 l 926 1293 q 981 1265 968 1278 q 993 1207 993 1251 l 993 1094 q 990 1059 993 1072 q 979 1039 986 1046 l 978 1038 l 947 1013 q 993 950 993 1006 l 993 782 q 974 731 993 747 l 793 581 q 750 567 779 567 l 569 567 l 569 367 q 581 379 572 371 l 760 531 q 804 543 775 543 l 1019 543 q 1083 479 1083 543 l 1083 50 q 1064 -1 1083 15 l 883 -151 q 840 -165 869 -165 m 1019 0 q 1069 50 1069 0 l 1069 479 q 1019 529 1069 529 l 804 529 q 754 479 754 529 l 754 263 l 619 263 q 556 331 556 263 l 556 663 q 640 732 556 732 l 929 732 q 979 782 979 732 l 979 950 q 929 1000 979 1000 l 582 1000 q 324 931 407 1000 q 240 717 240 861 l 240 283 q 324 69 240 139 q 582 0 407 0 l 1019 0 m 644 1107 q 731 1107 688 1118 l 921 1051 q 968 1049 957 1040 q 979 1094 979 1057 l 979 1207 q 968 1256 979 1244 q 921 1281 957 1267 l 731 1350 q 710 1356 721 1354 q 686 1357 699 1357 q 659 1353 674 1356 q 632 1344 644 1350 l 454 1281 q 409 1256 421 1267 q 397 1207 397 1244 l 397 1094 q 408 1049 397 1057 q 454 1051 419 1040 l 644 1107 m 918 404 l 918 125 l 642 125 q 486 143 540 125 q 412 201 432 161 q 392 304 392 240 l 392 693 q 410 799 392 760 q 477 857 429 839 q 614 875 525 875 l 854 875 l 854 861 l 614 861 q 487 845 532 861 q 424 792 442 829 q 406 693 406 756 l 406 304 q 426 208 406 244 q 497 155 446 171 q 642 139 549 139 l 904 139 l 904 404 l 918 404 m 853 1181 l 732 1219 q 712 1225 722 1222 q 688 1228 701 1228 q 664 1225 674 1228 q 643 1219 654 1222 l 522 1181 l 522 1196 l 638 1233 q 661 1239 650 1236 q 688 1242 672 1242 q 714 1239 703 1242 q 738 1233 725 1236 l 853 1196 l 853 1181 z "},"Ğ":{"ha":1122,"x_min":47,"x_max":1083,"o":"m 840 -165 l 403 -165 q 202 -122 281 -165 q 85 -3 124 -79 q 47 174 47 74 l 47 565 q 135 790 47 715 l 285 917 q 206 991 226 944 q 185 1094 185 1038 l 185 1156 q 204 1207 185 1190 l 383 1358 q 428 1371 399 1371 l 561 1371 q 603 1359 590 1371 q 615 1314 615 1347 l 615 1285 q 640 1257 615 1263 l 765 1361 l 764 1360 q 804 1371 775 1371 l 931 1371 q 994 1307 994 1371 l 994 1246 q 981 1161 994 1200 q 933 1094 968 1122 l 838 1014 l 929 1014 q 993 950 993 1014 l 993 782 q 974 731 993 747 l 793 581 q 750 567 779 567 l 569 567 l 569 367 q 581 379 572 371 l 760 531 q 804 543 775 543 l 1019 543 q 1083 479 1083 543 l 1083 50 q 1064 -1 1083 15 l 883 -151 q 840 -165 869 -165 m 1019 0 q 1069 50 1069 0 l 1069 479 q 1019 529 1069 529 l 804 529 q 754 479 754 529 l 754 263 l 619 263 q 556 331 556 263 l 556 663 q 640 732 556 732 l 929 732 q 979 782 979 732 l 979 950 q 929 1000 979 1000 l 582 1000 q 324 931 407 1000 q 240 717 240 861 l 240 283 q 324 69 240 139 q 582 0 407 0 l 1019 0 m 981 1246 l 981 1307 q 931 1357 981 1357 l 804 1357 q 772 1348 781 1357 q 763 1314 763 1339 l 763 1285 q 748 1252 763 1265 q 681 1239 733 1239 q 615 1252 629 1239 q 601 1285 601 1265 l 601 1314 q 592 1348 601 1339 q 561 1357 583 1357 l 428 1357 q 378 1307 378 1357 l 378 1246 q 403 1142 378 1188 q 493 1072 428 1097 q 679 1047 558 1047 q 865 1072 800 1047 q 956 1142 931 1097 q 981 1246 981 1188 m 918 404 l 918 125 l 642 125 q 486 143 540 125 q 412 201 432 161 q 392 304 392 240 l 392 693 q 410 799 392 760 q 477 857 429 839 q 614 875 525 875 l 854 875 l 854 861 l 614 861 q 487 845 532 861 q 424 792 442 829 q 406 693 406 756 l 406 304 q 426 208 406 244 q 497 155 446 171 q 642 139 549 139 l 904 139 l 904 404 l 918 404 m 879 1260 l 879 1247 q 865 1195 879 1221 q 807 1153 850 1169 q 678 1136 764 1136 q 550 1153 592 1136 q 496 1195 508 1169 q 483 1247 483 1221 l 483 1260 l 497 1260 l 497 1247 q 511 1200 497 1222 q 564 1164 525 1178 q 678 1150 603 1150 q 794 1164 753 1150 q 850 1200 835 1178 q 865 1247 865 1222 l 865 1260 l 879 1260 z "},"Ġ":{"ha":1122,"x_min":47,"x_max":1083,"o":"m 840 -165 l 403 -165 q 202 -122 281 -165 q 85 -3 124 -79 q 47 174 47 74 l 47 565 q 135 790 47 715 l 314 942 q 329 953 321 947 q 329 954 329 954 l 329 1131 q 349 1182 329 1165 l 528 1333 q 572 1346 543 1346 l 792 1346 q 856 1282 856 1346 l 856 1106 q 836 1054 856 1071 l 788 1014 l 929 1014 q 993 950 993 1014 l 993 782 q 974 731 993 747 l 793 581 q 750 567 779 567 l 569 567 l 569 367 q 581 379 572 371 l 760 531 q 804 543 775 543 l 1019 543 q 1083 479 1083 543 l 1083 50 q 1064 -1 1083 15 l 883 -151 q 840 -165 869 -165 m 1019 0 q 1069 50 1069 0 l 1069 479 q 1019 529 1069 529 l 804 529 q 754 479 754 529 l 754 263 l 619 263 q 556 331 556 263 l 556 663 q 640 732 556 732 l 929 732 q 979 782 979 732 l 979 950 q 929 1000 979 1000 l 582 1000 q 324 931 407 1000 q 240 717 240 861 l 240 283 q 324 69 240 139 q 582 0 407 0 l 1019 0 m 790 1056 q 840 1106 840 1056 l 840 1282 q 790 1332 840 1332 l 571 1332 q 521 1282 521 1332 l 521 1106 q 571 1056 521 1056 l 790 1056 m 918 404 l 918 125 l 642 125 q 486 143 540 125 q 412 201 432 161 q 392 304 392 240 l 392 693 q 410 799 392 760 q 477 857 429 839 q 614 875 525 875 l 854 875 l 854 861 l 614 861 q 487 845 532 861 q 424 792 442 829 q 406 693 406 756 l 406 304 q 426 208 406 244 q 497 155 446 171 q 642 139 549 139 l 904 139 l 904 404 l 918 404 m 675 1153 l 675 1235 l 689 1235 l 689 1153 l 675 1153 z "},"Ģ":{"ha":1122,"x_min":47,"x_max":1083,"o":"m 488 -668 l 396 -668 q 340 -611 340 -668 l 340 -564 q 357 -519 340 -529 l 399 -485 l 390 -485 q 340 -470 354 -485 q 325 -417 325 -456 l 325 -265 q 343 -208 325 -225 l 394 -165 q 131 -69 215 -162 q 47 174 47 24 l 47 565 q 135 790 47 715 l 314 942 q 582 1014 400 1014 l 929 1014 q 993 950 993 1014 l 993 782 q 974 731 993 747 l 793 581 q 750 567 779 567 l 569 567 l 569 367 q 581 379 572 371 l 760 531 q 804 543 775 543 l 1019 543 q 1083 479 1083 543 l 1083 50 q 1064 -1 1083 15 l 883 -151 q 854 -164 874 -161 l 854 -325 q 838 -415 854 -376 q 794 -476 822 -453 l 615 -628 q 488 -668 567 -668 m 1019 0 q 1069 50 1069 0 l 1069 479 q 1019 529 1069 529 l 804 529 q 754 479 754 529 l 754 263 l 619 263 q 556 331 556 263 l 556 663 q 640 732 556 732 l 929 732 q 979 782 979 732 l 979 950 q 929 1000 979 1000 l 582 1000 q 324 931 407 1000 q 240 717 240 861 l 240 283 q 324 69 240 139 q 582 0 407 0 l 1019 0 m 667 -503 q 793 -458 746 -503 q 840 -325 840 -414 l 840 -114 q 829 -71 840 -82 q 789 -60 818 -60 l 569 -60 q 529 -71 540 -60 q 518 -114 518 -82 l 518 -265 q 529 -308 518 -296 q 569 -319 540 -319 l 689 -319 l 689 -337 q 657 -371 689 -371 l 575 -371 q 533 -412 533 -371 l 533 -460 q 575 -503 533 -503 l 667 -503 m 918 404 l 918 125 l 642 125 q 486 143 540 125 q 412 201 432 161 q 392 304 392 240 l 392 693 q 410 799 392 760 q 477 857 429 839 q 614 875 525 875 l 854 875 l 854 861 l 614 861 q 487 845 532 861 q 424 792 442 829 q 406 693 406 756 l 406 304 q 426 208 406 244 q 497 155 446 171 q 642 139 549 139 l 904 139 l 904 404 l 918 404 m 761 -183 l 761 -318 q 732 -410 761 -382 q 646 -437 703 -437 l 597 -437 l 597 -424 l 646 -424 q 722 -399 696 -424 q 747 -318 747 -374 l 747 -197 l 597 -197 l 597 -183 l 761 -183 z "},"H":{"ha":1193,"x_min":63,"x_max":1132,"o":"m 565 -1 l 385 -151 q 342 -165 371 -165 l 126 -165 q 63 -101 63 -165 l 63 799 q 82 850 63 833 l 261 1001 q 306 1014 276 1014 l 521 1014 q 585 950 585 1014 l 585 663 l 610 663 l 610 799 q 629 850 610 833 l 808 1001 q 853 1014 824 1014 l 1068 1014 q 1132 950 1132 1014 l 1132 50 q 1113 -1 1132 15 l 932 -151 q 889 -165 918 -165 l 674 -165 q 610 -101 610 -165 l 610 193 l 585 193 l 585 50 q 565 -1 585 15 m 521 0 q 571 50 571 0 l 571 358 l 803 358 l 803 50 q 853 0 803 0 l 1068 0 q 1118 50 1118 0 l 1118 950 q 1068 1000 1118 1000 l 853 1000 q 803 950 803 1000 l 803 649 l 571 649 l 571 950 q 521 1000 571 1000 l 306 1000 q 256 950 256 1000 l 256 50 q 306 0 256 0 l 521 0 m 967 875 l 967 125 l 953 125 l 953 493 l 419 493 l 419 125 l 406 125 l 406 875 l 419 875 l 419 507 l 953 507 l 953 875 l 967 875 z "},"Ĥ":{"ha":1193,"x_min":63,"x_max":1132,"o":"m 565 -1 l 385 -151 q 342 -165 371 -165 l 126 -165 q 63 -101 63 -165 l 63 799 q 82 850 63 833 l 201 951 l 201 1056 q 206 1096 201 1082 q 221 1119 211 1110 l 403 1271 l 401 1269 q 447 1293 414 1282 l 624 1357 q 653 1367 638 1364 q 683 1371 669 1369 q 710 1369 697 1371 q 732 1363 722 1368 l 924 1293 q 978 1265 965 1278 q 990 1207 990 1251 l 990 1094 q 987 1059 990 1072 q 976 1039 983 1046 l 975 1038 l 947 1014 l 1068 1014 q 1132 950 1132 1014 l 1132 50 q 1113 -1 1132 15 l 932 -151 q 889 -165 918 -165 l 674 -165 q 610 -101 610 -165 l 610 193 l 585 193 l 585 50 q 565 -1 585 15 m 521 0 q 571 50 571 0 l 571 358 l 803 358 l 803 50 q 853 0 803 0 l 1068 0 q 1118 50 1118 0 l 1118 950 q 1068 1000 1118 1000 l 853 1000 q 803 950 803 1000 l 803 649 l 571 649 l 571 950 q 521 1000 571 1000 l 306 1000 q 256 950 256 1000 l 256 50 q 306 0 256 0 l 521 0 m 642 1107 q 728 1107 685 1118 l 918 1051 q 965 1049 954 1040 q 976 1094 976 1057 l 976 1207 q 965 1256 976 1244 q 918 1281 954 1267 l 728 1350 q 707 1356 718 1354 q 683 1357 696 1357 q 656 1353 671 1356 q 629 1344 642 1350 l 451 1281 q 406 1256 418 1267 q 394 1207 394 1244 l 394 1094 q 406 1049 394 1057 q 451 1051 417 1040 l 642 1107 m 967 875 l 967 125 l 953 125 l 953 493 l 419 493 l 419 125 l 406 125 l 406 875 l 419 875 l 419 507 l 953 507 l 953 875 l 967 875 m 688 900 l 585 931 l 585 663 l 610 663 l 610 799 q 629 850 610 833 l 688 900 m 850 1181 l 729 1219 q 709 1225 719 1222 q 685 1228 699 1228 q 661 1225 671 1228 q 640 1219 651 1222 l 519 1181 l 519 1196 l 635 1233 q 658 1239 647 1236 q 685 1242 669 1242 q 711 1239 700 1242 q 735 1233 722 1236 l 850 1196 l 850 1181 z "},"I":{"ha":979,"x_min":40,"x_max":939,"o":"m 696 -165 l 104 -165 q 40 -101 40 -165 l 40 64 q 60 115 40 99 l 228 257 l 228 567 l 104 567 q 40 631 40 567 l 40 799 q 60 850 40 833 l 239 1001 q 283 1014 254 1014 l 875 1014 q 939 950 939 1014 l 939 782 q 919 731 939 747 l 754 592 l 754 279 l 875 279 q 939 215 939 279 l 939 50 q 919 -1 939 15 l 739 -151 q 696 -165 725 -165 m 283 0 l 875 0 q 925 50 925 0 l 925 215 q 875 265 925 265 l 740 265 l 740 732 l 875 732 q 925 782 925 732 l 925 950 q 875 1000 925 1000 l 283 1000 q 233 950 233 1000 l 233 782 q 283 732 233 732 l 421 732 l 421 265 l 283 265 q 233 215 233 265 l 233 50 q 283 0 233 0 m 358 875 l 800 875 l 800 861 l 588 861 l 588 139 l 800 139 l 800 125 l 358 125 l 358 139 l 574 139 l 574 861 l 358 861 l 358 875 z "},"Ì":{"ha":979,"x_min":40,"x_max":939,"o":"m 696 -165 l 104 -165 q 40 -101 40 -165 l 40 64 q 60 115 40 99 l 228 257 l 228 567 l 104 567 q 40 631 40 567 l 40 799 q 60 850 40 833 l 165 939 l 157 940 q 109 958 124 944 q 94 1004 94 972 l 94 1138 q 114 1188 94 1171 l 293 1339 q 336 1349 311 1350 l 821 1289 q 869 1271 854 1285 q 883 1225 883 1257 l 883 1092 q 864 1042 883 1058 l 831 1014 l 875 1014 q 939 950 939 1014 l 939 782 q 919 731 939 747 l 754 592 l 754 279 l 875 279 q 939 215 939 279 l 939 50 q 919 -1 939 15 l 739 -151 q 696 -165 725 -165 m 283 0 l 875 0 q 925 50 925 0 l 925 215 q 875 265 925 265 l 740 265 l 740 732 l 875 732 q 925 782 925 732 l 925 950 q 875 1000 925 1000 l 283 1000 q 233 950 233 1000 l 233 782 q 283 732 233 732 l 421 732 l 421 265 l 283 265 q 233 215 233 265 l 233 50 q 283 0 233 0 m 822 1046 q 869 1092 869 1040 l 869 1225 q 858 1262 869 1251 q 819 1275 846 1272 l 335 1335 q 288 1289 288 1340 l 288 1156 q 299 1119 288 1129 q 338 1106 311 1108 l 822 1046 m 358 875 l 800 875 l 800 861 l 588 861 l 588 139 l 800 139 l 800 125 l 358 125 l 358 139 l 574 139 l 574 861 l 358 861 l 358 875 m 413 1218 l 744 1176 l 744 1163 l 413 1204 l 413 1218 z "},"Í":{"ha":979,"x_min":40,"x_max":939,"o":"m 696 -165 l 104 -165 q 40 -101 40 -165 l 40 64 q 60 115 40 99 l 228 257 l 228 567 l 104 567 q 40 631 40 567 l 40 799 q 60 850 40 833 l 110 893 q 94 940 94 908 l 94 1074 q 99 1104 94 1093 q 113 1122 104 1115 l 293 1274 q 336 1289 306 1286 l 821 1349 q 883 1289 883 1357 l 883 1156 q 864 1107 883 1119 l 754 1014 l 875 1014 q 939 950 939 1014 l 939 782 q 919 731 939 747 l 754 592 l 754 279 l 875 279 q 939 215 939 279 l 939 50 q 919 -1 939 15 l 739 -151 q 696 -165 725 -165 m 283 0 l 875 0 q 925 50 925 0 l 925 215 q 875 265 925 265 l 740 265 l 740 732 l 875 732 q 925 782 925 732 l 925 950 q 875 1000 925 1000 l 283 1000 q 233 950 233 1000 l 233 782 q 283 732 233 732 l 421 732 l 421 265 l 283 265 q 233 215 233 265 l 233 50 q 283 0 233 0 m 819 1106 q 858 1119 846 1108 q 869 1156 869 1129 l 869 1289 q 822 1335 869 1340 l 338 1275 q 299 1262 311 1272 q 288 1225 288 1251 l 288 1092 q 335 1046 288 1040 l 819 1106 m 358 875 l 800 875 l 800 861 l 588 861 l 588 139 l 800 139 l 800 125 l 358 125 l 358 139 l 574 139 l 574 861 l 358 861 l 358 875 m 744 1218 l 744 1204 l 413 1163 l 413 1176 l 744 1218 z "},"Î":{"ha":979,"x_min":40,"x_max":939,"o":"m 696 -165 l 104 -165 q 40 -101 40 -165 l 40 64 q 60 115 40 99 l 228 257 l 228 567 l 104 567 q 40 631 40 567 l 40 799 q 60 850 40 833 l 104 888 q 94 943 94 901 l 94 1056 q 99 1096 94 1082 q 114 1119 104 1110 l 296 1271 l 294 1269 q 340 1293 307 1282 l 517 1357 q 547 1367 531 1364 q 576 1371 563 1369 q 603 1369 590 1371 q 625 1363 615 1368 l 817 1293 q 871 1265 858 1278 q 883 1207 883 1251 l 883 1094 q 880 1059 883 1072 q 869 1039 876 1046 l 868 1038 l 840 1014 l 875 1014 q 939 950 939 1014 l 939 782 q 919 731 939 747 l 754 592 l 754 279 l 875 279 q 939 215 939 279 l 939 50 q 919 -1 939 15 l 739 -151 q 696 -165 725 -165 m 283 0 l 875 0 q 925 50 925 0 l 925 215 q 875 265 925 265 l 740 265 l 740 732 l 875 732 q 925 782 925 732 l 925 950 q 875 1000 925 1000 l 283 1000 q 233 950 233 1000 l 233 782 q 283 732 233 732 l 421 732 l 421 265 l 283 265 q 233 215 233 265 l 233 50 q 283 0 233 0 m 535 1107 q 621 1107 578 1118 l 811 1051 q 858 1049 847 1040 q 869 1094 869 1057 l 869 1207 q 858 1256 869 1244 q 811 1281 847 1267 l 621 1350 q 600 1356 611 1354 q 576 1357 589 1357 q 549 1353 564 1356 q 522 1344 535 1350 l 344 1281 q 299 1256 311 1267 q 288 1207 288 1244 l 288 1094 q 299 1049 288 1057 q 344 1051 310 1040 l 535 1107 m 358 875 l 800 875 l 800 861 l 588 861 l 588 139 l 800 139 l 800 125 l 358 125 l 358 139 l 574 139 l 574 861 l 358 861 l 358 875 m 743 1181 l 622 1219 q 602 1225 613 1222 q 578 1228 592 1228 q 554 1225 564 1228 q 533 1219 544 1222 l 413 1181 l 413 1196 l 528 1233 q 551 1239 540 1236 q 578 1242 563 1242 q 604 1239 593 1242 q 628 1233 615 1236 l 743 1196 l 743 1181 z "},"Ï":{"ha":979,"x_min":40,"x_max":939,"o":"m 696 -165 l 104 -165 q 40 -101 40 -165 l 40 64 q 60 115 40 99 l 228 257 l 228 567 l 104 567 q 40 631 40 567 l 40 799 q 60 850 40 833 l 108 890 q 57 950 57 894 l 57 1118 q 62 1147 57 1136 q 75 1165 67 1158 l 254 1317 q 297 1329 269 1329 l 489 1329 q 549 1269 549 1329 l 549 1261 l 614 1317 q 656 1329 629 1329 l 847 1329 q 907 1269 907 1329 l 907 1101 q 889 1054 907 1069 l 840 1014 l 875 1014 q 939 950 939 1014 l 939 782 q 919 731 939 747 l 754 592 l 754 279 l 875 279 q 939 215 939 279 l 939 50 q 919 -1 939 15 l 739 -151 q 696 -165 725 -165 m 283 0 l 875 0 q 925 50 925 0 l 925 215 q 875 265 925 265 l 740 265 l 740 732 l 875 732 q 925 782 925 732 l 925 950 q 875 1000 925 1000 l 283 1000 q 233 950 233 1000 l 233 782 q 283 732 233 732 l 421 732 l 421 265 l 283 265 q 233 215 233 265 l 233 50 q 283 0 233 0 m 493 1056 q 539 1101 539 1056 l 539 1269 q 493 1315 539 1315 l 301 1315 q 254 1269 254 1315 l 254 1101 q 301 1056 254 1056 l 493 1056 m 851 1056 q 897 1101 897 1056 l 897 1269 q 851 1315 897 1315 l 660 1315 q 614 1269 614 1315 l 614 1101 q 660 1056 614 1056 l 851 1056 m 358 875 l 800 875 l 800 861 l 588 861 l 588 139 l 800 139 l 800 125 l 358 125 l 358 139 l 574 139 l 574 861 l 358 861 l 358 875 m 386 1153 l 386 1218 l 400 1218 l 400 1153 l 386 1153 m 744 1153 l 744 1218 l 758 1218 l 758 1153 l 744 1153 z "},"Ĩ":{"ha":979,"x_min":40,"x_max":939,"o":"m 696 -165 l 104 -165 q 40 -101 40 -165 l 40 64 q 60 115 40 99 l 228 257 l 228 567 l 104 567 q 40 631 40 567 l 40 799 q 60 850 40 833 l 110 892 q 93 939 93 904 l 93 1079 q 114 1131 93 1114 l 293 1281 q 331 1300 306 1290 l 332 1300 l 332 1301 q 405 1318 376 1314 q 465 1319 433 1322 q 553 1308 497 1317 l 554 1308 l 578 1306 l 608 1301 q 694 1291 665 1293 q 746 1294 724 1289 q 803 1310 768 1299 q 813 1313 810 1311 q 881 1263 881 1331 l 881 1122 q 875 1092 881 1104 q 860 1072 869 1081 l 790 1014 l 875 1014 q 939 950 939 1014 l 939 782 q 919 731 939 747 l 754 592 l 754 279 l 875 279 q 939 215 939 279 l 939 50 q 919 -1 939 15 l 739 -151 q 696 -165 725 -165 m 283 0 l 875 0 q 925 50 925 0 l 925 215 q 875 265 925 265 l 740 265 l 740 732 l 875 732 q 925 782 925 732 l 925 950 q 875 1000 925 1000 l 283 1000 q 233 950 233 1000 l 233 782 q 283 732 233 732 l 421 732 l 421 265 l 283 265 q 233 215 233 265 l 233 50 q 283 0 233 0 m 578 1061 l 600 1058 q 688 1047 656 1050 q 747 1049 719 1044 q 818 1065 775 1053 q 855 1085 842 1075 q 868 1122 868 1096 l 868 1263 q 818 1299 868 1314 q 808 1296 814 1297 q 749 1280 772 1285 q 697 1277 726 1275 q 608 1288 667 1279 l 578 1292 l 554 1294 l 554 1294 q 467 1306 499 1303 q 408 1304 436 1308 q 338 1288 381 1300 q 301 1267 314 1278 q 288 1231 288 1257 l 288 1090 q 338 1054 288 1040 q 400 1071 375 1065 q 456 1076 425 1076 q 539 1067 486 1075 l 578 1061 m 358 875 l 800 875 l 800 861 l 588 861 l 588 139 l 800 139 l 800 125 l 358 125 l 358 139 l 574 139 l 574 861 l 358 861 l 358 875 m 742 1154 q 682 1154 714 1151 q 597 1165 650 1157 l 575 1168 l 536 1174 q 463 1182 490 1181 q 411 1179 435 1183 l 411 1194 q 463 1196 435 1197 q 539 1188 492 1194 l 578 1182 l 600 1179 q 683 1168 653 1171 q 742 1168 714 1165 l 742 1154 z "},"Ī":{"ha":979,"x_min":40,"x_max":939,"o":"m 696 -165 l 104 -165 q 40 -101 40 -165 l 40 64 q 60 115 40 99 l 228 257 l 228 567 l 104 567 q 40 631 40 567 l 40 799 q 60 850 40 833 l 118 899 q 94 954 94 914 l 94 1083 q 114 1135 94 1118 l 293 1286 q 338 1299 308 1299 l 819 1299 q 883 1235 883 1299 l 883 1106 q 864 1054 883 1071 l 815 1014 l 875 1014 q 939 950 939 1014 l 939 782 q 919 731 939 747 l 754 592 l 754 279 l 875 279 q 939 215 939 279 l 939 50 q 919 -1 939 15 l 739 -151 q 696 -165 725 -165 m 283 0 l 875 0 q 925 50 925 0 l 925 215 q 875 265 925 265 l 740 265 l 740 732 l 875 732 q 925 782 925 732 l 925 950 q 875 1000 925 1000 l 283 1000 q 233 950 233 1000 l 233 782 q 283 732 233 732 l 421 732 l 421 265 l 283 265 q 233 215 233 265 l 233 50 q 283 0 233 0 m 819 1056 q 869 1106 869 1056 l 869 1235 q 819 1285 869 1285 l 338 1285 q 288 1235 288 1285 l 288 1106 q 338 1056 288 1056 l 819 1056 m 358 875 l 800 875 l 800 861 l 588 861 l 588 139 l 800 139 l 800 125 l 358 125 l 358 139 l 574 139 l 574 861 l 358 861 l 358 875 m 744 1176 l 744 1163 l 413 1163 l 413 1176 l 744 1176 z "},"Ĭ":{"ha":979,"x_min":40,"x_max":939,"o":"m 696 -165 l 104 -165 q 40 -101 40 -165 l 40 64 q 60 115 40 99 l 228 257 l 228 567 l 104 567 q 40 631 40 567 l 40 799 q 60 850 40 833 l 158 933 q 100 1003 115 961 q 85 1094 85 1044 l 85 1156 q 104 1207 85 1190 l 283 1358 q 328 1371 299 1371 l 461 1371 q 503 1359 490 1371 q 515 1314 515 1347 l 515 1285 q 540 1257 515 1263 l 665 1361 l 664 1360 q 704 1371 675 1371 l 831 1371 q 894 1307 894 1371 l 894 1246 q 881 1161 894 1200 q 833 1094 868 1122 l 738 1014 l 875 1014 q 939 950 939 1014 l 939 782 q 919 731 939 747 l 754 592 l 754 279 l 875 279 q 939 215 939 279 l 939 50 q 919 -1 939 15 l 739 -151 q 696 -165 725 -165 m 283 0 l 875 0 q 925 50 925 0 l 925 215 q 875 265 925 265 l 740 265 l 740 732 l 875 732 q 925 782 925 732 l 925 950 q 875 1000 925 1000 l 283 1000 q 233 950 233 1000 l 233 782 q 283 732 233 732 l 421 732 l 421 265 l 283 265 q 233 215 233 265 l 233 50 q 283 0 233 0 m 881 1246 l 881 1307 q 831 1357 881 1357 l 704 1357 q 672 1348 681 1357 q 663 1314 663 1339 l 663 1285 q 648 1252 663 1265 q 581 1239 633 1239 q 515 1252 529 1239 q 501 1285 501 1265 l 501 1314 q 492 1348 501 1339 q 461 1357 483 1357 l 328 1357 q 278 1307 278 1357 l 278 1246 q 303 1142 278 1188 q 393 1072 328 1097 q 579 1047 458 1047 q 765 1072 700 1047 q 856 1142 831 1097 q 881 1246 881 1188 m 358 875 l 800 875 l 800 861 l 588 861 l 588 139 l 800 139 l 800 125 l 358 125 l 358 139 l 574 139 l 574 861 l 358 861 l 358 875 m 779 1260 l 779 1247 q 765 1195 779 1221 q 707 1153 750 1169 q 578 1136 664 1136 q 450 1153 492 1136 q 396 1195 408 1169 q 383 1247 383 1221 l 383 1260 l 397 1260 l 397 1247 q 411 1200 397 1222 q 464 1164 425 1178 q 578 1150 503 1150 q 694 1164 653 1150 q 750 1200 735 1178 q 765 1247 765 1222 l 765 1260 l 779 1260 z "},"Į":{"ha":979,"x_min":40,"x_max":939,"o":"m 546 -424 q 413 -375 449 -424 q 392 -219 376 -326 l 401 -165 l 104 -165 q 40 -101 40 -165 l 40 64 q 60 115 40 99 l 228 257 l 228 567 l 104 567 q 40 631 40 567 l 40 799 q 60 850 40 833 l 239 1001 q 283 1014 254 1014 l 875 1014 q 939 950 939 1014 l 939 782 q 919 731 939 747 l 754 592 l 754 279 l 875 279 q 939 215 939 279 l 939 50 q 919 -1 939 15 l 861 -50 l 875 -50 q 926 -63 913 -50 q 939 -111 939 -76 l 939 -211 q 924 -261 939 -246 l 742 -412 q 700 -424 728 -424 l 546 -424 m 283 0 l 597 0 l 585 -71 q 603 -213 571 -168 q 725 -258 636 -258 l 879 -258 q 916 -248 907 -258 q 925 -211 925 -237 l 925 -111 q 915 -74 925 -83 q 875 -64 904 -64 l 818 -64 l 828 0 l 875 0 q 925 50 925 0 l 925 215 q 875 265 925 265 l 740 265 l 740 732 l 875 732 q 925 782 925 732 l 925 950 q 875 1000 925 1000 l 283 1000 q 233 950 233 1000 l 233 782 q 283 732 233 732 l 421 732 l 421 265 l 283 265 q 233 215 233 265 l 233 50 q 283 0 233 0 m 358 875 l 800 875 l 800 861 l 588 861 l 588 139 l 800 139 l 800 125 l 772 125 q 738 100 746 111 q 726 58 731 89 l 710 -60 q 714 -124 704 -101 q 767 -147 724 -147 l 800 -147 l 800 -161 l 767 -161 q 701 -135 715 -161 q 696 -57 688 -108 l 713 58 q 723 99 717 86 q 746 125 729 113 l 358 125 l 358 139 l 574 139 l 574 861 l 358 861 l 358 875 z "},"İ":{"ha":979,"x_min":40,"x_max":939,"o":"m 696 -165 l 104 -165 q 40 -101 40 -165 l 40 64 q 60 115 40 99 l 228 257 l 228 567 l 104 567 q 40 631 40 567 l 40 799 q 60 850 40 833 l 229 993 l 229 1131 q 249 1182 229 1165 l 428 1333 q 472 1346 443 1346 l 692 1346 q 756 1282 756 1346 l 756 1106 q 736 1054 756 1071 l 688 1014 l 875 1014 q 939 950 939 1014 l 939 782 q 919 731 939 747 l 754 592 l 754 279 l 875 279 q 939 215 939 279 l 939 50 q 919 -1 939 15 l 739 -151 q 696 -165 725 -165 m 283 0 l 875 0 q 925 50 925 0 l 925 215 q 875 265 925 265 l 740 265 l 740 732 l 875 732 q 925 782 925 732 l 925 950 q 875 1000 925 1000 l 283 1000 q 233 950 233 1000 l 233 782 q 283 732 233 732 l 421 732 l 421 265 l 283 265 q 233 215 233 265 l 233 50 q 283 0 233 0 m 690 1056 q 740 1106 740 1056 l 740 1282 q 690 1332 740 1332 l 471 1332 q 421 1282 421 1332 l 421 1106 q 471 1056 421 1056 l 690 1056 m 358 875 l 800 875 l 800 861 l 588 861 l 588 139 l 800 139 l 800 125 l 358 125 l 358 139 l 574 139 l 574 861 l 358 861 l 358 875 m 575 1153 l 575 1235 l 589 1235 l 589 1153 l 575 1153 z "},"J":{"ha":1094,"x_min":24,"x_max":1040,"o":"m 440 -186 q 232 -158 314 -186 q 105 -83 150 -131 q 42 26 60 -35 q 24 153 24 88 l 24 336 q 42 388 24 372 l 222 539 q 267 551 238 551 l 468 551 q 515 538 500 551 l 515 799 q 535 850 515 833 l 714 1001 q 758 1014 729 1014 l 976 1014 q 1040 950 1040 1014 l 1040 263 q 1022 142 1040 197 q 956 49 1004 88 l 776 -103 q 649 -164 729 -142 q 440 -186 568 -186 m 1026 263 l 1026 950 q 976 1000 1026 1000 l 758 1000 q 708 950 708 1000 l 708 318 q 693 272 708 290 q 617 253 678 253 q 535 272 553 253 q 518 318 518 290 l 518 488 q 468 538 518 538 l 267 538 q 217 488 217 538 l 217 263 q 250 114 217 178 q 371 15 283 50 q 619 -21 458 -21 q 871 15 783 -21 q 992 114 958 50 q 1026 263 1026 178 m 874 875 l 874 296 q 852 199 874 242 q 776 133 831 157 q 622 108 721 108 q 461 132 518 108 q 383 198 404 156 q 361 296 361 240 l 361 406 l 375 406 l 375 296 q 397 204 375 243 q 472 144 418 165 q 622 122 526 122 q 766 144 714 122 q 839 205 818 165 q 860 296 860 244 l 860 875 l 874 875 z "},"Ĵ":{"ha":1094,"x_min":24,"x_max":1161,"o":"m 440 -186 q 232 -158 314 -186 q 105 -83 150 -131 q 42 26 60 -35 q 24 153 24 88 l 24 336 q 42 388 24 372 l 222 539 q 267 551 238 551 l 468 551 q 515 538 500 551 l 515 799 q 535 850 515 833 l 646 944 q 638 942 642 943 l 447 886 q 387 883 401 872 q 372 943 372 893 l 372 1056 q 377 1096 372 1082 q 392 1119 382 1110 l 574 1271 l 572 1269 q 618 1293 585 1282 l 794 1357 q 824 1367 808 1364 q 854 1371 840 1369 q 881 1369 868 1371 q 903 1363 893 1368 l 1094 1293 q 1149 1265 1136 1278 q 1161 1207 1161 1251 l 1161 1094 q 1158 1059 1161 1072 q 1147 1039 1154 1046 l 1146 1038 l 1040 950 l 1040 263 q 1022 142 1040 197 q 956 49 1004 88 l 776 -103 q 649 -164 729 -142 q 440 -186 568 -186 m 1026 263 l 1026 950 q 976 1000 1026 1000 l 758 1000 q 708 950 708 1000 l 708 318 q 693 272 708 290 q 617 253 678 253 q 535 272 553 253 q 518 318 518 290 l 518 488 q 468 538 518 538 l 267 538 q 217 488 217 538 l 217 263 q 250 114 217 178 q 371 15 283 50 q 619 -21 458 -21 q 871 15 783 -21 q 992 114 958 50 q 1026 263 1026 178 m 813 1107 q 899 1107 856 1118 l 1089 1051 q 1136 1049 1125 1040 q 1147 1094 1147 1057 l 1147 1207 q 1136 1256 1147 1244 q 1089 1281 1125 1267 l 899 1350 q 878 1356 889 1354 q 854 1357 867 1357 q 827 1353 842 1356 q 800 1344 813 1350 l 622 1281 q 577 1256 589 1267 q 565 1207 565 1244 l 565 1094 q 576 1049 565 1057 q 622 1051 588 1040 l 813 1107 m 874 875 l 874 296 q 852 199 874 242 q 776 133 831 157 q 622 108 721 108 q 461 132 518 108 q 383 198 404 156 q 361 296 361 240 l 361 406 l 375 406 l 375 296 q 397 204 375 243 q 472 144 418 165 q 622 122 526 122 q 766 144 714 122 q 839 205 818 165 q 860 296 860 244 l 860 875 l 874 875 m 1021 1181 l 900 1219 q 880 1225 890 1222 q 856 1228 869 1228 q 832 1225 842 1228 q 811 1219 822 1222 l 690 1181 l 690 1196 l 806 1233 q 829 1239 818 1236 q 856 1242 840 1242 q 882 1239 871 1242 q 906 1233 893 1236 l 1021 1196 l 1021 1181 z "},"K":{"ha":1175,"x_min":63,"x_max":1126,"o":"m 565 -1 l 385 -151 q 342 -165 371 -165 l 126 -165 q 63 -101 63 -165 l 63 799 q 82 850 63 833 l 261 1001 q 306 1014 276 1014 l 521 1014 q 585 950 585 1014 l 585 824 q 593 836 589 831 q 603 846 597 842 l 782 997 q 839 1014 803 1014 l 1053 1014 q 1096 949 1124 1014 l 963 643 q 1082 580 1038 633 q 1126 442 1126 526 l 1126 50 q 1107 -1 1126 15 l 926 -151 q 883 -165 913 -165 l 669 -165 q 606 -101 606 -165 l 606 169 q 585 201 606 197 l 585 50 q 565 -1 585 15 m 521 0 q 571 50 571 0 l 571 368 l 754 368 q 799 321 799 368 l 799 50 q 849 0 799 0 l 1063 0 q 1113 50 1113 0 l 1113 442 q 1066 576 1113 525 q 942 631 1019 626 l 1083 954 q 1053 1000 1103 1000 l 839 1000 q 769 954 789 1000 l 626 631 l 571 631 l 571 950 q 521 1000 571 1000 l 306 1000 q 256 950 256 1000 l 256 50 q 306 0 256 0 l 521 0 m 421 875 l 421 506 l 722 506 l 882 875 l 897 875 l 738 506 l 794 506 q 922 474 881 506 q 963 369 963 443 l 963 125 l 949 125 l 949 369 q 910 464 949 436 q 794 492 872 492 l 421 492 l 421 125 l 407 125 l 407 875 l 421 875 z "},"Ķ":{"ha":1175,"x_min":63,"x_max":1126,"o":"m 565 -1 l 385 -151 q 342 -165 371 -165 l 126 -165 q 63 -101 63 -165 l 63 799 q 82 850 63 833 l 261 1001 q 306 1014 276 1014 l 521 1014 q 585 950 585 1014 l 585 824 q 593 836 589 831 q 603 846 597 842 l 782 997 q 839 1014 803 1014 l 1053 1014 q 1096 949 1124 1014 l 963 643 q 1082 580 1038 633 q 1126 442 1126 526 l 1126 50 q 1107 -1 1126 15 l 926 -151 q 883 -165 913 -165 l 853 -165 l 853 -325 q 837 -415 853 -376 q 793 -476 821 -453 l 614 -628 q 486 -668 565 -668 l 394 -668 q 339 -611 339 -668 l 339 -564 q 356 -519 339 -529 l 397 -485 l 389 -485 q 338 -470 353 -485 q 324 -417 324 -456 l 324 -265 q 342 -208 324 -225 l 522 -58 l 521 -60 q 568 -46 535 -46 l 606 -46 l 606 169 q 585 201 606 197 l 585 50 q 565 -1 585 15 m 521 0 q 571 50 571 0 l 571 368 l 754 368 q 799 321 799 368 l 799 50 q 849 0 799 0 l 1063 0 q 1113 50 1113 0 l 1113 442 q 1066 576 1113 525 q 942 631 1019 626 l 1083 954 q 1053 1000 1103 1000 l 839 1000 q 769 954 789 1000 l 626 631 l 571 631 l 571 950 q 521 1000 571 1000 l 306 1000 q 256 950 256 1000 l 256 50 q 306 0 256 0 l 521 0 m 665 -503 q 792 -458 744 -503 q 839 -325 839 -414 l 839 -114 q 828 -71 839 -82 q 788 -60 817 -60 l 568 -60 q 528 -71 539 -60 q 517 -114 517 -82 l 517 -265 q 528 -308 517 -296 q 568 -319 539 -319 l 688 -319 l 688 -337 q 656 -371 688 -371 l 574 -371 q 532 -412 532 -371 l 532 -460 q 574 -503 532 -503 l 665 -503 m 421 875 l 421 506 l 722 506 l 882 875 l 897 875 l 738 506 l 794 506 q 922 474 881 506 q 963 369 963 443 l 963 125 l 949 125 l 949 369 q 910 464 949 436 q 794 492 872 492 l 421 492 l 421 125 l 407 125 l 407 875 l 421 875 m 760 -183 l 760 -318 q 731 -410 760 -382 q 644 -437 701 -437 l 596 -437 l 596 -424 l 644 -424 q 720 -399 694 -424 q 746 -318 746 -374 l 746 -197 l 596 -197 l 596 -183 l 760 -183 z "},"L":{"ha":1104,"x_min":63,"x_max":1076,"o":"m 833 -165 l 126 -165 q 63 -101 63 -165 l 63 799 q 82 850 63 833 l 261 1001 q 306 1014 276 1014 l 521 1014 q 585 950 585 1014 l 585 385 l 588 388 l 767 539 q 811 551 782 551 l 1013 551 q 1076 488 1076 551 l 1076 50 q 1057 -1 1076 15 l 876 -151 q 833 -165 863 -165 m 1013 0 q 1063 50 1063 0 l 1063 488 q 1013 538 1063 538 l 811 538 q 761 488 761 538 l 761 263 l 571 263 l 571 950 q 521 1000 571 1000 l 306 1000 q 256 950 256 1000 l 256 50 q 306 0 256 0 l 1013 0 m 918 413 l 918 125 l 407 125 l 407 875 l 421 875 l 421 139 l 904 139 l 904 413 l 918 413 z "},"Ĺ":{"ha":1104,"x_min":63,"x_max":1076,"o":"m 833 -165 l 126 -165 q 63 -101 63 -165 l 63 799 q 82 850 63 833 l 117 879 q 63 940 63 876 l 63 1074 q 67 1104 63 1093 q 81 1122 72 1115 l 261 1274 q 304 1289 274 1286 l 789 1349 q 851 1289 851 1357 l 851 1156 q 832 1107 851 1119 l 653 956 q 635 947 646 950 q 610 940 625 943 l 585 938 l 585 385 l 588 388 l 767 539 q 811 551 782 551 l 1013 551 q 1076 488 1076 551 l 1076 50 q 1057 -1 1076 15 l 876 -151 q 833 -165 863 -165 m 1013 0 q 1063 50 1063 0 l 1063 488 q 1013 538 1063 538 l 811 538 q 761 488 761 538 l 761 263 l 571 263 l 571 950 q 521 1000 571 1000 l 306 1000 q 256 950 256 1000 l 256 50 q 306 0 256 0 l 1013 0 m 788 1106 q 826 1119 814 1108 q 838 1156 838 1129 l 838 1289 q 790 1335 838 1340 l 306 1275 q 267 1262 279 1272 q 256 1225 256 1251 l 256 1092 q 303 1046 256 1040 l 788 1106 m 918 413 l 918 125 l 407 125 l 407 875 l 421 875 l 421 139 l 904 139 l 904 413 l 918 413 m 713 1218 l 713 1204 l 381 1163 l 381 1176 l 713 1218 z "},"Ļ":{"ha":1104,"x_min":63,"x_max":1076,"o":"m 474 -668 l 382 -668 q 326 -611 326 -668 l 326 -564 q 343 -519 326 -529 l 385 -485 l 376 -485 q 326 -470 340 -485 q 311 -417 311 -456 l 311 -265 q 329 -208 311 -225 l 381 -165 l 126 -165 q 63 -101 63 -165 l 63 799 q 82 850 63 833 l 261 1001 q 306 1014 276 1014 l 521 1014 q 585 950 585 1014 l 585 385 l 588 388 l 767 539 q 811 551 782 551 l 1013 551 q 1076 488 1076 551 l 1076 50 q 1057 -1 1076 15 l 876 -151 q 840 -165 864 -164 l 840 -325 q 824 -415 840 -376 q 781 -476 808 -453 l 601 -628 q 474 -668 553 -668 m 1013 0 q 1063 50 1063 0 l 1063 488 q 1013 538 1063 538 l 811 538 q 761 488 761 538 l 761 263 l 571 263 l 571 950 q 521 1000 571 1000 l 306 1000 q 256 950 256 1000 l 256 50 q 306 0 256 0 l 1013 0 m 653 -503 q 779 -458 732 -503 q 826 -325 826 -414 l 826 -114 q 815 -71 826 -82 q 775 -60 804 -60 l 556 -60 q 515 -71 526 -60 q 504 -114 504 -82 l 504 -265 q 515 -308 504 -296 q 556 -319 526 -319 l 675 -319 l 675 -337 q 643 -371 675 -371 l 561 -371 q 519 -412 519 -371 l 519 -460 q 561 -503 519 -503 l 653 -503 m 918 413 l 918 125 l 407 125 l 407 875 l 421 875 l 421 139 l 904 139 l 904 413 l 918 413 m 747 -183 l 747 -318 q 718 -410 747 -382 q 632 -437 689 -437 l 583 -437 l 583 -424 l 632 -424 q 708 -399 682 -424 q 733 -318 733 -374 l 733 -197 l 583 -197 l 583 -183 l 747 -183 z "},"Ľ":{"ha":1104,"x_min":63,"x_max":1076,"o":"m 833 -165 l 126 -165 q 63 -101 63 -165 l 63 799 q 82 850 63 833 l 261 1001 q 306 1014 276 1014 l 521 1014 q 585 950 585 1014 l 585 846 q 590 851 588 849 l 769 1001 q 811 1014 785 1014 l 1003 1014 q 1056 997 1039 1014 q 1067 947 1074 979 l 1001 675 q 978 625 993 640 l 890 551 l 1013 551 q 1076 488 1076 551 l 1076 50 q 1057 -1 1076 15 l 876 -151 q 833 -165 863 -165 m 1013 0 q 1063 50 1063 0 l 1063 488 q 1013 538 1063 538 l 811 538 q 761 488 761 538 l 761 263 l 571 263 l 571 950 q 521 1000 571 1000 l 306 1000 q 256 950 256 1000 l 256 50 q 306 0 256 0 l 1013 0 m 938 628 q 973 640 964 628 q 988 678 982 653 l 1053 950 q 1044 988 1060 975 q 1003 1000 1029 1000 l 811 1000 q 775 988 785 1000 q 761 950 765 976 l 715 678 q 725 640 711 651 q 765 628 739 628 l 938 628 m 918 413 l 918 125 l 407 125 l 407 875 l 421 875 l 421 139 l 904 139 l 904 413 l 918 413 m 676 463 l 586 463 q 585 463 585 463 l 585 385 l 588 388 l 676 463 m 858 746 l 883 875 l 899 875 l 874 746 l 858 746 z "},"M":{"ha":1318,"x_min":63,"x_max":1257,"o":"m 557 -1 l 376 -151 q 333 -165 363 -165 l 126 -165 q 63 -101 63 -165 l 63 799 q 82 850 63 833 l 261 1001 q 306 1014 276 1014 l 529 1014 q 573 1003 556 1014 q 606 965 590 993 l 700 792 l 713 814 q 738 847 724 835 l 917 997 q 940 1010 928 1006 q 968 1014 951 1014 l 1193 1014 q 1257 950 1257 1014 l 1257 50 q 1238 -1 1257 15 l 1057 -151 q 1014 -165 1043 -165 l 800 -165 q 751 -150 765 -165 q 736 -101 736 -135 l 736 265 l 654 197 q 594 178 631 178 l 576 178 l 576 50 q 557 -1 576 15 m 513 0 q 563 50 563 0 l 563 539 l 644 388 q 718 343 668 343 l 774 343 q 847 388 824 343 l 929 539 l 929 50 q 979 0 929 0 l 1193 0 q 1243 50 1243 0 l 1243 950 q 1193 1000 1243 1000 l 968 1000 q 904 958 926 1000 l 781 732 q 769 714 774 719 q 756 708 764 708 l 743 708 q 730 714 735 708 q 718 732 725 719 l 593 958 q 529 1000 571 1000 l 306 1000 q 256 950 256 1000 l 256 50 q 306 0 256 0 l 513 0 m 744 535 q 781 546 769 535 q 815 593 792 557 l 985 851 q 1003 870 993 865 q 1025 875 1014 875 l 1049 875 q 1086 832 1086 875 l 1086 125 l 1072 125 l 1072 832 q 1068 852 1072 843 q 1049 861 1064 861 l 1028 861 q 1011 858 1018 861 q 996 842 1004 856 l 826 586 q 788 535 801 549 q 744 521 775 521 q 701 535 714 521 q 663 586 688 549 l 493 842 q 477 858 485 856 q 460 861 469 861 l 439 861 q 421 852 425 861 q 417 832 417 843 l 417 125 l 403 125 l 403 832 q 439 875 403 875 l 463 875 q 485 870 474 875 q 504 851 496 865 l 674 593 q 708 546 697 557 q 744 535 719 535 z "},"N":{"ha":1185,"x_min":63,"x_max":1124,"o":"m 558 -1 l 378 -151 q 335 -165 364 -165 l 126 -165 q 63 -101 63 -165 l 63 799 q 82 850 63 833 l 261 1001 q 306 1014 276 1014 l 450 1014 q 543 972 506 1014 l 639 861 l 807 1001 q 851 1014 822 1014 l 1060 1014 q 1124 950 1124 1014 l 1124 50 q 1104 -1 1124 15 l 924 -151 q 881 -165 910 -165 l 672 -165 q 608 -101 608 -165 l 608 64 l 578 101 l 578 50 q 558 -1 578 15 m 514 0 q 564 50 564 0 l 564 508 l 801 221 l 801 50 q 851 0 801 0 l 1060 0 q 1110 50 1110 0 l 1110 950 q 1060 1000 1110 1000 l 851 1000 q 801 950 801 1000 l 801 654 l 532 963 q 450 1000 500 1000 l 306 1000 q 256 950 256 1000 l 256 50 q 306 0 256 0 l 514 0 m 439 864 l 950 289 l 950 875 l 964 875 l 964 125 l 950 125 l 950 268 l 425 857 q 418 861 421 861 q 415 857 415 861 l 415 125 l 401 125 l 401 860 q 418 876 401 876 q 439 864 426 876 z "},"Ñ":{"ha":1185,"x_min":63,"x_max":1124,"o":"m 558 -1 l 378 -151 q 335 -165 364 -165 l 126 -165 q 63 -101 63 -165 l 63 799 q 82 850 63 833 l 196 946 l 196 1079 q 217 1131 196 1114 l 396 1281 q 433 1300 408 1290 l 435 1300 l 435 1301 q 508 1318 479 1314 q 568 1319 536 1322 q 656 1308 600 1317 l 657 1308 l 681 1306 l 711 1301 q 797 1291 768 1293 q 849 1294 826 1289 q 906 1310 871 1299 q 915 1313 913 1311 q 983 1263 983 1331 l 983 1122 q 978 1092 983 1104 q 963 1072 972 1081 l 893 1014 l 1060 1014 q 1124 950 1124 1014 l 1124 50 q 1104 -1 1124 15 l 924 -151 q 881 -165 910 -165 l 672 -165 q 608 -101 608 -165 l 608 64 l 578 101 l 578 50 q 558 -1 578 15 m 514 0 q 564 50 564 0 l 564 508 l 801 221 l 801 50 q 851 0 801 0 l 1060 0 q 1110 50 1110 0 l 1110 950 q 1060 1000 1110 1000 l 851 1000 q 801 950 801 1000 l 801 654 l 532 963 q 450 1000 500 1000 l 306 1000 q 256 950 256 1000 l 256 50 q 306 0 256 0 l 514 0 m 681 1061 l 703 1058 q 790 1047 758 1050 q 850 1049 822 1044 q 921 1065 878 1053 q 958 1085 944 1075 q 971 1122 971 1096 l 971 1263 q 921 1299 971 1314 q 911 1296 917 1297 q 852 1280 875 1285 q 799 1277 829 1275 q 711 1288 769 1279 l 681 1292 l 657 1294 l 657 1294 q 570 1306 601 1303 q 511 1304 539 1308 q 440 1288 483 1300 q 403 1267 417 1278 q 390 1231 390 1257 l 390 1090 q 440 1054 390 1040 q 503 1071 478 1065 q 558 1076 528 1076 q 642 1067 589 1075 l 681 1061 m 439 864 l 950 289 l 950 875 l 964 875 l 964 125 l 950 125 l 950 268 l 425 857 q 418 861 421 861 q 415 857 415 861 l 415 125 l 401 125 l 401 860 q 418 876 401 876 q 439 864 426 876 m 844 1154 q 785 1154 817 1151 q 700 1165 753 1157 l 678 1168 l 639 1174 q 565 1182 593 1181 q 514 1179 538 1183 l 514 1194 q 566 1196 538 1197 q 642 1188 594 1194 l 681 1182 l 703 1179 q 786 1168 756 1171 q 844 1168 817 1165 l 844 1154 m 664 882 q 622 881 644 879 l 639 861 l 664 882 z "},"Ń":{"ha":1185,"x_min":63,"x_max":1124,"o":"m 558 -1 l 378 -151 q 335 -165 364 -165 l 126 -165 q 63 -101 63 -165 l 63 799 q 82 850 63 833 l 211 960 l 211 1074 q 216 1104 211 1093 q 229 1122 221 1115 l 410 1274 q 453 1289 422 1286 l 938 1349 q 1000 1289 1000 1357 l 1000 1156 q 981 1107 1000 1119 l 871 1014 l 1060 1014 q 1124 950 1124 1014 l 1124 50 q 1104 -1 1124 15 l 924 -151 q 881 -165 910 -165 l 672 -165 q 608 -101 608 -165 l 608 64 l 578 101 l 578 50 q 558 -1 578 15 m 514 0 q 564 50 564 0 l 564 508 l 801 221 l 801 50 q 851 0 801 0 l 1060 0 q 1110 50 1110 0 l 1110 950 q 1060 1000 1110 1000 l 851 1000 q 801 950 801 1000 l 801 654 l 532 963 q 450 1000 500 1000 l 306 1000 q 256 950 256 1000 l 256 50 q 306 0 256 0 l 514 0 m 936 1106 q 974 1119 963 1108 q 986 1156 986 1129 l 986 1289 q 939 1335 986 1340 l 454 1275 q 416 1262 428 1272 q 404 1225 404 1251 l 404 1092 q 451 1046 404 1040 l 936 1106 m 439 864 l 950 289 l 950 875 l 964 875 l 964 125 l 950 125 l 950 268 l 425 857 q 418 861 421 861 q 415 857 415 861 l 415 125 l 401 125 l 401 860 q 418 876 401 876 q 439 864 426 876 m 861 1218 l 861 1204 l 529 1163 l 529 1176 l 861 1218 m 729 936 l 589 919 l 639 861 l 729 936 z "},"Ņ":{"ha":1185,"x_min":63,"x_max":1124,"o":"m 558 -1 l 378 -151 q 335 -165 364 -165 l 126 -165 q 63 -101 63 -165 l 63 799 q 82 850 63 833 l 261 1001 q 306 1014 276 1014 l 450 1014 q 543 972 506 1014 l 639 861 l 807 1001 q 851 1014 822 1014 l 1060 1014 q 1124 950 1124 1014 l 1124 50 q 1104 -1 1124 15 l 924 -151 q 881 -165 910 -165 l 857 -165 l 857 -325 q 841 -415 857 -376 q 797 -476 825 -453 l 618 -628 q 490 -668 569 -668 l 399 -668 q 343 -611 343 -668 l 343 -564 q 360 -519 343 -529 l 401 -485 l 393 -485 q 342 -470 357 -485 q 328 -417 328 -456 l 328 -265 q 346 -208 328 -225 l 526 -58 l 525 -60 q 572 -46 539 -46 l 608 -46 l 608 64 l 578 101 l 578 50 q 558 -1 578 15 m 514 0 q 564 50 564 0 l 564 508 l 801 221 l 801 50 q 851 0 801 0 l 1060 0 q 1110 50 1110 0 l 1110 950 q 1060 1000 1110 1000 l 851 1000 q 801 950 801 1000 l 801 654 l 532 963 q 450 1000 500 1000 l 306 1000 q 256 950 256 1000 l 256 50 q 306 0 256 0 l 514 0 m 669 -503 q 796 -458 749 -503 q 843 -325 843 -414 l 843 -114 q 832 -71 843 -82 q 792 -60 821 -60 l 572 -60 q 532 -71 543 -60 q 521 -114 521 -82 l 521 -265 q 532 -308 521 -296 q 572 -319 543 -319 l 692 -319 l 692 -337 q 660 -371 692 -371 l 578 -371 q 536 -412 536 -371 l 536 -460 q 578 -503 536 -503 l 669 -503 m 439 864 l 950 289 l 950 875 l 964 875 l 964 125 l 950 125 l 950 268 l 425 857 q 418 861 421 861 q 415 857 415 861 l 415 125 l 401 125 l 401 860 q 418 876 401 876 q 439 864 426 876 m 764 -183 l 764 -318 q 735 -410 764 -382 q 649 -437 706 -437 l 600 -437 l 600 -424 l 649 -424 q 724 -399 699 -424 q 750 -318 750 -374 l 750 -197 l 600 -197 l 600 -183 l 764 -183 z "},"Ň":{"ha":1185,"x_min":63,"x_max":1124,"o":"m 558 -1 l 378 -151 q 335 -165 364 -165 l 126 -165 q 63 -101 63 -165 l 63 799 q 82 850 63 833 l 222 968 q 191 994 199 979 q 183 1043 183 1008 l 183 1156 q 199 1213 183 1201 l 378 1364 q 399 1371 385 1371 q 439 1364 414 1371 l 629 1308 q 707 1308 668 1297 l 897 1364 q 958 1368 943 1379 q 972 1307 972 1357 l 972 1194 q 967 1154 972 1168 q 950 1131 961 1140 l 771 979 q 753 969 763 974 q 728 957 743 964 l 726 957 l 597 910 l 639 861 l 807 1001 q 851 1014 822 1014 l 1060 1014 q 1124 950 1124 1014 l 1124 50 q 1104 -1 1124 15 l 924 -151 q 881 -165 910 -165 l 672 -165 q 608 -101 608 -165 l 608 64 l 578 101 l 578 50 q 558 -1 578 15 m 514 0 q 564 50 564 0 l 564 508 l 801 221 l 801 50 q 851 0 801 0 l 1060 0 q 1110 50 1110 0 l 1110 950 q 1060 1000 1110 1000 l 851 1000 q 801 950 801 1000 l 801 654 l 532 963 q 450 1000 500 1000 l 306 1000 q 256 950 256 1000 l 256 50 q 306 0 256 0 l 514 0 m 711 1294 q 625 1294 668 1283 l 435 1350 q 388 1353 399 1361 q 376 1307 376 1344 l 376 1194 q 388 1146 376 1157 q 435 1121 400 1135 l 625 1051 q 647 1046 636 1047 q 669 1044 657 1044 q 697 1049 682 1046 q 724 1057 711 1051 l 901 1121 q 947 1146 935 1135 q 958 1194 958 1157 l 958 1307 q 948 1353 958 1344 q 901 1350 938 1361 l 711 1294 m 439 864 l 950 289 l 950 875 l 964 875 l 964 125 l 950 125 l 950 268 l 425 857 q 418 861 421 861 q 415 857 415 861 l 415 125 l 401 125 l 401 860 q 418 876 401 876 q 439 864 426 876 m 501 1221 l 622 1182 q 643 1176 633 1179 q 667 1174 653 1174 q 691 1176 681 1174 q 711 1182 701 1179 l 832 1221 l 832 1206 l 717 1168 q 693 1163 704 1165 q 667 1160 682 1160 q 640 1163 651 1160 q 617 1168 629 1165 l 501 1206 l 501 1221 z "},"O":{"ha":1163,"x_min":47,"x_max":1117,"o":"m 854 -99 q 719 -163 806 -140 q 493 -186 632 -186 q 269 -158 357 -186 q 133 -83 182 -131 q 66 26 85 -35 q 47 153 47 88 l 47 585 q 65 704 47 650 q 131 797 83 758 l 311 947 q 447 1012 360 989 q 672 1035 533 1035 q 896 1013 808 1035 q 1031 951 983 992 q 1098 856 1079 911 q 1117 736 1117 801 l 1117 263 q 1099 145 1117 199 q 1033 51 1081 92 l 854 -99 m 1103 263 l 1103 736 q 1084 852 1103 800 q 1018 942 1065 904 q 887 1000 971 979 q 672 1021 803 1021 q 458 1000 542 1021 q 326 942 374 979 q 260 852 279 904 q 240 736 240 800 l 240 263 q 260 147 240 199 q 326 57 279 94 q 458 -1 374 19 q 672 -21 542 -21 q 887 -1 803 -21 q 1018 57 971 19 q 1084 147 1065 94 q 1103 263 1103 199 m 669 107 q 500 131 561 107 q 415 197 439 154 q 390 294 390 239 l 390 704 q 415 803 390 761 q 500 868 439 844 q 669 892 561 892 q 840 868 779 892 q 926 803 901 844 q 951 704 951 761 l 951 294 q 926 197 951 239 q 840 131 901 154 q 669 107 779 107 m 669 121 q 832 142 774 121 q 914 203 890 164 q 938 294 938 243 l 938 704 q 914 796 938 757 q 832 856 890 835 q 669 878 774 878 q 508 856 567 878 q 427 796 450 835 q 404 704 404 757 l 404 294 q 427 203 404 243 q 508 142 450 164 q 669 121 567 121 m 556 313 l 556 686 q 576 732 556 714 q 672 750 597 750 q 769 732 749 750 q 789 686 789 714 l 789 313 q 769 266 789 285 q 672 247 749 247 q 576 266 597 247 q 556 313 556 285 m 569 313 q 575 288 569 299 q 596 271 581 278 l 596 535 q 590 559 596 549 q 569 575 585 569 l 569 313 z "},"Ò":{"ha":1163,"x_min":47,"x_max":1117,"o":"m 854 -99 q 719 -163 806 -140 q 493 -186 632 -186 q 269 -158 357 -186 q 133 -83 182 -131 q 66 26 85 -35 q 47 153 47 88 l 47 585 q 65 704 47 650 q 131 797 83 758 l 296 935 l 249 940 q 201 958 215 944 q 186 1004 186 972 l 186 1138 q 206 1188 186 1171 l 385 1339 q 428 1349 403 1350 l 913 1289 q 960 1271 946 1285 q 975 1225 975 1257 l 975 1092 q 956 1042 975 1058 l 915 1007 q 1038 945 994 985 q 1099 852 1082 906 q 1117 736 1117 799 l 1117 263 q 1099 145 1117 199 q 1033 51 1081 92 l 854 -99 m 1103 263 l 1103 736 q 1084 852 1103 800 q 1018 942 1065 904 q 887 1000 971 979 q 672 1021 803 1021 q 458 1000 542 1021 q 326 942 374 979 q 260 852 279 904 q 240 736 240 800 l 240 263 q 260 147 240 199 q 326 57 279 94 q 458 -1 374 19 q 672 -21 542 -21 q 887 -1 803 -21 q 1018 57 971 19 q 1084 147 1065 94 q 1103 263 1103 199 m 669 107 q 500 131 561 107 q 415 197 439 154 q 390 294 390 239 l 390 704 q 415 803 390 761 q 500 868 439 844 q 669 892 561 892 q 840 868 779 892 q 926 803 901 844 q 951 704 951 761 l 951 294 q 926 197 951 239 q 840 131 901 154 q 669 107 779 107 m 669 121 q 832 142 774 121 q 914 203 890 164 q 938 294 938 243 l 938 704 q 914 796 938 757 q 832 856 890 835 q 669 878 774 878 q 508 856 567 878 q 427 796 450 835 q 404 704 404 757 l 404 294 q 427 203 404 243 q 508 142 450 164 q 669 121 567 121 m 914 1046 q 961 1092 961 1040 l 961 1225 q 949 1262 961 1251 q 911 1275 938 1272 l 426 1335 q 379 1289 379 1340 l 379 1156 q 391 1119 379 1129 q 429 1106 403 1108 l 914 1046 m 556 313 l 556 686 q 576 732 556 714 q 672 750 597 750 q 769 732 749 750 q 789 686 789 714 l 789 313 q 769 266 789 285 q 672 247 749 247 q 576 266 597 247 q 556 313 556 285 m 569 313 q 575 288 569 299 q 596 271 581 278 l 596 535 q 590 559 596 549 q 569 575 585 569 l 569 313 m 504 1218 l 836 1176 l 836 1163 l 504 1204 l 504 1218 z "},"Ó":{"ha":1163,"x_min":47,"x_max":1117,"o":"m 854 -99 q 719 -163 806 -140 q 493 -186 632 -186 q 269 -158 357 -186 q 133 -83 182 -131 q 66 26 85 -35 q 47 153 47 88 l 47 585 q 65 704 47 650 q 131 797 83 758 l 231 881 q 186 940 186 883 l 186 1074 q 191 1104 186 1093 q 204 1122 196 1115 l 385 1274 q 428 1289 397 1286 l 913 1349 q 975 1289 975 1357 l 975 1156 q 956 1107 975 1119 l 854 1021 q 1017 963 960 1003 q 1095 865 1074 922 q 1117 736 1117 807 l 1117 263 q 1099 145 1117 199 q 1033 51 1081 92 l 854 -99 m 1103 263 l 1103 736 q 1084 852 1103 800 q 1018 942 1065 904 q 887 1000 971 979 q 672 1021 803 1021 q 458 1000 542 1021 q 326 942 374 979 q 260 852 279 904 q 240 736 240 800 l 240 263 q 260 147 240 199 q 326 57 279 94 q 458 -1 374 19 q 672 -21 542 -21 q 887 -1 803 -21 q 1018 57 971 19 q 1084 147 1065 94 q 1103 263 1103 199 m 669 107 q 500 131 561 107 q 415 197 439 154 q 390 294 390 239 l 390 704 q 415 803 390 761 q 500 868 439 844 q 669 892 561 892 q 840 868 779 892 q 926 803 901 844 q 951 704 951 761 l 951 294 q 926 197 951 239 q 840 131 901 154 q 669 107 779 107 m 669 121 q 832 142 774 121 q 914 203 890 164 q 938 294 938 243 l 938 704 q 914 796 938 757 q 832 856 890 835 q 669 878 774 878 q 508 856 567 878 q 427 796 450 835 q 404 704 404 757 l 404 294 q 427 203 404 243 q 508 142 450 164 q 669 121 567 121 m 911 1106 q 949 1119 938 1108 q 961 1156 961 1129 l 961 1289 q 914 1335 961 1340 l 429 1275 q 391 1262 403 1272 q 379 1225 379 1251 l 379 1092 q 426 1046 379 1040 l 911 1106 m 556 313 l 556 686 q 576 732 556 714 q 672 750 597 750 q 769 732 749 750 q 789 686 789 714 l 789 313 q 769 266 789 285 q 672 247 749 247 q 576 266 597 247 q 556 313 556 285 m 569 313 q 575 288 569 299 q 596 271 581 278 l 596 535 q 590 559 596 549 q 569 575 585 569 l 569 313 m 836 1218 l 836 1204 l 504 1163 l 504 1176 l 836 1218 z "},"Ô":{"ha":1163,"x_min":47,"x_max":1117,"o":"m 854 -99 q 719 -163 806 -140 q 493 -186 632 -186 q 269 -158 357 -186 q 133 -83 182 -131 q 66 26 85 -35 q 47 153 47 88 l 47 585 q 65 704 47 650 q 131 797 83 758 l 228 878 q 194 890 203 875 q 186 943 186 904 l 186 1056 q 191 1096 186 1082 q 206 1119 196 1110 l 388 1271 l 386 1269 q 432 1293 399 1282 l 608 1357 q 638 1367 622 1364 q 668 1371 654 1369 q 694 1369 682 1371 q 717 1363 707 1368 l 908 1293 q 963 1265 950 1278 q 975 1207 975 1251 l 975 1094 q 972 1059 975 1072 q 961 1039 968 1046 l 960 1038 l 921 1006 q 1041 942 999 982 q 1100 851 1083 903 q 1117 736 1117 799 l 1117 263 q 1099 145 1117 199 q 1033 51 1081 92 l 854 -99 m 1103 263 l 1103 736 q 1084 852 1103 800 q 1018 942 1065 904 q 887 1000 971 979 q 672 1021 803 1021 q 458 1000 542 1021 q 326 942 374 979 q 260 852 279 904 q 240 736 240 800 l 240 263 q 260 147 240 199 q 326 57 279 94 q 458 -1 374 19 q 672 -21 542 -21 q 887 -1 803 -21 q 1018 57 971 19 q 1084 147 1065 94 q 1103 263 1103 199 m 669 107 q 500 131 561 107 q 415 197 439 154 q 390 294 390 239 l 390 704 q 415 803 390 761 q 500 868 439 844 q 669 892 561 892 q 840 868 779 892 q 926 803 901 844 q 951 704 951 761 l 951 294 q 926 197 951 239 q 840 131 901 154 q 669 107 779 107 m 669 121 q 832 142 774 121 q 914 203 890 164 q 938 294 938 243 l 938 704 q 914 796 938 757 q 832 856 890 835 q 669 878 774 878 q 508 856 567 878 q 427 796 450 835 q 404 704 404 757 l 404 294 q 427 203 404 243 q 508 142 450 164 q 669 121 567 121 m 626 1107 q 713 1107 669 1118 l 903 1051 q 950 1049 939 1040 q 961 1094 961 1057 l 961 1207 q 950 1256 961 1244 q 903 1281 939 1267 l 713 1350 q 692 1356 703 1354 q 668 1357 681 1357 q 641 1353 656 1356 q 614 1344 626 1350 l 436 1281 q 391 1256 403 1267 q 379 1207 379 1244 l 379 1094 q 390 1049 379 1057 q 436 1051 401 1040 l 626 1107 m 556 313 l 556 686 q 576 732 556 714 q 672 750 597 750 q 769 732 749 750 q 789 686 789 714 l 789 313 q 769 266 789 285 q 672 247 749 247 q 576 266 597 247 q 556 313 556 285 m 569 313 q 575 288 569 299 q 596 271 581 278 l 596 535 q 590 559 596 549 q 569 575 585 569 l 569 313 m 835 1181 l 714 1219 q 694 1225 704 1222 q 669 1228 683 1228 q 646 1225 656 1228 q 625 1219 636 1222 l 504 1181 l 504 1196 l 619 1233 q 643 1239 632 1236 q 669 1242 654 1242 q 696 1239 685 1242 q 719 1233 707 1236 l 835 1196 l 835 1181 z "},"Õ":{"ha":1163,"x_min":47,"x_max":1117,"o":"m 854 -99 q 719 -163 806 -140 q 493 -186 632 -186 q 269 -158 357 -186 q 133 -83 182 -131 q 66 26 85 -35 q 47 153 47 88 l 47 585 q 65 704 47 650 q 131 797 83 758 l 238 886 q 185 939 185 878 l 185 1079 q 206 1131 185 1114 l 385 1281 q 422 1300 397 1290 l 424 1300 l 424 1301 q 497 1318 468 1314 q 557 1319 525 1322 q 644 1308 589 1317 l 646 1308 l 669 1306 l 700 1301 q 786 1291 757 1293 q 838 1294 815 1289 q 894 1310 860 1299 q 904 1313 901 1311 q 972 1263 972 1331 l 972 1122 q 967 1092 972 1104 q 951 1072 961 1081 l 883 1015 q 1027 954 976 994 q 1097 858 1078 914 q 1117 736 1117 803 l 1117 263 q 1099 145 1117 199 q 1033 51 1081 92 l 854 -99 m 1103 263 l 1103 736 q 1084 852 1103 800 q 1018 942 1065 904 q 887 1000 971 979 q 672 1021 803 1021 q 458 1000 542 1021 q 326 942 374 979 q 260 852 279 904 q 240 736 240 800 l 240 263 q 260 147 240 199 q 326 57 279 94 q 458 -1 374 19 q 672 -21 542 -21 q 887 -1 803 -21 q 1018 57 971 19 q 1084 147 1065 94 q 1103 263 1103 199 m 669 107 q 500 131 561 107 q 415 197 439 154 q 390 294 390 239 l 390 704 q 415 803 390 761 q 500 868 439 844 q 669 892 561 892 q 840 868 779 892 q 926 803 901 844 q 951 704 951 761 l 951 294 q 926 197 951 239 q 840 131 901 154 q 669 107 779 107 m 669 121 q 832 142 774 121 q 914 203 890 164 q 938 294 938 243 l 938 704 q 914 796 938 757 q 832 856 890 835 q 669 878 774 878 q 508 856 567 878 q 427 796 450 835 q 404 704 404 757 l 404 294 q 427 203 404 243 q 508 142 450 164 q 669 121 567 121 m 669 1061 l 692 1058 q 779 1047 747 1050 q 839 1049 811 1044 q 910 1065 867 1053 q 947 1085 933 1075 q 960 1122 960 1096 l 960 1263 q 910 1299 960 1314 q 900 1296 906 1297 q 841 1280 864 1285 q 788 1277 818 1275 q 700 1288 758 1279 l 669 1292 l 646 1294 l 646 1294 q 559 1306 590 1303 q 500 1304 528 1308 q 429 1288 472 1300 q 392 1267 406 1278 q 379 1231 379 1257 l 379 1090 q 429 1054 379 1040 q 492 1071 467 1065 q 547 1076 517 1076 q 631 1067 578 1075 l 669 1061 m 556 313 l 556 686 q 576 732 556 714 q 672 750 597 750 q 769 732 749 750 q 789 686 789 714 l 789 313 q 769 266 789 285 q 672 247 749 247 q 576 266 597 247 q 556 313 556 285 m 569 313 q 575 288 569 299 q 596 271 581 278 l 596 535 q 590 559 596 549 q 569 575 585 569 l 569 313 m 833 1154 q 774 1154 806 1151 q 689 1165 742 1157 l 667 1168 l 628 1174 q 554 1182 582 1181 q 503 1179 526 1183 l 503 1194 q 555 1196 526 1197 q 631 1188 583 1194 l 669 1182 l 692 1179 q 775 1168 744 1171 q 833 1168 806 1165 l 833 1154 z "},"Ö":{"ha":1163,"x_min":47,"x_max":1117,"o":"m 854 -99 q 719 -163 806 -140 q 493 -186 632 -186 q 269 -158 357 -186 q 133 -83 182 -131 q 66 26 85 -35 q 47 153 47 88 l 47 585 q 65 704 47 650 q 131 797 83 758 l 243 890 l 210 890 q 149 950 149 890 l 149 1118 q 153 1147 149 1136 q 167 1165 158 1158 l 346 1317 q 389 1329 361 1329 l 581 1329 q 640 1269 640 1329 l 640 1261 l 706 1317 q 747 1329 721 1329 l 939 1329 q 999 1269 999 1329 l 999 1101 q 981 1054 999 1069 l 922 1006 q 1041 942 999 982 q 1100 851 1083 903 q 1117 736 1117 799 l 1117 263 q 1099 145 1117 199 q 1033 51 1081 92 l 854 -99 m 1103 263 l 1103 736 q 1084 852 1103 800 q 1018 942 1065 904 q 887 1000 971 979 q 672 1021 803 1021 q 458 1000 542 1021 q 326 942 374 979 q 260 852 279 904 q 240 736 240 800 l 240 263 q 260 147 240 199 q 326 57 279 94 q 458 -1 374 19 q 672 -21 542 -21 q 887 -1 803 -21 q 1018 57 971 19 q 1084 147 1065 94 q 1103 263 1103 199 m 669 107 q 500 131 561 107 q 415 197 439 154 q 390 294 390 239 l 390 704 q 415 803 390 761 q 500 868 439 844 q 669 892 561 892 q 840 868 779 892 q 926 803 901 844 q 951 704 951 761 l 951 294 q 926 197 951 239 q 840 131 901 154 q 669 107 779 107 m 669 121 q 832 142 774 121 q 914 203 890 164 q 938 294 938 243 l 938 704 q 914 796 938 757 q 832 856 890 835 q 669 878 774 878 q 508 856 567 878 q 427 796 450 835 q 404 704 404 757 l 404 294 q 427 203 404 243 q 508 142 450 164 q 669 121 567 121 m 556 313 l 556 686 q 576 732 556 714 q 672 750 597 750 q 769 732 749 750 q 789 686 789 714 l 789 313 q 769 266 789 285 q 672 247 749 247 q 576 266 597 247 q 556 313 556 285 m 585 1056 q 631 1101 631 1056 l 631 1269 q 585 1315 631 1315 l 393 1315 q 346 1269 346 1315 l 346 1101 q 393 1056 346 1056 l 585 1056 m 943 1056 q 989 1101 989 1056 l 989 1269 q 943 1315 989 1315 l 751 1315 q 706 1269 706 1315 l 706 1101 q 751 1056 706 1056 l 943 1056 m 569 313 q 575 288 569 299 q 596 271 581 278 l 596 535 q 590 559 596 549 q 569 575 585 569 l 569 313 m 478 1153 l 478 1218 l 492 1218 l 492 1153 l 478 1153 m 836 1153 l 836 1218 l 850 1218 l 850 1153 l 836 1153 z "},"Ō":{"ha":1163,"x_min":47,"x_max":1117,"o":"m 854 -99 q 719 -163 806 -140 q 493 -186 632 -186 q 269 -158 357 -186 q 133 -83 182 -131 q 66 26 85 -35 q 47 153 47 88 l 47 585 q 65 704 47 650 q 131 797 83 758 l 243 890 q 186 954 186 893 l 186 1083 q 206 1135 186 1118 l 385 1286 q 429 1299 400 1299 l 911 1299 q 975 1235 975 1299 l 975 1106 q 956 1054 975 1071 l 903 1011 q 1034 949 988 989 q 1099 855 1081 908 q 1117 736 1117 801 l 1117 263 q 1099 145 1117 199 q 1033 51 1081 92 l 854 -99 m 1103 263 l 1103 736 q 1084 852 1103 800 q 1018 942 1065 904 q 887 1000 971 979 q 672 1021 803 1021 q 458 1000 542 1021 q 326 942 374 979 q 260 852 279 904 q 240 736 240 800 l 240 263 q 260 147 240 199 q 326 57 279 94 q 458 -1 374 19 q 672 -21 542 -21 q 887 -1 803 -21 q 1018 57 971 19 q 1084 147 1065 94 q 1103 263 1103 199 m 669 107 q 500 131 561 107 q 415 197 439 154 q 390 294 390 239 l 390 704 q 415 803 390 761 q 500 868 439 844 q 669 892 561 892 q 840 868 779 892 q 926 803 901 844 q 951 704 951 761 l 951 294 q 926 197 951 239 q 840 131 901 154 q 669 107 779 107 m 669 121 q 832 142 774 121 q 914 203 890 164 q 938 294 938 243 l 938 704 q 914 796 938 757 q 832 856 890 835 q 669 878 774 878 q 508 856 567 878 q 427 796 450 835 q 404 704 404 757 l 404 294 q 427 203 404 243 q 508 142 450 164 q 669 121 567 121 m 911 1056 q 961 1106 961 1056 l 961 1235 q 911 1285 961 1285 l 429 1285 q 379 1235 379 1285 l 379 1106 q 429 1056 379 1056 l 911 1056 m 556 313 l 556 686 q 576 732 556 714 q 672 750 597 750 q 769 732 749 750 q 789 686 789 714 l 789 313 q 769 266 789 285 q 672 247 749 247 q 576 266 597 247 q 556 313 556 285 m 569 313 q 575 288 569 299 q 596 271 581 278 l 596 535 q 590 559 596 549 q 569 575 585 569 l 569 313 m 836 1176 l 836 1163 l 504 1163 l 504 1176 l 836 1176 z "},"Ŏ":{"ha":1163,"x_min":47,"x_max":1117,"o":"m 854 -99 q 719 -163 806 -140 q 493 -186 632 -186 q 269 -158 357 -186 q 133 -83 182 -131 q 66 26 85 -35 q 47 153 47 88 l 47 585 q 65 704 47 650 q 131 797 83 758 l 276 918 q 197 992 218 946 q 176 1094 176 1038 l 176 1156 q 196 1207 176 1190 l 375 1358 q 419 1371 390 1371 l 553 1371 q 594 1359 582 1371 q 607 1314 607 1347 l 607 1285 q 632 1257 607 1263 l 757 1361 l 756 1360 q 796 1371 767 1371 l 922 1371 q 986 1307 986 1371 l 986 1246 q 973 1161 986 1200 q 925 1094 960 1122 l 840 1024 q 1011 966 951 1007 q 1094 867 1071 925 q 1117 736 1117 808 l 1117 263 q 1099 145 1117 199 q 1033 51 1081 92 l 854 -99 m 1103 263 l 1103 736 q 1084 852 1103 800 q 1018 942 1065 904 q 887 1000 971 979 q 672 1021 803 1021 q 458 1000 542 1021 q 326 942 374 979 q 260 852 279 904 q 240 736 240 800 l 240 263 q 260 147 240 199 q 326 57 279 94 q 458 -1 374 19 q 672 -21 542 -21 q 887 -1 803 -21 q 1018 57 971 19 q 1084 147 1065 94 q 1103 263 1103 199 m 669 107 q 500 131 561 107 q 415 197 439 154 q 390 294 390 239 l 390 704 q 415 803 390 761 q 500 868 439 844 q 669 892 561 892 q 840 868 779 892 q 926 803 901 844 q 951 704 951 761 l 951 294 q 926 197 951 239 q 840 131 901 154 q 669 107 779 107 m 669 121 q 832 142 774 121 q 914 203 890 164 q 938 294 938 243 l 938 704 q 914 796 938 757 q 832 856 890 835 q 669 878 774 878 q 508 856 567 878 q 427 796 450 835 q 404 704 404 757 l 404 294 q 427 203 404 243 q 508 142 450 164 q 669 121 567 121 m 972 1246 l 972 1307 q 922 1357 972 1357 l 796 1357 q 763 1348 772 1357 q 754 1314 754 1339 l 754 1285 q 740 1252 754 1265 q 672 1239 725 1239 q 607 1252 621 1239 q 593 1285 593 1265 l 593 1314 q 584 1348 593 1339 q 553 1357 575 1357 l 419 1357 q 369 1307 369 1357 l 369 1246 q 394 1142 369 1188 q 485 1072 419 1097 q 671 1047 550 1047 q 857 1072 792 1047 q 947 1142 922 1097 q 972 1246 972 1188 m 556 313 l 556 686 q 576 732 556 714 q 672 750 597 750 q 769 732 749 750 q 789 686 789 714 l 789 313 q 769 266 789 285 q 672 247 749 247 q 576 266 597 247 q 556 313 556 285 m 569 313 q 575 288 569 299 q 596 271 581 278 l 596 535 q 590 559 596 549 q 569 575 585 569 l 569 313 m 871 1260 l 871 1247 q 856 1195 871 1221 q 799 1153 842 1169 q 669 1136 756 1136 q 542 1153 583 1136 q 488 1195 500 1169 q 475 1247 475 1221 l 475 1260 l 489 1260 l 489 1247 q 503 1200 489 1222 q 556 1164 517 1178 q 669 1150 594 1150 q 785 1164 744 1150 q 842 1200 826 1178 q 857 1247 857 1222 l 857 1260 l 871 1260 z "},"Ő":{"ha":1163,"x_min":47,"x_max":1117,"o":"m 854 -99 q 719 -163 806 -140 q 493 -186 632 -186 q 269 -158 357 -186 q 133 -83 182 -131 q 66 26 85 -35 q 47 153 47 88 l 47 585 q 65 704 47 650 q 131 797 83 758 l 243 890 l 232 890 q 182 908 199 890 q 172 954 165 925 l 246 1242 q 255 1272 250 1260 q 269 1292 260 1283 l 450 1443 q 489 1454 464 1454 l 636 1454 q 687 1437 669 1454 q 696 1390 704 1419 l 682 1335 l 811 1443 q 850 1454 825 1454 l 997 1454 q 1048 1437 1031 1454 q 1057 1390 1065 1419 l 983 1103 q 960 1053 975 1068 l 908 1010 q 1036 947 990 988 q 1099 853 1082 907 q 1117 736 1117 800 l 1117 263 q 1099 145 1117 199 q 1033 51 1081 92 l 854 -99 m 1103 263 l 1103 736 q 1084 852 1103 800 q 1018 942 1065 904 q 887 1000 971 979 q 672 1021 803 1021 q 458 1000 542 1021 q 326 942 374 979 q 260 852 279 904 q 240 736 240 800 l 240 263 q 260 147 240 199 q 326 57 279 94 q 458 -1 374 19 q 672 -21 542 -21 q 887 -1 803 -21 q 1018 57 971 19 q 1084 147 1065 94 q 1103 263 1103 199 m 669 107 q 500 131 561 107 q 415 197 439 154 q 390 294 390 239 l 390 704 q 415 803 390 761 q 500 868 439 844 q 669 892 561 892 q 840 868 779 892 q 926 803 901 844 q 951 704 951 761 l 951 294 q 926 197 951 239 q 840 131 901 154 q 669 107 779 107 m 669 121 q 832 142 774 121 q 914 203 890 164 q 938 294 938 243 l 938 704 q 914 796 938 757 q 832 856 890 835 q 669 878 774 878 q 508 856 567 878 q 427 796 450 835 q 404 704 404 757 l 404 294 q 427 203 404 243 q 508 142 450 164 q 669 121 567 121 m 556 313 l 556 686 q 576 732 556 714 q 672 750 597 750 q 769 732 749 750 q 789 686 789 714 l 789 313 q 769 266 789 285 q 672 247 749 247 q 576 266 597 247 q 556 313 556 285 m 365 1103 q 374 1068 360 1081 q 411 1056 388 1056 l 558 1056 q 594 1068 585 1056 q 608 1106 603 1081 l 682 1393 q 674 1428 689 1417 q 636 1440 660 1440 l 489 1440 q 454 1428 463 1440 q 439 1390 446 1415 l 365 1103 m 726 1103 q 735 1068 721 1081 q 772 1056 749 1056 l 919 1056 q 955 1068 946 1056 q 969 1106 964 1081 l 1043 1393 q 1035 1428 1050 1417 q 997 1440 1021 1440 l 850 1440 q 815 1428 824 1440 q 800 1390 807 1415 l 726 1103 m 569 313 q 575 288 569 299 q 596 271 581 278 l 596 535 q 590 559 596 549 q 569 575 585 569 l 569 313 m 499 1181 l 533 1315 l 549 1315 l 514 1181 l 499 1181 m 860 1181 l 894 1315 l 910 1315 l 875 1181 l 860 1181 z "},"P":{"ha":1086,"x_min":63,"x_max":1072,"o":"m 342 -165 l 126 -165 q 63 -101 63 -165 l 63 799 q 82 850 63 833 l 261 1001 q 306 1014 276 1014 l 731 1014 q 938 978 864 1014 q 1042 878 1013 942 q 1072 729 1072 814 l 1072 551 q 1053 430 1072 485 q 989 336 1035 375 l 808 186 q 719 138 774 157 q 585 117 664 119 l 585 50 q 565 -1 585 15 l 385 -151 q 342 -165 371 -165 m 521 0 q 571 50 571 0 l 571 281 l 731 281 q 928 315 857 281 q 1029 410 1000 349 q 1058 551 1058 471 l 1058 729 q 1029 871 1058 810 q 928 966 1000 932 q 731 1000 857 1000 l 306 1000 q 256 950 256 1000 l 256 50 q 306 0 256 0 l 521 0 m 425 399 l 425 125 l 411 125 l 411 875 l 711 875 q 844 850 799 875 q 904 783 889 825 q 919 686 919 740 l 919 583 q 904 488 919 529 q 844 422 889 446 q 711 399 799 399 l 425 399 m 711 413 q 835 434 793 413 q 891 494 876 456 q 906 583 906 533 l 906 686 q 891 776 906 736 q 835 838 876 815 q 711 861 793 861 l 425 861 l 425 413 l 711 413 m 568 740 l 693 740 q 746 720 733 740 q 758 672 758 700 l 758 599 q 746 551 758 572 q 693 531 733 531 l 568 531 l 568 740 z "},"Q":{"ha":1163,"x_min":47,"x_max":1117,"o":"m 599 -290 l 385 -290 q 321 -226 321 -290 l 321 -162 q 153 -94 213 -144 q 70 25 93 -43 q 47 165 47 93 l 47 585 q 65 704 47 650 q 131 797 83 758 l 311 947 q 447 1012 360 989 q 672 1035 533 1035 q 896 1013 808 1035 q 1031 951 983 992 q 1098 856 1079 911 q 1117 736 1117 801 l 1117 275 q 1099 158 1117 211 q 1033 64 1081 104 l 854 -86 q 847 -92 850 -89 q 839 -97 843 -94 q 822 -126 835 -115 l 642 -276 q 599 -290 628 -290 m 778 -125 q 828 -75 828 -125 l 828 1 q 997 55 938 17 q 1079 149 1056 93 q 1103 275 1103 206 l 1103 736 q 1084 852 1103 800 q 1018 942 1065 904 q 887 1000 971 979 q 672 1021 803 1021 q 458 1000 542 1021 q 326 942 374 979 q 260 852 279 904 q 240 736 240 800 l 240 275 q 264 149 240 206 q 347 56 288 93 q 514 1 407 18 l 514 -75 q 564 -125 514 -125 l 778 -125 m 663 107 q 497 132 557 108 q 414 197 438 156 q 390 294 390 239 l 390 704 q 415 803 390 761 q 500 868 439 844 q 669 892 561 892 q 840 868 779 892 q 926 803 901 844 q 951 704 951 761 l 951 294 q 927 197 951 239 q 842 132 903 156 q 676 107 782 108 l 676 0 l 663 0 l 663 107 m 669 121 q 832 142 774 121 q 914 203 890 164 q 938 294 938 243 l 938 704 q 914 796 938 757 q 832 856 890 835 q 669 878 774 878 q 508 856 567 878 q 427 796 450 835 q 404 704 404 757 l 404 294 q 427 203 404 243 q 508 142 450 164 q 669 121 567 121 m 556 306 l 556 685 q 576 731 556 713 q 672 749 597 749 q 769 731 749 749 q 789 685 789 713 l 789 306 q 769 259 789 278 q 672 240 749 240 q 576 259 597 240 q 556 306 556 278 m 569 306 q 575 281 569 292 q 596 264 581 271 l 596 533 q 590 558 596 547 q 569 574 585 568 l 569 306 z "},"R":{"ha":1171,"x_min":63,"x_max":1146,"o":"m 564 -1 l 383 -151 q 340 -165 369 -165 l 126 -165 q 63 -101 63 -165 l 63 799 q 82 850 63 833 l 261 1001 q 306 1014 276 1014 l 768 1014 q 942 983 879 1014 q 1030 896 1004 951 q 1056 768 1056 840 l 1056 704 q 1043 615 1056 653 q 1003 553 1031 576 l 1001 553 q 1106 481 1067 535 q 1146 344 1146 426 l 1146 50 q 1126 -1 1146 15 l 946 -151 q 903 -165 932 -165 l 688 -165 q 624 -101 624 -165 l 624 111 q 615 146 624 135 q 585 157 607 157 l 583 157 l 583 50 q 564 -1 583 15 m 519 0 q 569 50 569 0 l 569 322 l 764 322 q 805 308 793 322 q 817 263 817 294 l 817 50 q 867 0 817 0 l 1082 0 q 1132 50 1132 0 l 1132 344 q 1086 485 1132 432 q 964 546 1040 538 q 1025 606 1008 565 q 1042 704 1042 646 l 1042 768 q 1017 890 1042 838 q 932 971 992 942 q 768 1000 872 1000 l 306 1000 q 256 950 256 1000 l 256 50 q 306 0 256 0 l 519 0 m 967 125 l 967 311 q 813 447 967 447 l 419 447 l 419 125 l 406 125 l 406 875 l 722 875 q 842 831 804 875 q 881 717 881 786 l 881 621 q 864 517 881 558 q 797 460 847 475 l 813 460 q 981 311 981 460 l 981 125 l 967 125 m 419 460 l 722 460 q 838 501 808 460 q 867 619 867 543 l 867 717 q 831 822 867 782 q 722 861 796 861 l 419 861 l 419 460 m 569 750 l 674 750 q 722 731 710 750 q 735 685 735 713 l 735 638 q 722 591 735 610 q 674 572 710 572 l 569 572 l 569 750 z "},"Ŕ":{"ha":1171,"x_min":63,"x_max":1146,"o":"m 564 -1 l 383 -151 q 340 -165 369 -165 l 126 -165 q 63 -101 63 -165 l 63 799 q 82 850 63 833 l 176 931 q 176 940 176 935 l 176 1074 q 181 1104 176 1093 q 194 1122 186 1115 l 375 1274 q 418 1289 388 1286 l 903 1349 q 965 1289 965 1357 l 965 1156 q 946 1107 965 1119 l 832 1011 q 966 969 917 1001 q 1035 885 1015 936 q 1056 768 1056 833 l 1056 704 q 1043 615 1056 653 q 1003 553 1031 576 l 1001 553 q 1106 481 1067 535 q 1146 344 1146 426 l 1146 50 q 1126 -1 1146 15 l 946 -151 q 903 -165 932 -165 l 688 -165 q 624 -101 624 -165 l 624 111 q 615 146 624 135 q 585 157 607 157 l 583 157 l 583 50 q 564 -1 583 15 m 519 0 q 569 50 569 0 l 569 322 l 764 322 q 805 308 793 322 q 817 263 817 294 l 817 50 q 867 0 817 0 l 1082 0 q 1132 50 1132 0 l 1132 344 q 1086 485 1132 432 q 964 546 1040 538 q 1025 606 1008 565 q 1042 704 1042 646 l 1042 768 q 1017 890 1042 838 q 932 971 992 942 q 768 1000 872 1000 l 306 1000 q 256 950 256 1000 l 256 50 q 306 0 256 0 l 519 0 m 967 125 l 967 311 q 813 447 967 447 l 419 447 l 419 125 l 406 125 l 406 875 l 722 875 q 842 831 804 875 q 881 717 881 786 l 881 621 q 864 517 881 558 q 797 460 847 475 l 813 460 q 981 311 981 460 l 981 125 l 967 125 m 419 460 l 722 460 q 838 501 808 460 q 867 619 867 543 l 867 717 q 831 822 867 782 q 722 861 796 861 l 419 861 l 419 460 m 901 1106 q 940 1119 928 1108 q 951 1156 951 1129 l 951 1289 q 904 1335 951 1340 l 419 1275 q 381 1262 393 1272 q 369 1225 369 1251 l 369 1092 q 417 1046 369 1040 l 901 1106 m 569 750 l 674 750 q 722 731 710 750 q 735 685 735 713 l 735 638 q 722 591 735 610 q 674 572 710 572 l 569 572 l 569 750 m 826 1218 l 826 1204 l 494 1163 l 494 1176 l 826 1218 z "},"Ŗ":{"ha":1171,"x_min":63,"x_max":1146,"o":"m 564 -1 l 383 -151 q 340 -165 369 -165 l 126 -165 q 63 -101 63 -165 l 63 799 q 82 850 63 833 l 261 1001 q 306 1014 276 1014 l 768 1014 q 942 983 879 1014 q 1030 896 1004 951 q 1056 768 1056 840 l 1056 704 q 1043 615 1056 653 q 1003 553 1031 576 l 1001 553 q 1106 481 1067 535 q 1146 344 1146 426 l 1146 50 q 1126 -1 1146 15 l 946 -151 q 903 -165 932 -165 l 864 -165 l 864 -325 q 848 -415 864 -376 q 804 -476 832 -453 l 625 -628 q 497 -668 576 -668 l 406 -668 q 350 -611 350 -668 l 350 -564 q 367 -519 350 -529 l 408 -485 l 400 -485 q 349 -470 364 -485 q 335 -417 335 -456 l 335 -265 q 353 -208 335 -225 l 533 -58 l 532 -60 q 579 -46 546 -46 l 624 -46 l 624 111 q 615 146 624 135 q 585 157 607 157 l 583 157 l 583 50 q 564 -1 583 15 m 519 0 q 569 50 569 0 l 569 322 l 764 322 q 805 308 793 322 q 817 263 817 294 l 817 50 q 867 0 817 0 l 1082 0 q 1132 50 1132 0 l 1132 344 q 1086 485 1132 432 q 964 546 1040 538 q 1025 606 1008 565 q 1042 704 1042 646 l 1042 768 q 1017 890 1042 838 q 932 971 992 942 q 768 1000 872 1000 l 306 1000 q 256 950 256 1000 l 256 50 q 306 0 256 0 l 519 0 m 967 125 l 967 311 q 813 447 967 447 l 419 447 l 419 125 l 406 125 l 406 875 l 722 875 q 842 831 804 875 q 881 717 881 786 l 881 621 q 864 517 881 558 q 797 460 847 475 l 813 460 q 981 311 981 460 l 981 125 l 967 125 m 419 460 l 722 460 q 838 501 808 460 q 867 619 867 543 l 867 717 q 831 822 867 782 q 722 861 796 861 l 419 861 l 419 460 m 676 -503 q 803 -458 756 -503 q 850 -325 850 -414 l 850 -114 q 839 -71 850 -82 q 799 -60 828 -60 l 579 -60 q 539 -71 550 -60 q 528 -114 528 -82 l 528 -265 q 539 -308 528 -296 q 579 -319 550 -319 l 699 -319 l 699 -337 q 667 -371 699 -371 l 585 -371 q 543 -412 543 -371 l 543 -460 q 585 -503 543 -503 l 676 -503 m 569 750 l 674 750 q 722 731 710 750 q 735 685 735 713 l 735 638 q 722 591 735 610 q 674 572 710 572 l 569 572 l 569 750 m 771 -183 l 771 -318 q 742 -410 771 -382 q 656 -437 713 -437 l 607 -437 l 607 -424 l 656 -424 q 731 -399 706 -424 q 757 -318 757 -374 l 757 -197 l 607 -197 l 607 -183 l 771 -183 z "},"Ř":{"ha":1171,"x_min":63,"x_max":1146,"o":"m 564 -1 l 383 -151 q 340 -165 369 -165 l 126 -165 q 63 -101 63 -165 l 63 799 q 82 850 63 833 l 225 971 q 197 995 204 981 q 190 1043 190 1010 l 190 1156 q 206 1213 190 1201 l 385 1364 q 406 1371 392 1371 q 446 1364 421 1371 l 636 1308 q 714 1308 675 1297 l 904 1364 q 965 1368 950 1379 q 979 1307 979 1357 l 979 1194 q 974 1154 979 1168 q 957 1131 968 1140 l 817 1013 q 960 973 908 1006 q 1034 888 1013 940 q 1056 768 1056 835 l 1056 704 q 1043 615 1056 653 q 1003 553 1031 576 l 1001 553 q 1106 481 1067 535 q 1146 344 1146 426 l 1146 50 q 1126 -1 1146 15 l 946 -151 q 903 -165 932 -165 l 688 -165 q 624 -101 624 -165 l 624 111 q 615 146 624 135 q 585 157 607 157 l 583 157 l 583 50 q 564 -1 583 15 m 519 0 q 569 50 569 0 l 569 322 l 764 322 q 805 308 793 322 q 817 263 817 294 l 817 50 q 867 0 817 0 l 1082 0 q 1132 50 1132 0 l 1132 344 q 1086 485 1132 432 q 964 546 1040 538 q 1025 606 1008 565 q 1042 704 1042 646 l 1042 768 q 1017 890 1042 838 q 932 971 992 942 q 768 1000 872 1000 l 306 1000 q 256 950 256 1000 l 256 50 q 306 0 256 0 l 519 0 m 967 125 l 967 311 q 813 447 967 447 l 419 447 l 419 125 l 406 125 l 406 875 l 722 875 q 842 831 804 875 q 881 717 881 786 l 881 621 q 864 517 881 558 q 797 460 847 475 l 813 460 q 981 311 981 460 l 981 125 l 967 125 m 419 460 l 722 460 q 838 501 808 460 q 867 619 867 543 l 867 717 q 831 822 867 782 q 722 861 796 861 l 419 861 l 419 460 m 718 1294 q 632 1294 675 1283 l 442 1350 q 394 1353 406 1361 q 383 1307 383 1344 l 383 1194 q 395 1146 383 1157 q 442 1121 407 1135 l 632 1051 q 653 1046 643 1047 q 676 1044 664 1044 q 703 1049 689 1046 q 731 1057 718 1051 l 908 1121 q 953 1146 942 1135 q 965 1194 965 1157 l 965 1307 q 955 1353 965 1344 q 908 1350 944 1361 l 718 1294 m 569 750 l 674 750 q 722 731 710 750 q 735 685 735 713 l 735 638 q 722 591 735 610 q 674 572 710 572 l 569 572 l 569 750 m 508 1221 l 629 1182 q 650 1176 640 1179 q 674 1174 660 1174 q 698 1176 688 1174 q 718 1182 708 1179 l 839 1221 l 839 1206 l 724 1168 q 700 1163 711 1165 q 674 1160 689 1160 q 647 1163 658 1160 q 624 1168 636 1165 l 508 1206 l 508 1221 z "},"S":{"ha":1042,"x_min":38,"x_max":1021,"o":"m 101 -165 q 38 -101 38 -165 l 38 61 q 57 113 38 96 l 196 229 q 80 305 122 253 q 38 458 38 357 l 38 604 q 118 797 38 729 l 299 949 q 518 1014 376 1014 l 907 1014 q 971 950 971 1014 l 971 785 q 951 733 971 750 l 826 629 q 968 556 915 610 q 1021 390 1021 503 l 1021 244 q 939 51 1021 118 l 760 -99 q 540 -165 681 -165 l 101 -165 m 719 0 q 931 63 854 0 q 1007 244 1007 126 l 1007 390 q 980 515 1007 468 q 904 587 953 563 q 790 621 856 611 l 583 649 q 546 693 546 653 q 583 735 546 735 l 907 735 q 957 785 957 735 l 957 950 q 907 1000 957 1000 l 518 1000 q 307 938 383 1000 q 231 756 231 875 l 231 610 q 290 444 231 493 q 446 379 349 394 l 654 350 q 681 338 672 349 q 690 303 690 326 q 681 274 690 286 q 654 263 672 263 l 281 263 q 231 213 231 263 l 231 50 q 281 0 231 0 l 719 0 m 832 861 l 524 861 q 431 829 465 861 q 396 749 396 797 l 396 635 q 415 567 396 586 q 467 542 435 549 l 760 482 q 828 447 801 474 q 856 346 856 419 l 856 265 q 814 165 856 204 q 701 125 772 125 l 356 125 l 356 139 l 701 139 q 804 174 767 139 q 842 265 842 210 l 842 346 q 819 435 842 411 q 757 468 796 460 l 464 528 q 405 556 428 535 q 382 635 382 578 l 382 749 q 421 840 382 804 q 524 875 460 875 l 832 875 l 832 861 z "},"Ś":{"ha":1042,"x_min":38,"x_max":1021,"o":"m 101 -165 q 38 -101 38 -165 l 38 61 q 57 113 38 96 l 196 229 q 80 305 122 253 q 38 458 38 357 l 38 604 q 118 797 38 729 l 219 883 l 203 881 q 140 940 140 872 l 140 1074 q 145 1104 140 1093 q 158 1122 150 1115 l 339 1274 q 382 1289 351 1286 l 867 1349 q 929 1289 929 1357 l 929 1156 q 910 1107 929 1119 l 800 1014 l 907 1014 q 971 950 971 1014 l 971 785 q 951 733 971 750 l 826 629 q 968 556 915 610 q 1021 390 1021 503 l 1021 244 q 939 51 1021 118 l 760 -99 q 540 -165 681 -165 l 101 -165 m 719 0 q 931 63 854 0 q 1007 244 1007 126 l 1007 390 q 980 515 1007 468 q 904 587 953 563 q 790 621 856 611 l 583 649 q 546 693 546 653 q 583 735 546 735 l 907 735 q 957 785 957 735 l 957 950 q 907 1000 957 1000 l 518 1000 q 307 938 383 1000 q 231 756 231 875 l 231 610 q 290 444 231 493 q 446 379 349 394 l 654 350 q 681 338 672 349 q 690 303 690 326 q 681 274 690 286 q 654 263 672 263 l 281 263 q 231 213 231 263 l 231 50 q 281 0 231 0 l 719 0 m 865 1106 q 903 1119 892 1108 q 915 1156 915 1129 l 915 1289 q 868 1335 915 1340 l 383 1275 q 345 1262 357 1272 q 333 1225 333 1251 l 333 1092 q 381 1046 333 1040 l 865 1106 m 832 861 l 524 861 q 431 829 465 861 q 396 749 396 797 l 396 635 q 415 567 396 586 q 467 542 435 549 l 760 482 q 828 447 801 474 q 856 346 856 419 l 856 265 q 814 165 856 204 q 701 125 772 125 l 356 125 l 356 139 l 701 139 q 804 174 767 139 q 842 265 842 210 l 842 346 q 819 435 842 411 q 757 468 796 460 l 464 528 q 405 556 428 535 q 382 635 382 578 l 382 749 q 421 840 382 804 q 524 875 460 875 l 832 875 l 832 861 m 790 1218 l 790 1204 l 458 1163 l 458 1176 l 790 1218 z "},"Ŝ":{"ha":1042,"x_min":38,"x_max":1021,"o":"m 101 -165 q 38 -101 38 -165 l 38 61 q 57 113 38 96 l 196 229 q 80 305 122 253 q 38 458 38 357 l 38 604 q 118 797 38 729 l 236 896 l 201 886 q 141 883 156 872 q 126 943 126 893 l 126 1056 q 131 1096 126 1082 q 146 1119 136 1110 l 328 1271 l 326 1269 q 372 1293 339 1282 l 549 1357 q 578 1367 563 1364 q 608 1371 594 1369 q 635 1369 622 1371 q 657 1363 647 1368 l 849 1293 q 903 1265 890 1278 q 915 1207 915 1251 l 915 1094 q 912 1059 915 1072 q 901 1039 908 1046 l 900 1038 l 872 1014 l 907 1014 q 971 950 971 1014 l 971 785 q 951 733 971 750 l 826 629 q 968 556 915 610 q 1021 390 1021 503 l 1021 244 q 939 51 1021 118 l 760 -99 q 540 -165 681 -165 l 101 -165 m 719 0 q 931 63 854 0 q 1007 244 1007 126 l 1007 390 q 980 515 1007 468 q 904 587 953 563 q 790 621 856 611 l 583 649 q 546 693 546 653 q 583 735 546 735 l 907 735 q 957 785 957 735 l 957 950 q 907 1000 957 1000 l 518 1000 q 307 938 383 1000 q 231 756 231 875 l 231 610 q 290 444 231 493 q 446 379 349 394 l 654 350 q 681 338 672 349 q 690 303 690 326 q 681 274 690 286 q 654 263 672 263 l 281 263 q 231 213 231 263 l 231 50 q 281 0 231 0 l 719 0 m 567 1107 q 653 1107 610 1118 l 843 1051 q 890 1049 879 1040 q 901 1094 901 1057 l 901 1207 q 890 1256 901 1244 q 843 1281 879 1267 l 653 1350 q 632 1356 643 1354 q 608 1357 621 1357 q 581 1353 596 1356 q 554 1344 567 1350 l 376 1281 q 331 1256 343 1267 q 319 1207 319 1244 l 319 1094 q 331 1049 319 1057 q 376 1051 342 1040 l 567 1107 m 832 861 l 524 861 q 431 829 465 861 q 396 749 396 797 l 396 635 q 415 567 396 586 q 467 542 435 549 l 760 482 q 828 447 801 474 q 856 346 856 419 l 856 265 q 814 165 856 204 q 701 125 772 125 l 356 125 l 356 139 l 701 139 q 804 174 767 139 q 842 265 842 210 l 842 346 q 819 435 842 411 q 757 468 796 460 l 464 528 q 405 556 428 535 q 382 635 382 578 l 382 749 q 421 840 382 804 q 524 875 460 875 l 832 875 l 832 861 m 775 1181 l 654 1219 q 634 1225 644 1222 q 610 1228 624 1228 q 586 1225 596 1228 q 565 1219 576 1222 l 444 1181 l 444 1196 l 560 1233 q 583 1239 572 1236 q 610 1242 594 1242 q 636 1239 625 1242 q 660 1233 647 1236 l 775 1196 l 775 1181 z "},"Ş":{"ha":1042,"x_min":38,"x_max":1021,"o":"m 101 -165 q 38 -101 38 -165 l 38 61 q 57 113 38 96 l 196 229 q 80 305 122 253 q 38 458 38 357 l 38 604 q 118 797 38 729 l 299 949 q 518 1014 376 1014 l 907 1014 q 971 950 971 1014 l 971 785 q 951 733 971 750 l 826 629 q 968 556 915 610 q 1021 390 1021 503 l 1021 244 q 939 51 1021 118 l 760 -99 q 711 -131 738 -117 l 708 -137 q 686 -174 701 -162 l 507 -324 q 453 -340 489 -340 l 278 -340 q 221 -319 231 -340 q 222 -267 211 -299 l 260 -165 l 101 -165 m 631 -175 q 694 -133 681 -175 l 742 0 q 937 68 867 6 q 1007 244 1007 131 l 1007 390 q 980 515 1007 468 q 904 587 953 563 q 790 621 856 611 l 583 649 q 546 693 546 653 q 583 735 546 735 l 907 735 q 957 785 957 735 l 957 950 q 907 1000 957 1000 l 518 1000 q 307 938 383 1000 q 231 756 231 875 l 231 610 q 290 444 231 493 q 446 379 349 394 l 654 350 q 681 338 672 349 q 690 303 690 326 q 681 274 690 286 q 654 263 672 263 l 281 263 q 231 213 231 263 l 231 50 q 281 0 231 0 l 458 0 l 414 -119 q 413 -160 404 -144 q 456 -175 421 -175 l 631 -175 m 832 861 l 524 861 q 431 829 465 861 q 396 749 396 797 l 396 635 q 415 567 396 586 q 467 542 435 549 l 760 482 q 828 447 801 474 q 856 346 856 419 l 856 265 q 814 165 856 204 q 701 125 772 125 l 653 125 l 589 -50 l 575 -50 l 638 125 l 356 125 l 356 139 l 701 139 q 804 174 767 139 q 842 265 842 210 l 842 346 q 819 435 842 411 q 757 468 796 460 l 464 528 q 405 556 428 535 q 382 635 382 578 l 382 749 q 421 840 382 804 q 524 875 460 875 l 832 875 l 832 861 z "},"Š":{"ha":1042,"x_min":38,"x_max":1021,"o":"m 101 -165 q 38 -101 38 -165 l 38 61 q 57 113 38 96 l 196 229 q 80 305 122 253 q 38 458 38 357 l 38 604 q 118 797 38 729 l 278 931 l 207 957 q 153 986 165 972 q 140 1043 140 1000 l 140 1156 q 156 1213 140 1201 l 335 1364 q 356 1371 342 1371 q 396 1364 371 1371 l 586 1308 q 664 1308 625 1297 l 854 1364 q 915 1368 900 1379 q 929 1307 929 1357 l 929 1194 q 924 1154 929 1168 q 907 1131 918 1140 l 769 1014 l 907 1014 q 971 950 971 1014 l 971 785 q 951 733 971 750 l 826 629 q 968 556 915 610 q 1021 390 1021 503 l 1021 244 q 939 51 1021 118 l 760 -99 q 540 -165 681 -165 l 101 -165 m 719 0 q 931 63 854 0 q 1007 244 1007 126 l 1007 390 q 980 515 1007 468 q 904 587 953 563 q 790 621 856 611 l 583 649 q 546 693 546 653 q 583 735 546 735 l 907 735 q 957 785 957 735 l 957 950 q 907 1000 957 1000 l 518 1000 q 307 938 383 1000 q 231 756 231 875 l 231 610 q 290 444 231 493 q 446 379 349 394 l 654 350 q 681 338 672 349 q 690 303 690 326 q 681 274 690 286 q 654 263 672 263 l 281 263 q 231 213 231 263 l 231 50 q 281 0 231 0 l 719 0 m 668 1294 q 582 1294 625 1283 l 392 1350 q 344 1353 356 1361 q 333 1307 333 1344 l 333 1194 q 345 1146 333 1157 q 392 1121 357 1135 l 582 1051 q 603 1046 593 1047 q 626 1044 614 1044 q 653 1049 639 1046 q 681 1057 668 1051 l 858 1121 q 903 1146 892 1135 q 915 1194 915 1157 l 915 1307 q 905 1353 915 1344 q 858 1350 894 1361 l 668 1294 m 832 861 l 524 861 q 431 829 465 861 q 396 749 396 797 l 396 635 q 415 567 396 586 q 467 542 435 549 l 760 482 q 828 447 801 474 q 856 346 856 419 l 856 265 q 814 165 856 204 q 701 125 772 125 l 356 125 l 356 139 l 701 139 q 804 174 767 139 q 842 265 842 210 l 842 346 q 819 435 842 411 q 757 468 796 460 l 464 528 q 405 556 428 535 q 382 635 382 578 l 382 749 q 421 840 382 804 q 524 875 460 875 l 832 875 l 832 861 m 458 1221 l 579 1182 q 600 1176 590 1179 q 624 1174 610 1174 q 648 1176 638 1174 q 668 1182 658 1179 l 789 1221 l 789 1206 l 674 1168 q 650 1163 661 1165 q 624 1160 639 1160 q 597 1163 608 1160 q 574 1168 586 1165 l 458 1206 l 458 1221 z "},"Ș":{"ha":1042,"x_min":38,"x_max":1021,"o":"m 101 -165 q 38 -101 38 -165 l 38 61 q 57 113 38 96 l 196 229 q 80 305 122 253 q 38 458 38 357 l 38 604 q 118 797 38 729 l 299 949 q 518 1014 376 1014 l 907 1014 q 971 950 971 1014 l 971 785 q 951 733 971 750 l 826 629 q 968 556 915 610 q 1021 390 1021 503 l 1021 244 q 939 51 1021 118 l 793 -71 q 800 -114 800 -86 l 800 -325 q 784 -415 800 -376 q 740 -476 768 -453 l 561 -628 q 433 -668 513 -668 l 342 -668 q 286 -611 286 -668 l 286 -564 q 303 -519 286 -529 l 344 -485 l 336 -485 q 285 -470 300 -485 q 271 -417 271 -456 l 271 -265 q 289 -208 271 -225 l 340 -165 l 101 -165 m 719 0 q 931 63 854 0 q 1007 244 1007 126 l 1007 390 q 980 515 1007 468 q 904 587 953 563 q 790 621 856 611 l 583 649 q 546 693 546 653 q 583 735 546 735 l 907 735 q 957 785 957 735 l 957 950 q 907 1000 957 1000 l 518 1000 q 307 938 383 1000 q 231 756 231 875 l 231 610 q 290 444 231 493 q 446 379 349 394 l 654 350 q 681 338 672 349 q 690 303 690 326 q 681 274 690 286 q 654 263 672 263 l 281 263 q 231 213 231 263 l 231 50 q 281 0 231 0 l 719 0 m 613 -503 q 739 -458 692 -503 q 786 -325 786 -414 l 786 -114 q 775 -71 786 -82 q 735 -60 764 -60 l 515 -60 q 475 -71 486 -60 q 464 -114 464 -82 l 464 -265 q 475 -308 464 -296 q 515 -319 486 -319 l 635 -319 l 635 -337 q 603 -371 635 -371 l 521 -371 q 479 -412 479 -371 l 479 -460 q 521 -503 479 -503 l 613 -503 m 832 861 l 524 861 q 431 829 465 861 q 396 749 396 797 l 396 635 q 415 567 396 586 q 467 542 435 549 l 760 482 q 828 447 801 474 q 856 346 856 419 l 856 265 q 814 165 856 204 q 701 125 772 125 l 356 125 l 356 139 l 701 139 q 804 174 767 139 q 842 265 842 210 l 842 346 q 819 435 842 411 q 757 468 796 460 l 464 528 q 405 556 428 535 q 382 635 382 578 l 382 749 q 421 840 382 804 q 524 875 460 875 l 832 875 l 832 861 m 707 -183 l 707 -318 q 678 -410 707 -382 q 592 -437 649 -437 l 543 -437 l 543 -424 l 592 -424 q 667 -399 642 -424 q 693 -318 693 -374 l 693 -197 l 543 -197 l 543 -183 l 707 -183 z "},"T":{"ha":1050,"x_min":6,"x_max":1046,"o":"m 549 -165 l 324 -165 q 260 -101 260 -165 l 260 567 l 69 567 q 6 631 6 567 l 6 799 q 25 850 6 833 l 204 1001 q 249 1014 219 1014 l 982 1014 q 1046 950 1046 1014 l 1046 782 q 1026 731 1046 747 l 846 581 q 803 567 832 567 l 792 567 l 792 50 q 772 -1 792 15 l 592 -151 q 549 -165 578 -165 m 728 0 q 778 50 778 0 l 778 732 l 982 732 q 1032 782 1032 732 l 1032 950 q 982 1000 1032 1000 l 249 1000 q 199 950 199 1000 l 199 782 q 249 732 199 732 l 453 732 l 453 50 q 503 0 453 0 l 728 0 m 608 125 l 608 861 l 324 861 l 324 875 l 907 875 l 907 861 l 622 861 l 622 125 l 608 125 z "},"Ţ":{"ha":1050,"x_min":6,"x_max":1046,"o":"m 424 -668 l 332 -668 q 276 -611 276 -668 l 276 -564 q 293 -519 276 -529 l 335 -485 l 326 -485 q 276 -470 290 -485 q 261 -417 261 -456 l 261 -265 q 279 -208 261 -225 l 331 -165 l 324 -165 q 260 -101 260 -165 l 260 567 l 69 567 q 6 631 6 567 l 6 799 q 25 850 6 833 l 204 1001 q 249 1014 219 1014 l 982 1014 q 1046 950 1046 1014 l 1046 782 q 1026 731 1046 747 l 846 581 q 803 567 832 567 l 792 567 l 792 50 q 772 -1 792 15 l 718 -46 l 725 -46 q 776 -60 761 -46 q 790 -114 790 -74 l 790 -325 q 774 -415 790 -376 q 731 -476 758 -453 l 551 -628 q 424 -668 503 -668 m 728 0 q 778 50 778 0 l 778 732 l 982 732 q 1032 782 1032 732 l 1032 950 q 982 1000 1032 1000 l 249 1000 q 199 950 199 1000 l 199 782 q 249 732 199 732 l 453 732 l 453 50 q 503 0 453 0 l 728 0 m 603 -503 q 729 -458 682 -503 q 776 -325 776 -414 l 776 -114 q 765 -71 776 -82 q 725 -60 754 -60 l 506 -60 q 465 -71 476 -60 q 454 -114 454 -82 l 454 -265 q 465 -308 454 -296 q 506 -319 476 -319 l 625 -319 l 625 -337 q 593 -371 625 -371 l 511 -371 q 469 -412 469 -371 l 469 -460 q 511 -503 469 -503 l 603 -503 m 608 125 l 608 861 l 324 861 l 324 875 l 907 875 l 907 861 l 622 861 l 622 125 l 608 125 m 697 -183 l 697 -318 q 668 -410 697 -382 q 582 -437 639 -437 l 533 -437 l 533 -424 l 582 -424 q 658 -399 632 -424 q 683 -318 683 -374 l 683 -197 l 533 -197 l 533 -183 l 697 -183 z "},"Ț":{"ha":1050,"x_min":6,"x_max":1046,"o":"m 424 -668 l 332 -668 q 276 -611 276 -668 l 276 -564 q 293 -519 276 -529 l 335 -485 l 326 -485 q 276 -470 290 -485 q 261 -417 261 -456 l 261 -265 q 279 -208 261 -225 l 331 -165 l 324 -165 q 260 -101 260 -165 l 260 567 l 69 567 q 6 631 6 567 l 6 799 q 25 850 6 833 l 204 1001 q 249 1014 219 1014 l 982 1014 q 1046 950 1046 1014 l 1046 782 q 1026 731 1046 747 l 846 581 q 803 567 832 567 l 792 567 l 792 50 q 772 -1 792 15 l 718 -46 l 725 -46 q 776 -60 761 -46 q 790 -114 790 -74 l 790 -325 q 774 -415 790 -376 q 731 -476 758 -453 l 551 -628 q 424 -668 503 -668 m 728 0 q 778 50 778 0 l 778 732 l 982 732 q 1032 782 1032 732 l 1032 950 q 982 1000 1032 1000 l 249 1000 q 199 950 199 1000 l 199 782 q 249 732 199 732 l 453 732 l 453 50 q 503 0 453 0 l 728 0 m 603 -503 q 729 -458 682 -503 q 776 -325 776 -414 l 776 -114 q 765 -71 776 -82 q 725 -60 754 -60 l 506 -60 q 465 -71 476 -60 q 454 -114 454 -82 l 454 -265 q 465 -308 454 -296 q 506 -319 476 -319 l 625 -319 l 625 -337 q 593 -371 625 -371 l 511 -371 q 469 -412 469 -371 l 469 -460 q 511 -503 469 -503 l 603 -503 m 608 125 l 608 861 l 324 861 l 324 875 l 907 875 l 907 861 l 622 861 l 622 125 l 608 125 m 697 -183 l 697 -318 q 668 -410 697 -382 q 582 -437 639 -437 l 533 -437 l 533 -424 l 582 -424 q 658 -399 632 -424 q 683 -318 683 -374 l 683 -197 l 533 -197 l 533 -183 l 697 -183 z "},"Ť":{"ha":1050,"x_min":6,"x_max":1046,"o":"m 549 -165 l 324 -165 q 260 -101 260 -165 l 260 567 l 69 567 q 6 631 6 567 l 6 799 q 25 850 6 833 l 167 969 q 138 994 144 981 q 131 1043 131 1008 l 131 1156 q 146 1213 131 1201 l 325 1364 q 347 1371 332 1371 q 386 1364 361 1371 l 576 1308 q 654 1308 615 1297 l 844 1364 q 905 1368 890 1379 q 919 1307 919 1357 l 919 1194 q 914 1154 919 1168 q 897 1131 908 1140 l 760 1014 l 982 1014 q 1046 950 1046 1014 l 1046 782 q 1026 731 1046 747 l 846 581 q 803 567 832 567 l 792 567 l 792 50 q 772 -1 792 15 l 592 -151 q 549 -165 578 -165 m 728 0 q 778 50 778 0 l 778 732 l 982 732 q 1032 782 1032 732 l 1032 950 q 982 1000 1032 1000 l 249 1000 q 199 950 199 1000 l 199 782 q 249 732 199 732 l 453 732 l 453 50 q 503 0 453 0 l 728 0 m 658 1294 q 572 1294 615 1283 l 382 1350 q 335 1353 346 1361 q 324 1307 324 1344 l 324 1194 q 335 1146 324 1157 q 382 1121 347 1135 l 572 1051 q 594 1046 583 1047 q 617 1044 604 1044 q 644 1049 629 1046 q 671 1057 658 1051 l 849 1121 q 894 1146 882 1135 q 906 1194 906 1157 l 906 1307 q 895 1353 906 1344 q 849 1350 885 1361 l 658 1294 m 608 125 l 608 861 l 324 861 l 324 875 l 907 875 l 907 861 l 622 861 l 622 125 l 608 125 m 449 1221 l 569 1182 q 590 1176 581 1179 q 614 1174 600 1174 q 638 1176 628 1174 q 658 1182 649 1179 l 779 1221 l 779 1206 l 664 1168 q 640 1163 651 1165 q 614 1160 629 1160 q 588 1163 599 1160 q 564 1168 576 1165 l 449 1206 l 449 1221 z "},"U":{"ha":1175,"x_min":56,"x_max":1121,"o":"m 499 -186 q 277 -158 364 -186 q 142 -83 190 -131 q 74 26 93 -35 q 56 153 56 88 l 56 799 q 75 850 56 833 l 254 1001 q 299 1014 269 1014 l 517 1014 q 581 950 581 1014 l 581 317 q 585 294 581 304 q 603 278 589 285 l 603 799 q 619 849 603 835 l 621 850 l 801 1001 q 846 1014 817 1014 l 1057 1014 q 1121 950 1121 1014 l 1121 263 q 1103 145 1121 199 q 1038 51 1085 92 l 857 -99 q 722 -163 808 -140 q 499 -186 636 -186 m 1107 263 l 1107 950 q 1057 1000 1107 1000 l 846 1000 q 796 950 796 1000 l 796 317 q 775 270 796 289 q 681 251 754 251 q 588 270 608 251 q 567 317 567 289 l 567 950 q 517 1000 567 1000 l 299 1000 q 249 950 249 1000 l 249 263 q 267 147 249 199 q 334 57 286 94 q 465 -1 382 19 q 678 -21 549 -21 q 890 -1 807 -21 q 1022 57 974 19 q 1088 147 1069 94 q 1107 263 1107 199 m 401 875 l 415 875 l 415 296 q 438 205 415 244 q 519 144 461 165 q 679 122 576 122 q 841 144 783 122 q 922 205 899 165 q 944 296 944 244 l 944 875 l 958 875 l 958 296 q 934 198 958 240 q 849 132 910 156 q 679 108 789 108 q 510 132 571 108 q 426 198 450 156 q 401 296 401 240 l 401 875 z "},"Ù":{"ha":1175,"x_min":56,"x_max":1121,"o":"m 499 -186 q 277 -158 364 -186 q 142 -83 190 -131 q 74 26 93 -35 q 56 153 56 88 l 56 799 q 75 850 56 833 l 199 954 q 179 1004 179 968 l 179 1138 q 199 1188 179 1171 l 378 1339 q 421 1349 396 1350 l 906 1289 q 953 1271 939 1285 q 968 1225 968 1257 l 968 1092 q 949 1042 968 1058 l 915 1014 l 1057 1014 q 1121 950 1121 1014 l 1121 263 q 1103 145 1121 199 q 1038 51 1085 92 l 857 -99 q 722 -163 808 -140 q 499 -186 636 -186 m 1107 263 l 1107 950 q 1057 1000 1107 1000 l 846 1000 q 796 950 796 1000 l 796 317 q 775 270 796 289 q 681 251 754 251 q 588 270 608 251 q 567 317 567 289 l 567 950 q 517 1000 567 1000 l 299 1000 q 249 950 249 1000 l 249 263 q 267 147 249 199 q 334 57 286 94 q 465 -1 382 19 q 678 -21 549 -21 q 890 -1 807 -21 q 1022 57 974 19 q 1088 147 1069 94 q 1107 263 1107 199 m 907 1046 q 954 1092 954 1040 l 954 1225 q 942 1262 954 1251 q 904 1275 931 1272 l 419 1335 q 372 1289 372 1340 l 372 1156 q 384 1119 372 1129 q 422 1106 396 1108 l 907 1046 m 401 875 l 415 875 l 415 296 q 438 205 415 244 q 519 144 461 165 q 679 122 576 122 q 841 144 783 122 q 922 205 899 165 q 944 296 944 244 l 944 875 l 958 875 l 958 296 q 934 198 958 240 q 849 132 910 156 q 679 108 789 108 q 510 132 571 108 q 426 198 450 156 q 401 296 401 240 l 401 875 m 667 888 l 581 899 l 581 317 q 585 294 581 304 q 603 278 589 285 l 603 799 q 619 849 603 835 l 621 850 l 667 888 m 497 1218 l 829 1176 l 829 1163 l 497 1204 l 497 1218 z "},"Ú":{"ha":1175,"x_min":56,"x_max":1121,"o":"m 499 -186 q 277 -158 364 -186 q 142 -83 190 -131 q 74 26 93 -35 q 56 153 56 88 l 56 799 q 75 850 56 833 l 207 961 l 207 1074 q 212 1104 207 1093 q 225 1122 217 1115 l 406 1274 q 449 1289 418 1286 l 933 1349 q 996 1289 996 1357 l 996 1156 q 976 1107 996 1119 l 867 1014 l 1057 1014 q 1121 950 1121 1014 l 1121 263 q 1103 145 1121 199 q 1038 51 1085 92 l 857 -99 q 722 -163 808 -140 q 499 -186 636 -186 m 1107 263 l 1107 950 q 1057 1000 1107 1000 l 846 1000 q 796 950 796 1000 l 796 317 q 775 270 796 289 q 681 251 754 251 q 588 270 608 251 q 567 317 567 289 l 567 950 q 517 1000 567 1000 l 299 1000 q 249 950 249 1000 l 249 263 q 267 147 249 199 q 334 57 286 94 q 465 -1 382 19 q 678 -21 549 -21 q 890 -1 807 -21 q 1022 57 974 19 q 1088 147 1069 94 q 1107 263 1107 199 m 932 1106 q 970 1119 958 1108 q 982 1156 982 1129 l 982 1289 q 935 1335 982 1340 l 450 1275 q 412 1262 424 1272 q 400 1225 400 1251 l 400 1092 q 447 1046 400 1040 l 932 1106 m 401 875 l 415 875 l 415 296 q 438 205 415 244 q 519 144 461 165 q 679 122 576 122 q 841 144 783 122 q 922 205 899 165 q 944 296 944 244 l 944 875 l 958 875 l 958 296 q 934 198 958 240 q 849 132 910 156 q 679 108 789 108 q 510 132 571 108 q 426 198 450 156 q 401 296 401 240 l 401 875 m 724 936 l 581 919 l 581 317 q 585 294 581 304 q 603 278 589 285 l 603 799 q 619 849 603 835 l 621 850 l 724 936 m 857 1218 l 857 1204 l 525 1163 l 525 1176 l 857 1218 z "},"Û":{"ha":1175,"x_min":56,"x_max":1121,"o":"m 499 -186 q 277 -158 364 -186 q 142 -83 190 -131 q 74 26 93 -35 q 56 153 56 88 l 56 799 q 75 850 56 833 l 193 950 l 193 1056 q 198 1096 193 1082 q 213 1119 203 1110 l 394 1271 l 393 1269 q 439 1293 406 1282 l 615 1357 q 645 1367 629 1364 q 675 1371 661 1369 q 701 1369 689 1371 q 724 1363 714 1368 l 915 1293 q 969 1265 957 1278 q 982 1207 982 1251 l 982 1094 q 978 1059 982 1072 q 968 1039 975 1046 l 967 1038 l 939 1014 l 1057 1014 q 1121 950 1121 1014 l 1121 263 q 1103 145 1121 199 q 1038 51 1085 92 l 857 -99 q 722 -163 808 -140 q 499 -186 636 -186 m 1107 263 l 1107 950 q 1057 1000 1107 1000 l 846 1000 q 796 950 796 1000 l 796 317 q 775 270 796 289 q 681 251 754 251 q 588 270 608 251 q 567 317 567 289 l 567 950 q 517 1000 567 1000 l 299 1000 q 249 950 249 1000 l 249 263 q 267 147 249 199 q 334 57 286 94 q 465 -1 382 19 q 678 -21 549 -21 q 890 -1 807 -21 q 1022 57 974 19 q 1088 147 1069 94 q 1107 263 1107 199 m 633 1107 q 719 1107 676 1118 l 910 1051 q 957 1049 946 1040 q 968 1094 968 1057 l 968 1207 q 957 1256 968 1244 q 910 1281 946 1267 l 719 1350 q 699 1356 710 1354 q 675 1357 688 1357 q 648 1353 663 1356 q 621 1344 633 1350 l 443 1281 q 398 1256 410 1267 q 386 1207 386 1244 l 386 1094 q 397 1049 386 1057 q 443 1051 408 1040 l 633 1107 m 401 875 l 415 875 l 415 296 q 438 205 415 244 q 519 144 461 165 q 679 122 576 122 q 841 144 783 122 q 922 205 899 165 q 944 296 944 244 l 944 875 l 958 875 l 958 296 q 934 198 958 240 q 849 132 910 156 q 679 108 789 108 q 510 132 571 108 q 426 198 450 156 q 401 296 401 240 l 401 875 m 681 900 l 581 929 l 581 317 q 585 294 581 304 q 603 278 589 285 l 603 799 q 619 849 603 835 l 621 850 l 681 900 m 842 1181 l 721 1219 q 701 1225 711 1222 q 676 1228 690 1228 q 653 1225 663 1228 q 632 1219 643 1222 l 511 1181 l 511 1196 l 626 1233 q 650 1239 639 1236 q 676 1242 661 1242 q 703 1239 692 1242 q 726 1233 714 1236 l 842 1196 l 842 1181 z "},"Ü":{"ha":1175,"x_min":56,"x_max":1121,"o":"m 499 -186 q 277 -158 364 -186 q 142 -83 190 -131 q 74 26 93 -35 q 56 153 56 88 l 56 799 q 75 850 56 833 l 160 922 q 156 950 156 933 l 156 1118 q 160 1147 156 1136 q 174 1165 165 1158 l 353 1317 q 396 1329 368 1329 l 588 1329 q 647 1269 647 1329 l 647 1261 l 713 1317 q 754 1329 728 1329 l 946 1329 q 1006 1269 1006 1329 l 1006 1101 q 988 1054 1006 1069 l 939 1014 l 1057 1014 q 1121 950 1121 1014 l 1121 263 q 1103 145 1121 199 q 1038 51 1085 92 l 857 -99 q 722 -163 808 -140 q 499 -186 636 -186 m 1107 263 l 1107 950 q 1057 1000 1107 1000 l 846 1000 q 796 950 796 1000 l 796 317 q 775 270 796 289 q 681 251 754 251 q 588 270 608 251 q 567 317 567 289 l 567 950 q 517 1000 567 1000 l 299 1000 q 249 950 249 1000 l 249 263 q 267 147 249 199 q 334 57 286 94 q 465 -1 382 19 q 678 -21 549 -21 q 890 -1 807 -21 q 1022 57 974 19 q 1088 147 1069 94 q 1107 263 1107 199 m 592 1056 q 638 1101 638 1056 l 638 1269 q 592 1315 638 1315 l 400 1315 q 353 1269 353 1315 l 353 1101 q 400 1056 353 1056 l 592 1056 m 950 1056 q 996 1101 996 1056 l 996 1269 q 950 1315 996 1315 l 758 1315 q 713 1269 713 1315 l 713 1101 q 758 1056 713 1056 l 950 1056 m 401 875 l 415 875 l 415 296 q 438 205 415 244 q 519 144 461 165 q 679 122 576 122 q 841 144 783 122 q 922 205 899 165 q 944 296 944 244 l 944 875 l 958 875 l 958 296 q 934 198 958 240 q 849 132 910 156 q 679 108 789 108 q 510 132 571 108 q 426 198 450 156 q 401 296 401 240 l 401 875 m 669 890 l 581 890 l 581 317 q 585 294 581 304 q 603 278 589 285 l 603 799 q 619 849 603 835 l 621 850 l 669 890 m 485 1153 l 485 1218 l 499 1218 l 499 1153 l 485 1153 m 843 1153 l 843 1218 l 857 1218 l 857 1153 l 843 1153 z "},"Ũ":{"ha":1175,"x_min":56,"x_max":1121,"o":"m 499 -186 q 277 -158 364 -186 q 142 -83 190 -131 q 74 26 93 -35 q 56 153 56 88 l 56 799 q 75 850 56 833 l 192 949 l 192 1079 q 213 1131 192 1114 l 392 1281 q 429 1300 404 1290 l 431 1300 l 431 1301 q 503 1318 475 1314 q 564 1319 532 1322 q 651 1308 596 1317 l 653 1308 l 676 1306 l 707 1301 q 793 1291 764 1293 q 844 1294 822 1289 q 901 1310 867 1299 q 911 1313 908 1311 q 979 1263 979 1331 l 979 1122 q 974 1092 979 1104 q 958 1072 968 1081 l 889 1014 l 1057 1014 q 1121 950 1121 1014 l 1121 263 q 1103 145 1121 199 q 1038 51 1085 92 l 857 -99 q 722 -163 808 -140 q 499 -186 636 -186 m 1107 263 l 1107 950 q 1057 1000 1107 1000 l 846 1000 q 796 950 796 1000 l 796 317 q 775 270 796 289 q 681 251 754 251 q 588 270 608 251 q 567 317 567 289 l 567 950 q 517 1000 567 1000 l 299 1000 q 249 950 249 1000 l 249 263 q 267 147 249 199 q 334 57 286 94 q 465 -1 382 19 q 678 -21 549 -21 q 890 -1 807 -21 q 1022 57 974 19 q 1088 147 1069 94 q 1107 263 1107 199 m 676 1061 l 699 1058 q 786 1047 754 1050 q 846 1049 818 1044 q 917 1065 874 1053 q 953 1085 940 1075 q 967 1122 967 1096 l 967 1263 q 917 1299 967 1314 q 907 1296 913 1297 q 848 1280 871 1285 q 795 1277 825 1275 q 707 1288 765 1279 l 676 1292 l 653 1294 l 653 1294 q 566 1306 597 1303 q 507 1304 535 1308 q 436 1288 479 1300 q 399 1267 413 1278 q 386 1231 386 1257 l 386 1090 q 436 1054 386 1040 q 499 1071 474 1065 q 554 1076 524 1076 q 638 1067 585 1075 l 676 1061 m 401 875 l 415 875 l 415 296 q 438 205 415 244 q 519 144 461 165 q 679 122 576 122 q 841 144 783 122 q 922 205 899 165 q 944 296 944 244 l 944 875 l 958 875 l 958 296 q 934 198 958 240 q 849 132 910 156 q 679 108 789 108 q 510 132 571 108 q 426 198 450 156 q 401 296 401 240 l 401 875 m 658 882 q 622 881 640 879 q 581 885 604 882 l 581 317 q 585 294 581 304 q 603 278 589 285 l 603 799 q 619 849 603 835 l 621 850 l 658 882 m 840 1154 q 781 1154 813 1151 q 696 1165 749 1157 l 674 1168 l 635 1174 q 561 1182 589 1181 q 510 1179 533 1183 l 510 1194 q 562 1196 533 1197 q 638 1188 590 1194 l 676 1182 l 699 1179 q 782 1168 751 1171 q 840 1168 813 1165 l 840 1154 z "},"Ū":{"ha":1175,"x_min":56,"x_max":1121,"o":"m 499 -186 q 277 -158 364 -186 q 142 -83 190 -131 q 74 26 93 -35 q 56 153 56 88 l 56 799 q 75 850 56 833 l 193 950 q 193 954 193 951 l 193 1083 q 213 1135 193 1118 l 392 1286 q 436 1299 407 1299 l 918 1299 q 982 1235 982 1299 l 982 1106 q 963 1054 982 1071 l 914 1014 l 1057 1014 q 1121 950 1121 1014 l 1121 263 q 1103 145 1121 199 q 1038 51 1085 92 l 857 -99 q 722 -163 808 -140 q 499 -186 636 -186 m 1107 263 l 1107 950 q 1057 1000 1107 1000 l 846 1000 q 796 950 796 1000 l 796 317 q 775 270 796 289 q 681 251 754 251 q 588 270 608 251 q 567 317 567 289 l 567 950 q 517 1000 567 1000 l 299 1000 q 249 950 249 1000 l 249 263 q 267 147 249 199 q 334 57 286 94 q 465 -1 382 19 q 678 -21 549 -21 q 890 -1 807 -21 q 1022 57 974 19 q 1088 147 1069 94 q 1107 263 1107 199 m 918 1056 q 968 1106 968 1056 l 968 1235 q 918 1285 968 1285 l 436 1285 q 386 1235 386 1285 l 386 1106 q 436 1056 386 1056 l 918 1056 m 401 875 l 415 875 l 415 296 q 438 205 415 244 q 519 144 461 165 q 679 122 576 122 q 841 144 783 122 q 922 205 899 165 q 944 296 944 244 l 944 875 l 958 875 l 958 296 q 934 198 958 240 q 849 132 910 156 q 679 108 789 108 q 510 132 571 108 q 426 198 450 156 q 401 296 401 240 l 401 875 m 669 890 l 581 890 l 581 317 q 585 294 581 304 q 603 278 589 285 l 603 799 q 619 849 603 835 l 621 850 l 669 890 m 843 1176 l 843 1163 l 511 1163 l 511 1176 l 843 1176 z "},"Ŭ":{"ha":1175,"x_min":56,"x_max":1121,"o":"m 499 -186 q 277 -158 364 -186 q 142 -83 190 -131 q 74 26 93 -35 q 56 153 56 88 l 56 799 q 75 850 56 833 l 217 969 q 191 1027 199 996 q 183 1094 183 1058 l 183 1156 q 203 1207 183 1190 l 382 1358 q 426 1371 397 1371 l 560 1371 q 601 1359 589 1371 q 614 1314 614 1347 l 614 1285 q 639 1257 614 1263 l 764 1361 l 763 1360 q 803 1371 774 1371 l 929 1371 q 993 1307 993 1371 l 993 1246 q 980 1161 993 1200 q 932 1094 967 1122 l 835 1014 q 846 1014 840 1014 l 1057 1014 q 1121 950 1121 1014 l 1121 263 q 1103 145 1121 199 q 1038 51 1085 92 l 857 -99 q 722 -163 808 -140 q 499 -186 636 -186 m 1107 263 l 1107 950 q 1057 1000 1107 1000 l 846 1000 q 796 950 796 1000 l 796 317 q 775 270 796 289 q 681 251 754 251 q 588 270 608 251 q 567 317 567 289 l 567 950 q 517 1000 567 1000 l 299 1000 q 249 950 249 1000 l 249 263 q 267 147 249 199 q 334 57 286 94 q 465 -1 382 19 q 678 -21 549 -21 q 890 -1 807 -21 q 1022 57 974 19 q 1088 147 1069 94 q 1107 263 1107 199 m 979 1246 l 979 1307 q 929 1357 979 1357 l 803 1357 q 770 1348 779 1357 q 761 1314 761 1339 l 761 1285 q 747 1252 761 1265 q 679 1239 732 1239 q 614 1252 628 1239 q 600 1285 600 1265 l 600 1314 q 591 1348 600 1339 q 560 1357 582 1357 l 426 1357 q 376 1307 376 1357 l 376 1246 q 401 1142 376 1188 q 492 1072 426 1097 q 678 1047 557 1047 q 864 1072 799 1047 q 954 1142 929 1097 q 979 1246 979 1188 m 401 875 l 415 875 l 415 296 q 438 205 415 244 q 519 144 461 165 q 679 122 576 122 q 841 144 783 122 q 922 205 899 165 q 944 296 944 244 l 944 875 l 958 875 l 958 296 q 934 198 958 240 q 849 132 910 156 q 679 108 789 108 q 510 132 571 108 q 426 198 450 156 q 401 296 401 240 l 401 875 m 692 910 q 581 886 646 892 l 581 317 q 585 294 581 304 q 603 278 589 285 l 603 799 q 619 849 603 835 l 621 850 l 692 910 m 878 1260 l 878 1247 q 863 1195 878 1221 q 806 1153 849 1169 q 676 1136 763 1136 q 549 1153 590 1136 q 494 1195 507 1169 q 482 1247 482 1221 l 482 1260 l 496 1260 l 496 1247 q 510 1200 496 1222 q 563 1164 524 1178 q 676 1150 601 1150 q 792 1164 751 1150 q 849 1200 833 1178 q 864 1247 864 1222 l 864 1260 l 878 1260 z "},"Ů":{"ha":1175,"x_min":56,"x_max":1121,"o":"m 499 -186 q 277 -158 364 -186 q 142 -83 190 -131 q 74 26 93 -35 q 56 153 56 88 l 56 799 q 75 850 56 833 l 217 969 q 191 1027 199 996 q 183 1094 183 1058 l 183 1231 q 196 1315 183 1276 q 243 1382 208 1354 l 424 1533 q 519 1578 458 1561 q 678 1594 581 1594 q 875 1567 807 1594 q 968 1492 943 1540 q 993 1382 993 1444 l 993 1246 q 980 1161 993 1200 q 932 1094 967 1122 l 835 1014 q 846 1014 840 1014 l 1057 1014 q 1121 950 1121 1014 l 1121 263 q 1103 145 1121 199 q 1038 51 1085 92 l 857 -99 q 722 -163 808 -140 q 499 -186 636 -186 m 1107 263 l 1107 950 q 1057 1000 1107 1000 l 846 1000 q 796 950 796 1000 l 796 317 q 775 270 796 289 q 681 251 754 251 q 588 270 608 251 q 567 317 567 289 l 567 950 q 517 1000 567 1000 l 299 1000 q 249 950 249 1000 l 249 263 q 267 147 249 199 q 334 57 286 94 q 465 -1 382 19 q 678 -21 549 -21 q 890 -1 807 -21 q 1022 57 974 19 q 1088 147 1069 94 q 1107 263 1107 199 m 979 1382 q 954 1486 979 1442 q 864 1556 929 1531 q 678 1581 799 1581 q 492 1556 557 1581 q 401 1486 426 1531 q 376 1382 376 1442 l 376 1246 q 401 1142 376 1188 q 492 1072 426 1097 q 678 1047 557 1047 q 864 1072 799 1047 q 954 1142 929 1097 q 979 1246 979 1188 l 979 1382 m 482 1354 q 497 1428 482 1396 q 553 1477 511 1460 q 678 1494 596 1494 q 803 1476 761 1494 q 861 1427 846 1458 q 876 1354 876 1396 l 876 1278 q 861 1205 876 1236 q 803 1156 846 1174 q 678 1139 761 1139 q 553 1156 596 1139 q 497 1205 511 1174 q 482 1278 482 1236 l 482 1354 m 496 1354 l 496 1278 q 510 1211 496 1239 q 565 1168 525 1183 q 678 1153 604 1153 q 792 1168 753 1153 q 847 1211 832 1183 q 863 1278 863 1239 l 863 1354 q 847 1421 863 1393 q 792 1465 832 1449 q 678 1481 753 1481 q 565 1465 604 1481 q 510 1422 525 1450 q 496 1354 496 1393 m 401 875 l 415 875 l 415 296 q 438 205 415 244 q 519 144 461 165 q 679 122 576 122 q 841 144 783 122 q 922 205 899 165 q 944 296 944 244 l 944 875 l 958 875 l 958 296 q 934 198 958 240 q 849 132 910 156 q 679 108 789 108 q 510 132 571 108 q 426 198 450 156 q 401 296 401 240 l 401 875 m 761 1292 q 747 1247 761 1261 q 679 1232 732 1232 q 614 1247 628 1232 q 600 1292 600 1261 l 600 1340 q 614 1382 600 1368 q 679 1396 628 1396 q 747 1382 732 1396 q 761 1340 761 1368 l 761 1292 m 692 910 q 581 886 646 892 l 581 317 q 585 294 581 304 q 603 278 589 285 l 603 799 q 619 849 603 835 l 621 850 l 692 910 z "},"Ű":{"ha":1175,"x_min":56,"x_max":1121,"o":"m 499 -186 q 277 -158 364 -186 q 142 -83 190 -131 q 74 26 93 -35 q 56 153 56 88 l 56 799 q 75 850 56 833 l 183 942 q 185 954 183 947 l 258 1242 q 267 1272 263 1260 q 282 1292 272 1283 l 463 1443 q 501 1454 476 1454 l 649 1454 q 699 1437 682 1454 q 708 1390 717 1419 l 694 1335 l 824 1443 q 863 1454 838 1454 l 1010 1454 q 1060 1437 1043 1454 q 1069 1390 1078 1419 l 996 1103 q 972 1053 988 1068 l 926 1014 l 1057 1014 q 1121 950 1121 1014 l 1121 263 q 1103 145 1121 199 q 1038 51 1085 92 l 857 -99 q 722 -163 808 -140 q 499 -186 636 -186 m 1107 263 l 1107 950 q 1057 1000 1107 1000 l 846 1000 q 796 950 796 1000 l 796 317 q 775 270 796 289 q 681 251 754 251 q 588 270 608 251 q 567 317 567 289 l 567 950 q 517 1000 567 1000 l 299 1000 q 249 950 249 1000 l 249 263 q 267 147 249 199 q 334 57 286 94 q 465 -1 382 19 q 678 -21 549 -21 q 890 -1 807 -21 q 1022 57 974 19 q 1088 147 1069 94 q 1107 263 1107 199 m 378 1103 q 386 1068 372 1081 q 424 1056 400 1056 l 571 1056 q 606 1068 597 1056 q 621 1106 615 1081 l 694 1393 q 687 1428 701 1417 q 649 1440 672 1440 l 501 1440 q 467 1428 475 1440 q 451 1390 458 1415 l 378 1103 m 739 1103 q 747 1068 733 1081 q 785 1056 761 1056 l 932 1056 q 967 1068 958 1056 q 982 1106 976 1081 l 1056 1393 q 1048 1428 1063 1417 q 1010 1440 1033 1440 l 863 1440 q 828 1428 836 1440 q 813 1390 819 1415 l 739 1103 m 401 875 l 415 875 l 415 296 q 438 205 415 244 q 519 144 461 165 q 679 122 576 122 q 841 144 783 122 q 922 205 899 165 q 944 296 944 244 l 944 875 l 958 875 l 958 296 q 934 198 958 240 q 849 132 910 156 q 679 108 789 108 q 510 132 571 108 q 426 198 450 156 q 401 296 401 240 l 401 875 m 669 890 l 606 890 q 581 893 592 890 l 581 317 q 585 294 581 304 q 603 278 589 285 l 603 799 q 619 849 603 835 l 621 850 l 669 890 m 511 1181 l 546 1315 l 561 1315 l 526 1181 l 511 1181 m 872 1181 l 907 1315 l 922 1315 l 888 1181 l 872 1181 m 560 1004 l 561 1011 l 556 1006 q 560 1004 557 1006 z "},"Ų":{"ha":1175,"x_min":56,"x_max":1121,"o":"m 504 -437 q 371 -389 407 -437 q 350 -233 335 -340 l 360 -176 q 172 -108 238 -158 q 81 10 106 -58 q 56 153 56 78 l 56 799 q 75 850 56 833 l 254 1001 q 299 1014 269 1014 l 517 1014 q 581 950 581 1014 l 581 317 q 585 294 581 304 q 603 278 589 285 l 603 799 q 619 849 603 835 l 621 850 l 801 1001 q 846 1014 817 1014 l 1057 1014 q 1121 950 1121 1014 l 1121 263 q 1103 145 1121 199 q 1038 51 1085 92 l 883 -76 q 897 -125 897 -89 l 897 -225 q 882 -275 897 -260 l 700 -426 q 658 -437 686 -437 l 504 -437 m 1107 263 l 1107 950 q 1057 1000 1107 1000 l 846 1000 q 796 950 796 1000 l 796 317 q 775 270 796 289 q 681 251 754 251 q 588 270 608 251 q 567 317 567 289 l 567 950 q 517 1000 567 1000 l 299 1000 q 249 950 249 1000 l 249 263 q 275 131 249 189 q 367 35 301 72 q 556 -15 433 -3 l 543 -85 q 562 -227 529 -182 q 683 -272 594 -272 l 838 -272 q 874 -262 865 -272 q 883 -225 883 -251 l 883 -125 q 873 -87 883 -97 q 833 -78 863 -78 l 776 -78 l 785 -17 q 983 32 913 -6 q 1080 128 1053 69 q 1107 263 1107 188 m 401 875 l 415 875 l 415 296 q 438 205 415 244 q 519 144 461 165 q 679 122 576 122 q 841 144 783 122 q 922 205 899 165 q 944 296 944 244 l 944 875 l 958 875 l 958 296 q 938 204 958 244 q 867 140 918 164 q 728 110 817 115 q 697 85 704 96 q 685 44 689 74 l 668 -74 q 672 -138 663 -115 q 725 -161 682 -161 l 758 -161 l 758 -175 l 725 -175 q 660 -149 674 -175 q 654 -71 646 -122 l 671 44 q 681 84 675 71 q 701 108 686 97 q 679 108 690 108 q 510 132 571 108 q 426 198 450 156 q 401 296 401 240 l 401 875 z "},"V":{"ha":1153,"x_min":42,"x_max":1113,"o":"m 307 -165 q 256 -153 275 -165 q 224 -111 236 -142 l 88 229 q 60 301 71 272 q 46 358 50 329 q 42 432 42 388 l 42 799 q 61 850 42 833 l 240 1001 q 285 1014 256 1014 l 506 1014 q 574 950 574 1014 l 574 567 q 576 541 574 553 q 583 514 579 529 l 588 504 l 588 799 q 607 850 588 833 l 786 1001 q 831 1014 801 1014 l 1049 1014 q 1098 999 1083 1014 q 1113 950 1113 983 l 1113 583 q 1108 510 1113 539 q 1094 452 1104 481 q 1067 381 1085 424 l 931 40 q 919 19 926 28 q 906 3 913 10 l 726 -146 q 668 -165 706 -165 l 307 -165 m 847 0 q 892 10 875 0 q 918 46 908 19 l 1054 386 q 1081 456 1071 428 q 1094 512 1090 483 q 1099 583 1099 540 l 1099 950 q 1049 1000 1099 1000 l 831 1000 q 781 950 781 1000 l 781 568 q 778 540 781 554 q 769 511 775 526 l 704 315 q 678 292 697 292 l 663 292 q 636 315 643 292 l 571 510 q 563 539 565 525 q 560 567 560 553 l 560 950 q 506 1000 560 1000 l 285 1000 q 235 950 235 1000 l 235 583 q 239 512 235 540 q 253 456 243 483 q 279 386 263 428 l 415 46 q 443 10 426 19 q 486 0 460 0 l 847 0 m 406 875 l 406 575 q 428 446 406 500 l 519 224 q 551 163 535 188 q 607 139 568 139 l 729 139 q 786 163 769 139 q 817 224 803 188 l 908 446 q 931 575 931 500 l 931 875 l 944 875 l 944 575 q 940 503 944 536 q 922 440 935 471 l 831 218 q 794 151 814 178 q 729 125 774 125 l 607 125 q 543 151 564 125 q 506 218 522 178 l 414 440 q 397 503 401 471 q 392 575 392 536 l 392 875 l 406 875 z "},"W":{"ha":1293,"x_min":50,"x_max":1244,"o":"m 451 -149 q 429 -160 442 -156 q 403 -165 417 -165 l 219 -165 q 174 -149 193 -165 q 146 -106 154 -132 l 76 86 q 53 178 57 139 q 50 263 50 217 l 50 799 q 69 850 50 833 l 249 1001 q 293 1014 264 1014 l 507 1014 q 571 950 571 1014 l 571 588 l 649 653 q 711 671 671 671 l 731 671 l 731 799 q 747 849 731 835 l 749 850 l 929 1001 q 974 1014 944 1014 l 1181 1014 q 1244 950 1244 1014 l 1244 411 q 1241 326 1244 365 q 1218 235 1238 288 l 1149 46 q 1121 0 1140 17 l 942 -149 q 901 -165 925 -165 l 717 -165 q 668 -153 689 -165 q 639 -114 647 -140 l 611 -15 l 451 -149 m 974 1000 q 924 950 924 1000 l 924 439 l 843 614 q 815 647 832 638 q 769 657 797 657 l 711 657 q 667 647 685 657 q 638 614 649 638 l 557 439 l 557 950 q 507 1000 557 1000 l 293 1000 q 243 950 243 1000 l 243 414 q 247 331 243 369 q 268 242 250 293 l 338 50 q 360 14 344 28 q 399 0 376 0 l 582 0 q 640 42 628 0 l 706 268 q 731 292 713 292 l 743 292 q 768 268 761 292 l 832 42 q 856 10 839 19 q 896 0 874 0 l 1081 0 q 1116 15 1103 0 q 1136 50 1129 29 l 1206 239 q 1228 328 1225 290 q 1231 411 1231 367 l 1231 950 q 1181 1000 1231 1000 l 974 1000 m 769 465 l 707 465 q 678 455 690 465 q 650 407 667 444 l 536 149 q 517 130 531 135 q 490 125 503 125 l 481 125 q 435 168 444 125 l 400 325 q 394 393 394 351 q 393 465 393 435 l 393 875 l 407 875 l 407 467 q 408 394 407 436 q 414 326 408 353 l 449 168 q 460 148 451 157 q 481 139 469 139 l 488 139 q 509 142 499 139 q 525 158 519 144 l 639 414 q 671 467 657 454 q 707 479 685 479 l 769 479 q 806 467 792 479 q 838 414 819 454 l 951 158 q 969 142 958 144 q 989 139 979 139 l 996 139 q 1017 148 1007 139 q 1028 168 1026 157 l 1063 326 q 1069 394 1068 353 q 1069 467 1069 436 l 1069 875 l 1083 875 l 1083 465 q 1083 393 1083 435 q 1076 325 1082 351 l 1042 168 q 996 125 1032 125 l 986 125 q 960 130 974 125 q 940 149 947 135 l 826 407 q 798 455 810 444 q 769 465 786 465 z "},"Ŵ":{"ha":1293,"x_min":50,"x_max":1244,"o":"m 451 -149 q 429 -160 442 -156 q 403 -165 417 -165 l 219 -165 q 174 -149 193 -165 q 146 -106 154 -132 l 76 86 q 53 178 57 139 q 50 263 50 217 l 50 799 q 69 850 50 833 l 249 1001 q 251 1004 250 1003 l 251 1056 q 256 1096 251 1082 q 271 1119 261 1110 l 453 1271 l 451 1269 q 497 1293 464 1282 l 674 1357 q 703 1367 688 1364 q 733 1371 719 1369 q 760 1369 747 1371 q 782 1363 772 1368 l 974 1293 q 1028 1265 1015 1278 q 1040 1207 1040 1251 l 1040 1094 q 1037 1059 1040 1072 q 1026 1039 1033 1046 l 1025 1038 l 997 1014 l 1181 1014 q 1244 950 1244 1014 l 1244 411 q 1241 326 1244 365 q 1218 235 1238 288 l 1149 46 q 1121 0 1140 17 l 942 -149 q 901 -165 925 -165 l 717 -165 q 668 -153 689 -165 q 639 -114 647 -140 l 611 -15 l 451 -149 m 974 1000 q 924 950 924 1000 l 924 439 l 843 614 q 815 647 832 638 q 769 657 797 657 l 711 657 q 667 647 685 657 q 638 614 649 638 l 557 439 l 557 950 q 507 1000 557 1000 l 293 1000 q 243 950 243 1000 l 243 414 q 247 331 243 369 q 268 242 250 293 l 338 50 q 360 14 344 28 q 399 0 376 0 l 582 0 q 640 42 628 0 l 706 268 q 731 292 713 292 l 743 292 q 768 268 761 292 l 832 42 q 856 10 839 19 q 896 0 874 0 l 1081 0 q 1116 15 1103 0 q 1136 50 1129 29 l 1206 239 q 1228 328 1225 290 q 1231 411 1231 367 l 1231 950 q 1181 1000 1231 1000 l 974 1000 m 692 1107 q 778 1107 735 1118 l 968 1051 q 1015 1049 1004 1040 q 1026 1094 1026 1057 l 1026 1207 q 1015 1256 1026 1244 q 968 1281 1004 1267 l 778 1350 q 757 1356 768 1354 q 733 1357 746 1357 q 706 1353 721 1356 q 679 1344 692 1350 l 501 1281 q 456 1256 468 1267 q 444 1207 444 1244 l 444 1094 q 456 1049 444 1057 q 501 1051 467 1040 l 692 1107 m 790 885 q 785 886 788 885 l 594 942 q 571 947 582 946 l 571 588 l 649 653 q 711 671 671 671 l 731 671 l 731 799 q 747 849 731 835 l 749 850 l 790 885 m 769 465 l 707 465 q 678 455 690 465 q 650 407 667 444 l 536 149 q 517 130 531 135 q 490 125 503 125 l 481 125 q 435 168 444 125 l 400 325 q 394 393 394 351 q 393 465 393 435 l 393 875 l 407 875 l 407 467 q 408 394 407 436 q 414 326 408 353 l 449 168 q 460 148 451 157 q 481 139 469 139 l 488 139 q 509 142 499 139 q 525 158 519 144 l 639 414 q 671 467 657 454 q 707 479 685 479 l 769 479 q 806 467 792 479 q 838 414 819 454 l 951 158 q 969 142 958 144 q 989 139 979 139 l 996 139 q 1017 148 1007 139 q 1028 168 1026 157 l 1063 326 q 1069 394 1068 353 q 1069 467 1069 436 l 1069 875 l 1083 875 l 1083 465 q 1083 393 1083 435 q 1076 325 1082 351 l 1042 168 q 996 125 1032 125 l 986 125 q 960 130 974 125 q 940 149 947 135 l 826 407 q 798 455 810 444 q 769 465 786 465 m 900 1181 l 779 1219 q 759 1225 769 1222 q 735 1228 749 1228 q 711 1225 721 1228 q 690 1219 701 1222 l 569 1181 l 569 1196 l 685 1233 q 708 1239 697 1236 q 735 1242 719 1242 q 761 1239 750 1242 q 785 1233 772 1236 l 900 1196 l 900 1181 z "},"Ẁ":{"ha":1293,"x_min":50,"x_max":1244,"o":"m 451 -149 q 429 -160 442 -156 q 403 -165 417 -165 l 219 -165 q 174 -149 193 -165 q 146 -106 154 -132 l 76 86 q 53 178 57 139 q 50 263 50 217 l 50 799 q 69 850 50 833 l 238 993 q 238 1004 238 997 l 238 1138 q 257 1188 238 1171 l 436 1339 q 479 1349 454 1350 l 964 1289 q 1012 1271 997 1285 q 1026 1225 1026 1257 l 1026 1092 q 1007 1042 1026 1058 l 974 1014 l 1181 1014 q 1244 950 1244 1014 l 1244 411 q 1241 326 1244 365 q 1218 235 1238 288 l 1149 46 q 1121 0 1140 17 l 942 -149 q 901 -165 925 -165 l 717 -165 q 668 -153 689 -165 q 639 -114 647 -140 l 611 -15 l 451 -149 m 974 1000 q 924 950 924 1000 l 924 439 l 843 614 q 815 647 832 638 q 769 657 797 657 l 711 657 q 667 647 685 657 q 638 614 649 638 l 557 439 l 557 950 q 507 1000 557 1000 l 293 1000 q 243 950 243 1000 l 243 414 q 247 331 243 369 q 268 242 250 293 l 338 50 q 360 14 344 28 q 399 0 376 0 l 582 0 q 640 42 628 0 l 706 268 q 731 292 713 292 l 743 292 q 768 268 761 292 l 832 42 q 856 10 839 19 q 896 0 874 0 l 1081 0 q 1116 15 1103 0 q 1136 50 1129 29 l 1206 239 q 1228 328 1225 290 q 1231 411 1231 367 l 1231 950 q 1181 1000 1231 1000 l 974 1000 m 965 1046 q 1013 1092 1013 1040 l 1013 1225 q 1001 1262 1013 1251 q 963 1275 989 1272 l 478 1335 q 431 1289 431 1340 l 431 1156 q 442 1119 431 1129 q 481 1106 454 1108 l 965 1046 m 785 881 q 785 881 785 881 l 571 907 l 571 588 l 649 653 q 711 671 671 671 l 731 671 l 731 799 q 747 849 731 835 l 749 850 l 785 881 m 769 465 l 707 465 q 678 455 690 465 q 650 407 667 444 l 536 149 q 517 130 531 135 q 490 125 503 125 l 481 125 q 435 168 444 125 l 400 325 q 394 393 394 351 q 393 465 393 435 l 393 875 l 407 875 l 407 467 q 408 394 407 436 q 414 326 408 353 l 449 168 q 460 148 451 157 q 481 139 469 139 l 488 139 q 509 142 499 139 q 525 158 519 144 l 639 414 q 671 467 657 454 q 707 479 685 479 l 769 479 q 806 467 792 479 q 838 414 819 454 l 951 158 q 969 142 958 144 q 989 139 979 139 l 996 139 q 1017 148 1007 139 q 1028 168 1026 157 l 1063 326 q 1069 394 1068 353 q 1069 467 1069 436 l 1069 875 l 1083 875 l 1083 465 q 1083 393 1083 435 q 1076 325 1082 351 l 1042 168 q 996 125 1032 125 l 986 125 q 960 130 974 125 q 940 149 947 135 l 826 407 q 798 455 810 444 q 769 465 786 465 m 556 1218 l 888 1176 l 888 1163 l 556 1204 l 556 1218 z "},"Ẃ":{"ha":1293,"x_min":50,"x_max":1244,"o":"m 451 -149 q 429 -160 442 -156 q 403 -165 417 -165 l 219 -165 q 174 -149 193 -165 q 146 -106 154 -132 l 76 86 q 53 178 57 139 q 50 263 50 217 l 50 799 q 69 850 50 833 l 249 1001 q 265 1010 256 1007 l 265 1074 q 270 1104 265 1093 q 283 1122 275 1115 l 464 1274 q 507 1289 476 1286 l 992 1349 q 1054 1289 1054 1357 l 1054 1156 q 1035 1107 1054 1119 l 856 956 q 838 947 849 950 q 813 940 828 943 l 571 911 l 571 588 l 649 653 q 711 671 671 671 l 731 671 l 731 799 q 747 849 731 835 l 749 850 l 929 1001 q 974 1014 944 1014 l 1181 1014 q 1244 950 1244 1014 l 1244 411 q 1241 326 1244 365 q 1218 235 1238 288 l 1149 46 q 1121 0 1140 17 l 942 -149 q 901 -165 925 -165 l 717 -165 q 668 -153 689 -165 q 639 -114 647 -140 l 611 -15 l 451 -149 m 974 1000 q 924 950 924 1000 l 924 439 l 843 614 q 815 647 832 638 q 769 657 797 657 l 711 657 q 667 647 685 657 q 638 614 649 638 l 557 439 l 557 950 q 507 1000 557 1000 l 293 1000 q 243 950 243 1000 l 243 414 q 247 331 243 369 q 268 242 250 293 l 338 50 q 360 14 344 28 q 399 0 376 0 l 582 0 q 640 42 628 0 l 706 268 q 731 292 713 292 l 743 292 q 768 268 761 292 l 832 42 q 856 10 839 19 q 896 0 874 0 l 1081 0 q 1116 15 1103 0 q 1136 50 1129 29 l 1206 239 q 1228 328 1225 290 q 1231 411 1231 367 l 1231 950 q 1181 1000 1231 1000 l 974 1000 m 990 1106 q 1028 1119 1017 1108 q 1040 1156 1040 1129 l 1040 1289 q 993 1335 1040 1340 l 508 1275 q 470 1262 482 1272 q 458 1225 458 1251 l 458 1092 q 506 1046 458 1040 l 990 1106 m 769 465 l 707 465 q 678 455 690 465 q 650 407 667 444 l 536 149 q 517 130 531 135 q 490 125 503 125 l 481 125 q 435 168 444 125 l 400 325 q 394 393 394 351 q 393 465 393 435 l 393 875 l 407 875 l 407 467 q 408 394 407 436 q 414 326 408 353 l 449 168 q 460 148 451 157 q 481 139 469 139 l 488 139 q 509 142 499 139 q 525 158 519 144 l 639 414 q 671 467 657 454 q 707 479 685 479 l 769 479 q 806 467 792 479 q 838 414 819 454 l 951 158 q 969 142 958 144 q 989 139 979 139 l 996 139 q 1017 148 1007 139 q 1028 168 1026 157 l 1063 326 q 1069 394 1068 353 q 1069 467 1069 436 l 1069 875 l 1083 875 l 1083 465 q 1083 393 1083 435 q 1076 325 1082 351 l 1042 168 q 996 125 1032 125 l 986 125 q 960 130 974 125 q 940 149 947 135 l 826 407 q 798 455 810 444 q 769 465 786 465 m 915 1218 l 915 1204 l 583 1163 l 583 1176 l 915 1218 z "},"Ẅ":{"ha":1293,"x_min":50,"x_max":1244,"o":"m 451 -149 q 429 -160 442 -156 q 403 -165 417 -165 l 219 -165 q 174 -149 193 -165 q 146 -106 154 -132 l 76 86 q 53 178 57 139 q 50 263 50 217 l 50 799 q 69 850 50 833 l 214 972 l 214 1118 q 219 1147 214 1136 q 232 1165 224 1158 l 411 1317 q 454 1329 426 1329 l 646 1329 q 706 1269 706 1329 l 706 1261 l 771 1317 q 813 1329 786 1329 l 1004 1329 q 1064 1269 1064 1329 l 1064 1101 q 1046 1054 1064 1069 l 997 1014 l 1181 1014 q 1244 950 1244 1014 l 1244 411 q 1241 326 1244 365 q 1218 235 1238 288 l 1149 46 q 1121 0 1140 17 l 942 -149 q 901 -165 925 -165 l 717 -165 q 668 -153 689 -165 q 639 -114 647 -140 l 611 -15 l 451 -149 m 974 1000 q 924 950 924 1000 l 924 439 l 843 614 q 815 647 832 638 q 769 657 797 657 l 711 657 q 667 647 685 657 q 638 614 649 638 l 557 439 l 557 950 q 507 1000 557 1000 l 293 1000 q 243 950 243 1000 l 243 414 q 247 331 243 369 q 268 242 250 293 l 338 50 q 360 14 344 28 q 399 0 376 0 l 582 0 q 640 42 628 0 l 706 268 q 731 292 713 292 l 743 292 q 768 268 761 292 l 832 42 q 856 10 839 19 q 896 0 874 0 l 1081 0 q 1116 15 1103 0 q 1136 50 1129 29 l 1206 239 q 1228 328 1225 290 q 1231 411 1231 367 l 1231 950 q 1181 1000 1231 1000 l 974 1000 m 650 1056 q 696 1101 696 1056 l 696 1269 q 650 1315 696 1315 l 458 1315 q 411 1269 411 1315 l 411 1101 q 458 1056 411 1056 l 650 1056 m 1008 1056 q 1054 1101 1054 1056 l 1054 1269 q 1008 1315 1054 1315 l 817 1315 q 771 1269 771 1315 l 771 1101 q 817 1056 771 1056 l 1008 1056 m 574 958 l 571 956 q 571 950 571 953 l 571 588 l 649 653 q 711 671 671 671 l 731 671 l 731 799 q 747 849 731 835 l 749 850 l 797 890 l 633 890 q 574 950 574 890 l 574 958 m 769 465 l 707 465 q 678 455 690 465 q 650 407 667 444 l 536 149 q 517 130 531 135 q 490 125 503 125 l 481 125 q 435 168 444 125 l 400 325 q 394 393 394 351 q 393 465 393 435 l 393 875 l 407 875 l 407 467 q 408 394 407 436 q 414 326 408 353 l 449 168 q 460 148 451 157 q 481 139 469 139 l 488 139 q 509 142 499 139 q 525 158 519 144 l 639 414 q 671 467 657 454 q 707 479 685 479 l 769 479 q 806 467 792 479 q 838 414 819 454 l 951 158 q 969 142 958 144 q 989 139 979 139 l 996 139 q 1017 148 1007 139 q 1028 168 1026 157 l 1063 326 q 1069 394 1068 353 q 1069 467 1069 436 l 1069 875 l 1083 875 l 1083 465 q 1083 393 1083 435 q 1076 325 1082 351 l 1042 168 q 996 125 1032 125 l 986 125 q 960 130 974 125 q 940 149 947 135 l 826 407 q 798 455 810 444 q 769 465 786 465 m 543 1153 l 543 1218 l 557 1218 l 557 1153 l 543 1153 m 901 1153 l 901 1218 l 915 1218 l 915 1153 l 901 1153 z "},"X":{"ha":1163,"x_min":50,"x_max":1114,"o":"m 549 -1 l 368 -151 q 325 -165 354 -165 l 114 -165 q 50 -101 50 -165 l 50 47 q 55 122 50 93 q 72 174 60 150 q 106 226 83 197 l 213 369 l 106 513 q 72 566 83 543 q 55 618 60 589 q 50 692 50 647 l 50 799 q 69 850 50 833 l 249 1001 q 293 1014 264 1014 l 507 1014 q 571 950 571 1014 l 571 854 q 571 849 571 853 q 572 826 571 838 q 581 804 574 814 l 596 782 l 596 799 q 615 850 596 833 l 794 1001 q 839 1014 810 1014 l 1050 1014 q 1114 950 1114 1014 l 1114 843 q 1109 769 1114 799 q 1092 717 1104 740 q 1058 664 1081 694 l 951 519 l 1058 378 q 1092 325 1081 349 q 1109 273 1104 301 q 1114 199 1114 244 l 1114 50 q 1094 -1 1114 15 l 914 -151 q 871 -165 900 -165 l 660 -165 q 596 -101 596 -165 l 596 36 q 596 42 596 38 q 594 64 596 53 q 586 86 593 75 l 568 111 l 568 50 q 549 -1 568 15 m 554 50 l 554 188 q 554 193 554 189 q 556 219 554 206 q 567 246 557 232 l 629 333 q 644 351 638 346 q 663 357 651 357 l 682 357 q 700 351 693 357 q 715 333 707 346 l 776 246 q 788 219 786 232 q 789 193 789 206 q 789 188 789 189 l 789 50 q 839 0 789 0 l 1050 0 q 1100 50 1100 0 l 1100 199 q 1096 269 1100 242 q 1081 319 1092 296 q 1047 369 1069 342 l 935 519 l 1047 672 q 1080 724 1068 701 q 1096 773 1092 746 q 1100 843 1100 800 l 1100 950 q 1050 1000 1100 1000 l 839 1000 q 789 950 789 1000 l 789 854 q 788 825 789 840 q 776 796 786 810 l 714 708 q 699 691 706 697 q 681 685 692 685 l 664 685 q 645 691 653 685 q 631 708 638 697 l 569 796 q 558 825 560 810 q 557 854 557 840 l 557 950 q 507 1000 557 1000 l 293 1000 q 243 950 243 1000 l 243 843 q 247 773 243 800 q 263 724 251 746 q 296 672 275 701 l 408 521 l 296 369 q 264 319 275 342 q 248 269 253 296 q 243 199 243 242 l 243 50 q 293 0 243 0 l 504 0 q 554 50 554 0 m 406 188 l 406 125 l 392 125 l 392 188 q 392 194 392 190 q 394 247 392 222 q 413 294 397 272 l 579 522 l 413 747 q 394 797 397 769 q 392 854 392 824 l 392 875 l 406 875 l 406 854 q 408 799 406 825 q 425 753 411 772 l 592 528 l 757 528 l 918 753 q 935 799 932 772 q 938 854 938 825 l 938 875 l 951 875 l 951 854 q 949 797 951 824 q 931 747 946 769 l 767 519 l 931 294 q 949 245 946 272 q 951 188 951 218 l 951 125 l 938 125 l 938 188 q 935 243 938 217 q 918 289 933 269 l 756 514 l 589 514 l 425 289 q 408 244 411 271 q 406 188 406 217 z "},"Y":{"ha":1118,"x_min":29,"x_max":1090,"o":"m 583 -165 l 358 -165 q 309 -150 324 -165 q 294 -101 294 -135 l 294 72 l 85 353 q 51 406 63 383 q 34 458 39 429 q 29 532 29 488 l 29 799 q 49 850 29 833 l 228 1001 q 272 1014 243 1014 l 486 1014 q 550 950 550 1014 l 550 722 q 551 697 550 710 q 560 671 553 685 l 576 647 l 576 799 q 596 850 576 833 l 775 1001 q 819 1014 790 1014 l 1026 1014 q 1090 950 1090 1014 l 1090 683 q 1085 610 1090 639 q 1069 558 1081 581 q 1035 504 1057 535 l 826 222 l 826 50 q 807 -1 826 15 l 626 -151 q 583 -165 613 -165 m 763 0 q 813 50 813 0 l 813 226 l 1024 513 q 1056 564 1044 542 q 1072 613 1068 586 q 1076 683 1076 640 l 1076 950 q 1026 1000 1076 1000 l 819 1000 q 769 950 769 1000 l 769 722 q 768 694 769 708 q 757 664 767 679 l 693 564 q 660 540 679 540 l 646 540 q 613 564 626 540 l 549 664 q 538 694 539 679 q 536 722 536 708 l 536 950 q 486 1000 536 1000 l 272 1000 q 222 950 222 1000 l 222 683 q 226 613 222 640 q 242 564 231 586 q 275 513 254 542 l 488 228 l 488 50 q 538 0 488 0 l 763 0 m 643 125 l 643 363 l 629 363 q 575 376 599 363 q 528 421 551 390 l 393 608 q 375 657 378 629 q 372 715 372 685 l 372 875 l 386 875 l 386 715 q 389 660 386 686 q 406 614 392 635 l 540 426 q 583 388 560 399 q 629 376 606 376 l 667 376 q 715 388 693 376 q 757 426 736 400 l 896 614 q 913 660 911 633 q 915 715 915 686 l 915 875 l 929 875 l 929 715 q 929 708 929 713 q 926 655 929 681 q 908 608 924 629 l 769 421 q 723 376 747 390 q 667 363 699 363 l 657 363 l 657 125 l 643 125 z "},"Ý":{"ha":1118,"x_min":29,"x_max":1090,"o":"m 583 -165 l 358 -165 q 309 -150 324 -165 q 294 -101 294 -135 l 294 72 l 85 353 q 51 406 63 383 q 34 458 39 429 q 29 532 29 488 l 29 799 q 49 850 29 833 l 178 960 l 178 1074 q 183 1104 178 1093 q 196 1122 188 1115 l 376 1274 q 419 1289 389 1286 l 904 1349 q 967 1289 967 1357 l 967 1156 q 947 1107 967 1119 l 838 1014 l 1026 1014 q 1090 950 1090 1014 l 1090 683 q 1085 610 1090 639 q 1069 558 1081 581 q 1035 504 1057 535 l 826 222 l 826 50 q 807 -1 826 15 l 626 -151 q 583 -165 613 -165 m 763 0 q 813 50 813 0 l 813 226 l 1024 513 q 1056 564 1044 542 q 1072 613 1068 586 q 1076 683 1076 640 l 1076 950 q 1026 1000 1076 1000 l 819 1000 q 769 950 769 1000 l 769 722 q 768 694 769 708 q 757 664 767 679 l 693 564 q 660 540 679 540 l 646 540 q 613 564 626 540 l 549 664 q 538 694 539 679 q 536 722 536 708 l 536 950 q 486 1000 536 1000 l 272 1000 q 222 950 222 1000 l 222 683 q 226 613 222 640 q 242 564 231 586 q 275 513 254 542 l 488 228 l 488 50 q 538 0 488 0 l 763 0 m 903 1106 q 941 1119 929 1108 q 953 1156 953 1129 l 953 1289 q 906 1335 953 1340 l 421 1275 q 383 1262 394 1272 q 371 1225 371 1251 l 371 1092 q 418 1046 371 1040 l 903 1106 m 643 125 l 643 363 l 629 363 q 575 376 599 363 q 528 421 551 390 l 393 608 q 375 657 378 629 q 372 715 372 685 l 372 875 l 386 875 l 386 715 q 389 660 386 686 q 406 614 392 635 l 540 426 q 583 388 560 399 q 629 376 606 376 l 667 376 q 715 388 693 376 q 757 426 736 400 l 896 614 q 913 660 911 633 q 915 715 915 686 l 915 875 l 929 875 l 929 715 q 929 708 929 713 q 926 655 929 681 q 908 608 924 629 l 769 421 q 723 376 747 390 q 667 363 699 363 l 657 363 l 657 125 l 643 125 m 699 938 l 550 918 l 550 722 q 551 697 550 710 q 560 671 553 685 l 576 647 l 576 799 q 596 850 576 833 l 699 938 m 828 1218 l 828 1204 l 496 1163 l 496 1176 l 828 1218 z "},"Ŷ":{"ha":1118,"x_min":29,"x_max":1090,"o":"m 583 -165 l 358 -165 q 309 -150 324 -165 q 294 -101 294 -135 l 294 72 l 85 353 q 51 406 63 383 q 34 458 39 429 q 29 532 29 488 l 29 799 q 49 850 29 833 l 164 947 l 164 1056 q 169 1096 164 1082 q 183 1119 174 1110 l 365 1271 l 364 1269 q 410 1293 376 1282 l 586 1357 q 616 1367 600 1364 q 646 1371 632 1369 q 672 1369 660 1371 q 694 1363 685 1368 l 886 1293 q 940 1265 928 1278 q 953 1207 953 1251 l 953 1094 q 949 1059 953 1072 q 939 1039 946 1046 l 938 1038 l 910 1014 l 1026 1014 q 1090 950 1090 1014 l 1090 683 q 1085 610 1090 639 q 1069 558 1081 581 q 1035 504 1057 535 l 826 222 l 826 50 q 807 -1 826 15 l 626 -151 q 583 -165 613 -165 m 763 0 q 813 50 813 0 l 813 226 l 1024 513 q 1056 564 1044 542 q 1072 613 1068 586 q 1076 683 1076 640 l 1076 950 q 1026 1000 1076 1000 l 819 1000 q 769 950 769 1000 l 769 722 q 768 694 769 708 q 757 664 767 679 l 693 564 q 660 540 679 540 l 646 540 q 613 564 626 540 l 549 664 q 538 694 539 679 q 536 722 536 708 l 536 950 q 486 1000 536 1000 l 272 1000 q 222 950 222 1000 l 222 683 q 226 613 222 640 q 242 564 231 586 q 275 513 254 542 l 488 228 l 488 50 q 538 0 488 0 l 763 0 m 604 1107 q 690 1107 647 1118 l 881 1051 q 928 1049 917 1040 q 939 1094 939 1057 l 939 1207 q 928 1256 939 1244 q 881 1281 917 1267 l 690 1350 q 669 1356 681 1354 q 646 1357 658 1357 q 619 1353 633 1356 q 592 1344 604 1350 l 414 1281 q 369 1256 381 1267 q 357 1207 357 1244 l 357 1094 q 368 1049 357 1057 q 414 1051 379 1040 l 604 1107 m 643 125 l 643 363 l 629 363 q 575 376 599 363 q 528 421 551 390 l 393 608 q 375 657 378 629 q 372 715 372 685 l 372 875 l 386 875 l 386 715 q 389 660 386 686 q 406 614 392 635 l 540 426 q 583 388 560 399 q 629 376 606 376 l 667 376 q 715 388 693 376 q 757 426 736 400 l 896 614 q 913 660 911 633 q 915 715 915 686 l 915 875 l 929 875 l 929 715 q 929 708 929 713 q 926 655 929 681 q 908 608 924 629 l 769 421 q 723 376 747 390 q 667 363 699 363 l 657 363 l 657 125 l 643 125 m 654 899 l 550 929 l 550 722 q 551 697 550 710 q 560 671 553 685 l 576 647 l 576 799 q 596 850 576 833 l 654 899 m 813 1181 l 692 1219 q 672 1225 682 1222 q 647 1228 661 1228 q 624 1225 633 1228 q 603 1219 614 1222 l 482 1181 l 482 1196 l 597 1233 q 621 1239 610 1236 q 647 1242 632 1242 q 674 1239 663 1242 q 697 1233 685 1236 l 813 1196 l 813 1181 z "},"Ÿ":{"ha":1118,"x_min":29,"x_max":1090,"o":"m 583 -165 l 358 -165 q 309 -150 324 -165 q 294 -101 294 -135 l 294 72 l 85 353 q 51 406 63 383 q 34 458 39 429 q 29 532 29 488 l 29 799 q 49 850 29 833 l 132 919 q 126 950 126 932 l 126 1118 q 131 1147 126 1136 q 144 1165 136 1158 l 324 1317 q 367 1329 339 1329 l 558 1329 q 618 1269 618 1329 l 618 1261 l 683 1317 q 725 1329 699 1329 l 917 1329 q 976 1269 976 1329 l 976 1101 q 958 1054 976 1069 l 910 1014 l 1026 1014 q 1090 950 1090 1014 l 1090 683 q 1085 610 1090 639 q 1069 558 1081 581 q 1035 504 1057 535 l 826 222 l 826 50 q 807 -1 826 15 l 626 -151 q 583 -165 613 -165 m 763 0 q 813 50 813 0 l 813 226 l 1024 513 q 1056 564 1044 542 q 1072 613 1068 586 q 1076 683 1076 640 l 1076 950 q 1026 1000 1076 1000 l 819 1000 q 769 950 769 1000 l 769 722 q 768 694 769 708 q 757 664 767 679 l 693 564 q 660 540 679 540 l 646 540 q 613 564 626 540 l 549 664 q 538 694 539 679 q 536 722 536 708 l 536 950 q 486 1000 536 1000 l 272 1000 q 222 950 222 1000 l 222 683 q 226 613 222 640 q 242 564 231 586 q 275 513 254 542 l 488 228 l 488 50 q 538 0 488 0 l 763 0 m 563 1056 q 608 1101 608 1056 l 608 1269 q 563 1315 608 1315 l 371 1315 q 324 1269 324 1315 l 324 1101 q 371 1056 324 1056 l 563 1056 m 921 1056 q 967 1101 967 1056 l 967 1269 q 921 1315 967 1315 l 729 1315 q 683 1269 683 1315 l 683 1101 q 729 1056 683 1056 l 921 1056 m 643 125 l 643 363 l 629 363 q 575 376 599 363 q 528 421 551 390 l 393 608 q 375 657 378 629 q 372 715 372 685 l 372 875 l 386 875 l 386 715 q 389 660 386 686 q 406 614 392 635 l 540 426 q 583 388 560 399 q 629 376 606 376 l 667 376 q 715 388 693 376 q 757 426 736 400 l 896 614 q 913 660 911 633 q 915 715 915 686 l 915 875 l 929 875 l 929 715 q 929 708 929 713 q 926 655 929 681 q 908 608 924 629 l 769 421 q 723 376 747 390 q 667 363 699 363 l 657 363 l 657 125 l 643 125 m 643 890 l 550 890 l 550 722 q 551 697 550 710 q 560 671 553 685 l 576 647 l 576 799 q 596 850 576 833 l 643 890 m 456 1153 l 456 1218 l 469 1218 l 469 1153 l 456 1153 m 814 1153 l 814 1218 l 828 1218 l 828 1153 l 814 1153 z "},"Ỳ":{"ha":1118,"x_min":29,"x_max":1090,"o":"m 583 -165 l 358 -165 q 309 -150 324 -165 q 294 -101 294 -135 l 294 72 l 85 353 q 51 406 63 383 q 34 458 39 429 q 29 532 29 488 l 29 799 q 49 850 29 833 l 171 953 q 150 1004 150 967 l 150 1138 q 169 1188 150 1171 l 349 1339 q 392 1349 367 1350 l 876 1289 q 924 1271 910 1285 q 939 1225 939 1257 l 939 1092 q 919 1042 939 1058 l 886 1014 l 1026 1014 q 1090 950 1090 1014 l 1090 683 q 1085 610 1090 639 q 1069 558 1081 581 q 1035 504 1057 535 l 826 222 l 826 50 q 807 -1 826 15 l 626 -151 q 583 -165 613 -165 m 763 0 q 813 50 813 0 l 813 226 l 1024 513 q 1056 564 1044 542 q 1072 613 1068 586 q 1076 683 1076 640 l 1076 950 q 1026 1000 1076 1000 l 819 1000 q 769 950 769 1000 l 769 722 q 768 694 769 708 q 757 664 767 679 l 693 564 q 660 540 679 540 l 646 540 q 613 564 626 540 l 549 664 q 538 694 539 679 q 536 722 536 708 l 536 950 q 486 1000 536 1000 l 272 1000 q 222 950 222 1000 l 222 683 q 226 613 222 640 q 242 564 231 586 q 275 513 254 542 l 488 228 l 488 50 q 538 0 488 0 l 763 0 m 878 1046 q 925 1092 925 1040 l 925 1225 q 913 1262 925 1251 q 875 1275 901 1272 l 390 1335 q 343 1289 343 1340 l 343 1156 q 355 1119 343 1129 q 393 1106 367 1108 l 878 1046 m 643 125 l 643 363 l 629 363 q 575 376 599 363 q 528 421 551 390 l 393 608 q 375 657 378 629 q 372 715 372 685 l 372 875 l 386 875 l 386 715 q 389 660 386 686 q 406 614 392 635 l 540 426 q 583 388 560 399 q 629 376 606 376 l 667 376 q 715 388 693 376 q 757 426 736 400 l 896 614 q 913 660 911 633 q 915 715 915 686 l 915 875 l 929 875 l 929 715 q 929 708 929 713 q 926 655 929 681 q 908 608 924 629 l 769 421 q 723 376 747 390 q 667 363 699 363 l 657 363 l 657 125 l 643 125 m 640 888 l 550 899 l 550 722 q 551 697 550 710 q 560 671 553 685 l 576 647 l 576 799 q 596 850 576 833 l 640 888 m 468 1218 l 800 1176 l 800 1163 l 468 1204 l 468 1218 z "},"Z":{"ha":1056,"x_min":31,"x_max":1026,"o":"m 783 -165 l 94 -165 q 31 -101 31 -165 l 31 85 q 68 179 31 140 l 388 567 l 119 567 q 56 631 56 567 l 56 799 q 75 850 56 833 l 254 1001 q 299 1014 269 1014 l 938 1014 q 1001 950 1001 1014 l 1001 743 q 992 690 1001 713 q 964 647 983 668 l 660 279 l 963 279 q 1026 215 1026 279 l 1026 50 q 1007 -1 1026 15 l 826 -151 q 783 -165 813 -165 m 963 0 q 1013 50 1013 0 l 1013 215 q 963 265 1013 265 l 631 265 l 953 656 q 988 743 988 692 l 988 950 q 938 1000 988 1000 l 299 1000 q 249 950 249 1000 l 249 782 q 299 732 249 732 l 596 732 l 258 322 q 224 236 224 286 l 224 50 q 274 0 224 0 l 963 0 m 817 756 l 410 233 q 395 213 400 221 q 390 190 390 204 l 390 171 q 399 144 390 150 q 419 139 407 139 l 888 139 l 888 125 l 419 125 q 376 171 376 125 l 376 193 q 383 220 376 208 q 400 244 390 232 l 807 767 q 822 788 818 779 q 826 810 826 796 l 826 829 q 818 856 826 850 q 797 861 810 861 l 374 861 l 374 875 l 797 875 q 840 829 840 875 l 840 807 q 834 780 840 792 q 817 756 828 768 z "},"Ź":{"ha":1056,"x_min":31,"x_max":1026,"o":"m 783 -165 l 94 -165 q 31 -101 31 -165 l 31 85 q 68 179 31 140 l 388 567 l 119 567 q 56 631 56 567 l 56 799 q 75 850 56 833 l 150 914 q 147 940 147 925 l 147 1074 q 152 1104 147 1093 q 165 1122 157 1115 l 346 1274 q 389 1289 358 1286 l 874 1349 q 936 1289 936 1357 l 936 1156 q 917 1107 936 1119 l 807 1014 l 938 1014 q 1001 950 1001 1014 l 1001 743 q 992 690 1001 713 q 964 647 983 668 l 660 279 l 963 279 q 1026 215 1026 279 l 1026 50 q 1007 -1 1026 15 l 826 -151 q 783 -165 813 -165 m 963 0 q 1013 50 1013 0 l 1013 215 q 963 265 1013 265 l 631 265 l 953 656 q 988 743 988 692 l 988 950 q 938 1000 988 1000 l 299 1000 q 249 950 249 1000 l 249 782 q 299 732 249 732 l 596 732 l 258 322 q 224 236 224 286 l 224 50 q 274 0 224 0 l 963 0 m 872 1106 q 910 1119 899 1108 q 922 1156 922 1129 l 922 1289 q 875 1335 922 1340 l 390 1275 q 352 1262 364 1272 q 340 1225 340 1251 l 340 1092 q 388 1046 340 1040 l 872 1106 m 817 756 l 410 233 q 395 213 400 221 q 390 190 390 204 l 390 171 q 399 144 390 150 q 419 139 407 139 l 888 139 l 888 125 l 419 125 q 376 171 376 125 l 376 193 q 383 220 376 208 q 400 244 390 232 l 807 767 q 822 788 818 779 q 826 810 826 796 l 826 829 q 818 856 826 850 q 797 861 810 861 l 374 861 l 374 875 l 797 875 q 840 829 840 875 l 840 807 q 834 780 840 792 q 817 756 828 768 m 797 1218 l 797 1204 l 465 1163 l 465 1176 l 797 1218 z "},"Ż":{"ha":1056,"x_min":31,"x_max":1026,"o":"m 783 -165 l 94 -165 q 31 -101 31 -165 l 31 85 q 68 179 31 140 l 388 567 l 119 567 q 56 631 56 567 l 56 799 q 75 850 56 833 l 254 1001 q 268 1010 260 1007 l 268 1131 q 288 1182 268 1165 l 467 1333 q 511 1346 482 1346 l 731 1346 q 794 1282 794 1346 l 794 1106 q 775 1054 794 1071 l 726 1014 l 938 1014 q 1001 950 1001 1014 l 1001 743 q 992 690 1001 713 q 964 647 983 668 l 660 279 l 963 279 q 1026 215 1026 279 l 1026 50 q 1007 -1 1026 15 l 826 -151 q 783 -165 813 -165 m 963 0 q 1013 50 1013 0 l 1013 215 q 963 265 1013 265 l 631 265 l 953 656 q 988 743 988 692 l 988 950 q 938 1000 988 1000 l 299 1000 q 249 950 249 1000 l 249 782 q 299 732 249 732 l 596 732 l 258 322 q 224 236 224 286 l 224 50 q 274 0 224 0 l 963 0 m 729 1056 q 779 1106 779 1056 l 779 1282 q 729 1332 779 1332 l 510 1332 q 460 1282 460 1332 l 460 1106 q 510 1056 460 1056 l 729 1056 m 817 756 l 410 233 q 395 213 400 221 q 390 190 390 204 l 390 171 q 399 144 390 150 q 419 139 407 139 l 888 139 l 888 125 l 419 125 q 376 171 376 125 l 376 193 q 383 220 376 208 q 400 244 390 232 l 807 767 q 822 788 818 779 q 826 810 826 796 l 826 829 q 818 856 826 850 q 797 861 810 861 l 374 861 l 374 875 l 797 875 q 840 829 840 875 l 840 807 q 834 780 840 792 q 817 756 828 768 m 614 1153 l 614 1235 l 628 1235 l 628 1153 l 614 1153 z "},"Ž":{"ha":1056,"x_min":31,"x_max":1026,"o":"m 783 -165 l 94 -165 q 31 -101 31 -165 l 31 85 q 68 179 31 140 l 388 567 l 119 567 q 56 631 56 567 l 56 799 q 75 850 56 833 l 201 957 l 200 957 q 146 986 158 972 q 133 1043 133 1000 l 133 1156 q 149 1213 133 1201 l 328 1364 q 349 1371 335 1371 q 389 1364 364 1371 l 579 1308 q 657 1308 618 1297 l 847 1364 q 908 1368 893 1379 q 922 1307 922 1357 l 922 1194 q 917 1154 922 1168 q 900 1131 911 1140 l 763 1014 l 938 1014 q 1001 950 1001 1014 l 1001 743 q 992 690 1001 713 q 964 647 983 668 l 660 279 l 963 279 q 1026 215 1026 279 l 1026 50 q 1007 -1 1026 15 l 826 -151 q 783 -165 813 -165 m 963 0 q 1013 50 1013 0 l 1013 215 q 963 265 1013 265 l 631 265 l 953 656 q 988 743 988 692 l 988 950 q 938 1000 988 1000 l 299 1000 q 249 950 249 1000 l 249 782 q 299 732 249 732 l 596 732 l 258 322 q 224 236 224 286 l 224 50 q 274 0 224 0 l 963 0 m 661 1294 q 575 1294 618 1283 l 385 1350 q 338 1353 349 1361 q 326 1307 326 1344 l 326 1194 q 338 1146 326 1157 q 385 1121 350 1135 l 575 1051 q 597 1046 586 1047 q 619 1044 607 1044 q 647 1049 632 1046 q 674 1057 661 1051 l 851 1121 q 897 1146 885 1135 q 908 1194 908 1157 l 908 1307 q 898 1353 908 1344 q 851 1350 888 1361 l 661 1294 m 817 756 l 410 233 q 395 213 400 221 q 390 190 390 204 l 390 171 q 399 144 390 150 q 419 139 407 139 l 888 139 l 888 125 l 419 125 q 376 171 376 125 l 376 193 q 383 220 376 208 q 400 244 390 232 l 807 767 q 822 788 818 779 q 826 810 826 796 l 826 829 q 818 856 826 850 q 797 861 810 861 l 374 861 l 374 875 l 797 875 q 840 829 840 875 l 840 807 q 834 780 840 792 q 817 756 828 768 m 451 1221 l 572 1182 q 593 1176 583 1179 q 617 1174 603 1174 q 641 1176 631 1174 q 661 1182 651 1179 l 782 1221 l 782 1206 l 667 1168 q 643 1163 654 1165 q 617 1160 632 1160 q 590 1163 601 1160 q 567 1168 579 1165 l 451 1206 l 451 1221 z "},"Æ":{"ha":1535,"x_min":42,"x_max":1501,"o":"m 532 -1 l 351 -151 q 308 -165 338 -165 l 106 -165 q 42 -101 42 -165 l 42 251 q 52 363 42 314 q 83 464 63 411 l 204 796 q 216 825 208 814 q 233 843 224 836 l 411 993 q 482 1014 433 1014 l 1438 1014 q 1501 950 1501 1014 l 1501 788 q 1482 736 1501 753 l 1363 638 q 1389 581 1389 624 l 1389 432 q 1369 381 1389 397 l 1246 276 l 1438 276 q 1501 213 1501 276 l 1501 50 q 1482 -1 1501 15 l 1301 -151 q 1258 -165 1288 -165 l 642 -165 q 578 -101 578 -165 l 578 79 l 551 79 l 551 50 q 532 -1 551 15 m 1438 0 q 1488 50 1488 0 l 1488 213 q 1438 263 1488 263 l 1086 263 l 1086 382 l 1325 382 q 1375 432 1375 382 l 1375 581 q 1325 631 1375 631 l 1086 631 l 1086 738 l 1438 738 q 1488 788 1488 738 l 1488 950 q 1438 1000 1488 1000 l 482 1000 q 427 988 447 1000 q 396 943 407 975 l 275 611 q 245 512 256 560 q 235 403 235 464 l 235 50 q 285 0 235 0 l 488 0 q 538 50 538 0 l 538 244 l 771 244 l 771 50 q 821 0 771 0 l 1438 0 m 1363 861 l 936 861 l 936 514 l 1250 514 l 1250 500 l 936 500 l 936 139 l 1363 139 l 1363 125 l 922 125 l 922 365 l 393 365 l 393 125 l 379 125 l 379 404 q 382 474 379 444 q 394 532 385 503 l 497 814 q 528 863 513 850 q 568 875 543 875 l 1363 875 l 1363 861 m 922 861 l 568 861 q 535 850 547 861 q 511 808 522 839 l 408 526 q 396 472 399 500 q 393 404 393 443 l 393 379 l 922 379 l 922 861 m 771 738 l 771 497 l 551 497 l 624 714 q 634 733 629 728 q 650 738 639 738 l 771 738 z "},"Ð":{"ha":1189,"x_min":-6,"x_max":1143,"o":"m 140 -165 q 76 -101 76 -165 l 76 203 l 58 203 q 10 217 25 203 q -6 267 -6 232 l -6 415 q 14 467 -6 450 l 76 519 l 76 799 q 96 850 76 833 l 275 1001 q 319 1014 290 1014 l 788 1014 q 1003 976 925 1014 q 1112 872 1081 939 q 1143 717 1143 804 l 1143 283 q 1124 157 1143 214 q 1056 60 1104 100 l 876 -92 q 769 -146 835 -126 q 608 -165 704 -165 l 140 -165 m 238 368 l 269 368 l 269 50 q 319 0 269 0 l 788 0 q 994 36 919 0 q 1099 136 1068 72 q 1129 283 1129 200 l 1129 717 q 1099 865 1129 801 q 994 964 1068 928 q 788 1000 919 1000 l 319 1000 q 269 950 269 1000 l 269 617 l 238 617 q 188 567 188 617 l 188 418 q 238 368 188 368 m 313 499 l 418 499 l 418 875 l 757 875 q 899 849 851 875 q 963 780 947 824 q 979 682 979 736 l 979 314 q 964 218 979 261 q 901 150 949 175 q 757 125 853 125 l 418 125 l 418 485 l 313 485 l 313 499 m 432 499 l 563 499 l 563 485 l 432 485 l 432 139 l 757 139 q 890 162 846 139 q 950 224 935 185 q 965 314 965 264 l 965 682 q 950 774 965 733 q 890 838 935 814 q 757 861 844 861 l 432 861 l 432 499 m 581 735 l 750 735 q 803 715 792 735 q 815 668 815 696 l 815 331 q 803 283 815 303 q 750 263 792 263 l 581 263 l 581 368 l 638 368 q 688 418 688 368 l 688 567 q 638 617 688 617 l 581 617 l 581 735 z "},"Ø":{"ha":1163,"x_min":47,"x_max":1117,"o":"m 326 -262 l 167 -262 q 115 -243 129 -262 q 118 -193 101 -224 l 151 -114 q 90 -42 113 -87 q 57 54 67 3 q 47 153 47 106 l 47 585 q 65 704 47 650 q 131 797 83 758 l 311 947 q 447 1012 360 989 q 672 1035 533 1035 q 699 1035 686 1035 q 718 1033 711 1035 l 790 1096 q 838 1111 810 1111 l 997 1111 q 1049 1092 1035 1111 q 1046 1042 1063 1072 l 1013 963 q 1094 866 1072 924 q 1117 736 1117 808 l 1117 263 q 1099 145 1117 199 q 1033 51 1081 92 l 854 -99 q 719 -163 806 -140 q 493 -186 632 -186 q 469 -185 481 -186 q 446 -185 457 -185 l 371 -247 l 372 -246 q 326 -262 356 -262 m 1103 263 l 1103 736 q 1080 863 1103 807 q 996 957 1057 919 l 1033 1047 q 1035 1084 1046 1071 q 997 1097 1024 1097 l 838 1097 q 799 1084 811 1097 q 774 1047 786 1071 l 761 1018 q 672 1021 719 1021 q 458 1000 542 1021 q 326 942 374 979 q 260 852 279 904 q 240 736 240 800 l 240 263 q 263 137 240 193 q 347 43 286 81 l 310 -47 q 308 -83 297 -69 q 346 -97 319 -97 l 506 -97 q 544 -83 532 -97 q 569 -47 557 -69 l 582 -18 q 672 -21 624 -21 q 887 -1 803 -21 q 1018 57 971 19 q 1084 147 1065 94 q 1103 263 1103 199 m 879 972 l 836 872 q 938 806 910 850 q 965 704 965 763 l 965 294 q 940 197 965 239 q 850 131 914 154 q 669 107 786 107 q 519 122 579 107 l 479 28 l 464 28 l 506 126 q 404 191 432 147 q 376 294 376 235 l 376 704 q 401 803 376 761 q 490 868 426 844 q 669 892 554 892 q 824 876 761 892 l 864 972 l 879 972 m 511 139 l 818 863 q 669 878 758 878 q 499 856 560 878 q 414 796 438 835 q 390 704 390 757 l 390 294 q 416 200 390 240 q 511 139 442 160 m 669 121 q 842 142 781 121 q 927 203 903 164 q 951 294 951 243 l 951 704 q 926 799 951 758 q 831 858 900 839 l 525 135 q 669 121 583 121 m 817 619 l 817 313 q 807 272 817 290 q 767 244 797 254 q 672 233 736 233 q 653 233 663 233 l 817 619 m 528 385 l 528 686 q 538 726 528 708 q 579 753 549 743 q 672 764 610 764 q 689 764 681 764 l 528 385 z "}}}
